<svg width="44" height="44" viewBox="0 0 44 44" fill="none" xmlns="http://www.w3.org/2000/svg">
<path d="M4.86665 5.20039H7.26665V0.400391H3.66665C2.71187 0.400391 1.7962 0.779675 1.12107 1.45481C0.445935 2.12994 0.0666504 3.04561 0.0666504 4.00039V7.60039H4.86665V5.20039ZM12.0666 5.20039H19.2666V0.400391H12.0666V5.20039ZM24.0666 5.20039H31.2666V0.400391H24.0666V5.20039ZM19.2666 43.6004H12.0666V38.8004H19.2666V43.6004ZM24.0666 43.6004H31.2666V38.8004H24.0666V43.6004ZM38.4666 7.60039V5.20039H36.0666V0.400391H39.6666C40.6214 0.400391 41.5371 0.779675 42.2122 1.45481C42.8874 2.12994 43.2666 3.04561 43.2666 4.00039V7.60039H38.4666ZM4.86665 38.8004V36.4004H0.0666504V40.0004C0.0666504 40.9552 0.445935 41.8708 1.12107 42.546C1.7962 43.2211 2.71187 43.6004 3.66665 43.6004H7.26665V38.8004H4.86665ZM36.0666 38.8004H38.4666V36.4004H43.2666V40.0004C43.2666 40.9552 42.8874 41.8708 42.2122 42.546C41.5371 43.2211 40.6214 43.6004 39.6666 43.6004H36.0666V38.8004ZM21.6666 12.4004C22.3032 12.4004 22.9136 12.6532 23.3637 13.1033C23.8138 13.5534 24.0666 14.1639 24.0666 14.8004V19.6004H28.8666C29.5032 19.6004 30.1136 19.8532 30.5637 20.3033C31.0138 20.7534 31.2666 21.3639 31.2666 22.0004C31.2666 22.6369 31.0138 23.2474 30.5637 23.6974C30.1136 24.1475 29.5032 24.4004 28.8666 24.4004H24.0666V29.2004C24.0666 29.8369 23.8138 30.4474 23.3637 30.8974C22.9136 31.3475 22.3032 31.6004 21.6666 31.6004C21.0301 31.6004 20.4197 31.3475 19.9696 30.8974C19.5195 30.4474 19.2666 29.8369 19.2666 29.2004V24.4004H14.4667C13.8301 24.4004 13.2197 24.1475 12.7696 23.6974C12.3195 23.2474 12.0666 22.6369 12.0666 22.0004C12.0666 21.3639 12.3195 20.7534 12.7696 20.3033C13.2197 19.8532 13.8301 19.6004 14.4667 19.6004H19.2666V14.8004C19.2666 14.1639 19.5195 13.5534 19.9696 13.1033C20.4197 12.6532 21.0301 12.4004 21.6666 12.4004ZM0.0666504 19.6004V12.4004H4.86665V19.6004H0.0666504ZM0.0666504 24.4004V31.6004H4.86665V24.4004H0.0666504ZM38.4666 19.6004V12.4004H43.2666V19.6004H38.4666ZM38.4666 24.4004V31.6004H43.2666V24.4004H38.4666Z" fill="#CCE5DF"/>
</svg>
