<svg width="112" height="111" viewBox="0 0 112 111" fill="none" xmlns="http://www.w3.org/2000/svg">
<g filter="url(#filter0_dd_44607_11868)">
<rect width="106.667" height="106" rx="4" fill="white"/>
<rect width="26" height="26" transform="translate(10.333 10)" fill="#F6F6F7"/>
<g clip-path="url(#clip0_44607_11868)">
<path d="M27.833 26C27.9656 26 28.0928 25.9473 28.1866 25.8536C28.2803 25.7598 28.333 25.6326 28.333 25.5V18.5C28.333 18.3674 28.2803 18.2402 28.1866 18.1464C28.0928 18.0527 27.9656 18 27.833 18H20.833C20.7004 18 20.5732 18.0527 20.4795 18.1464C20.3857 18.2402 20.333 18.3674 20.333 18.5V25.5C20.333 25.6326 20.3857 25.7598 20.4795 25.8536C20.5732 25.9473 20.7004 26 20.833 26H27.833ZM21.546 25C21.4195 25 21.333 24.9045 21.333 24.802C21.333 24.762 21.346 24.721 21.3745 24.684L22.8975 23.064C22.9386 23.0239 22.9935 23.001 23.0509 23.0002C23.1083 22.9993 23.1638 23.0206 23.206 23.0595L23.9045 23.8L25.216 21.8875C25.2373 21.8596 25.2649 21.8372 25.2966 21.822C25.3282 21.8068 25.363 21.7993 25.398 21.8001C25.4331 21.8009 25.4675 21.8099 25.4984 21.8265C25.5294 21.8431 25.5559 21.8667 25.576 21.8955L27.307 24.7C27.384 24.836 27.281 25 27.1185 25H21.546ZM23.833 20.5C23.833 20.7652 23.7277 21.0196 23.5401 21.2071C23.3526 21.3946 23.0982 21.5 22.833 21.5C22.5678 21.5 22.3134 21.3946 22.1259 21.2071C21.9384 21.0196 21.833 20.7652 21.833 20.5C21.833 20.2348 21.9384 19.9804 22.1259 19.7929C22.3134 19.6054 22.5678 19.5 22.833 19.5C23.0982 19.5 23.3526 19.6054 23.5401 19.7929C23.7277 19.9804 23.833 20.2348 23.833 20.5ZM18.333 20.25C18.333 20.0511 18.412 19.8603 18.5527 19.7197C18.6933 19.579 18.8841 19.5 19.083 19.5H19.333V27H26.833V27.25C26.833 27.4489 26.754 27.6397 26.6133 27.7803C26.4727 27.921 26.2819 28 26.083 28H19.083C18.8841 28 18.6933 27.921 18.5527 27.7803C18.412 27.6397 18.333 27.4489 18.333 27.25V20.25Z" fill="#5C5F62"/>
</g>
<rect width="26" height="26" transform="translate(40.333 10)" fill="#F6F6F7"/>
<g clip-path="url(#clip1_44607_11868)">
<path d="M57.833 26C57.9656 26 58.0928 25.9473 58.1866 25.8536C58.2803 25.7598 58.333 25.6326 58.333 25.5V18.5C58.333 18.3674 58.2803 18.2402 58.1866 18.1464C58.0928 18.0527 57.9656 18 57.833 18H50.833C50.7004 18 50.5732 18.0527 50.4795 18.1464C50.3857 18.2402 50.333 18.3674 50.333 18.5V25.5C50.333 25.6326 50.3857 25.7598 50.4795 25.8536C50.5732 25.9473 50.7004 26 50.833 26H57.833ZM51.546 25C51.4195 25 51.333 24.9045 51.333 24.802C51.333 24.762 51.346 24.721 51.3745 24.684L52.8975 23.064C52.9386 23.0239 52.9935 23.001 53.0509 23.0002C53.1083 22.9993 53.1638 23.0206 53.206 23.0595L53.9045 23.8L55.216 21.8875C55.2373 21.8596 55.2649 21.8372 55.2966 21.822C55.3282 21.8068 55.363 21.7993 55.398 21.8001C55.4331 21.8009 55.4675 21.8099 55.4984 21.8265C55.5294 21.8431 55.5559 21.8667 55.576 21.8955L57.307 24.7C57.384 24.836 57.281 25 57.1185 25H51.546ZM53.833 20.5C53.833 20.7652 53.7277 21.0196 53.5401 21.2071C53.3526 21.3946 53.0982 21.5 52.833 21.5C52.5678 21.5 52.3134 21.3946 52.1259 21.2071C51.9384 21.0196 51.833 20.7652 51.833 20.5C51.833 20.2348 51.9384 19.9804 52.1259 19.7929C52.3134 19.6054 52.5678 19.5 52.833 19.5C53.0982 19.5 53.3526 19.6054 53.5401 19.7929C53.7277 19.9804 53.833 20.2348 53.833 20.5ZM48.333 20.25C48.333 20.0511 48.412 19.8603 48.5527 19.7197C48.6933 19.579 48.8841 19.5 49.083 19.5H49.333V27H56.833V27.25C56.833 27.4489 56.754 27.6397 56.6133 27.7803C56.4727 27.921 56.2819 28 56.083 28H49.083C48.8841 28 48.6933 27.921 48.5527 27.7803C48.412 27.6397 48.333 27.4489 48.333 27.25V20.25Z" fill="#5C5F62"/>
</g>
<rect width="26" height="26" transform="translate(70.333 10)" fill="#F6F6F7"/>
<g clip-path="url(#clip2_44607_11868)">
<path d="M87.833 26C87.9656 26 88.0928 25.9473 88.1866 25.8536C88.2803 25.7598 88.333 25.6326 88.333 25.5V18.5C88.333 18.3674 88.2803 18.2402 88.1866 18.1464C88.0928 18.0527 87.9656 18 87.833 18H80.833C80.7004 18 80.5732 18.0527 80.4795 18.1464C80.3857 18.2402 80.333 18.3674 80.333 18.5V25.5C80.333 25.6326 80.3857 25.7598 80.4795 25.8536C80.5732 25.9473 80.7004 26 80.833 26H87.833ZM81.546 25C81.4195 25 81.333 24.9045 81.333 24.802C81.333 24.762 81.346 24.721 81.3745 24.684L82.8975 23.064C82.9386 23.0239 82.9935 23.001 83.0509 23.0002C83.1083 22.9993 83.1638 23.0206 83.206 23.0595L83.9045 23.8L85.216 21.8875C85.2373 21.8596 85.2649 21.8372 85.2966 21.822C85.3282 21.8068 85.363 21.7993 85.398 21.8001C85.4331 21.8009 85.4675 21.8099 85.4984 21.8265C85.5294 21.8431 85.5559 21.8667 85.576 21.8955L87.307 24.7C87.384 24.836 87.281 25 87.1185 25H81.546ZM83.833 20.5C83.833 20.7652 83.7277 21.0196 83.5401 21.2071C83.3526 21.3946 83.0982 21.5 82.833 21.5C82.5678 21.5 82.3134 21.3946 82.1259 21.2071C81.9384 21.0196 81.833 20.7652 81.833 20.5C81.833 20.2348 81.9384 19.9804 82.1259 19.7929C82.3134 19.6054 82.5678 19.5 82.833 19.5C83.0982 19.5 83.3526 19.6054 83.5401 19.7929C83.7277 19.9804 83.833 20.2348 83.833 20.5ZM78.333 20.25C78.333 20.0511 78.412 19.8603 78.5527 19.7197C78.6933 19.579 78.8841 19.5 79.083 19.5H79.333V27H86.833V27.25C86.833 27.4489 86.754 27.6397 86.6133 27.7803C86.4727 27.921 86.2819 28 86.083 28H79.083C78.8841 28 78.6933 27.921 78.5527 27.7803C78.412 27.6397 78.333 27.4489 78.333 27.25V20.25Z" fill="#5C5F62"/>
</g>
<rect width="26" height="26" transform="translate(10.333 40)" fill="#F6F6F7"/>
<g clip-path="url(#clip3_44607_11868)">
<path d="M27.833 56C27.9656 56 28.0928 55.9473 28.1866 55.8536C28.2803 55.7598 28.333 55.6326 28.333 55.5V48.5C28.333 48.3674 28.2803 48.2402 28.1866 48.1464C28.0928 48.0527 27.9656 48 27.833 48H20.833C20.7004 48 20.5732 48.0527 20.4795 48.1464C20.3857 48.2402 20.333 48.3674 20.333 48.5V55.5C20.333 55.6326 20.3857 55.7598 20.4795 55.8536C20.5732 55.9473 20.7004 56 20.833 56H27.833ZM21.546 55C21.4195 55 21.333 54.9045 21.333 54.802C21.333 54.762 21.346 54.721 21.3745 54.684L22.8975 53.064C22.9386 53.0239 22.9935 53.001 23.0509 53.0002C23.1083 52.9993 23.1638 53.0206 23.206 53.0595L23.9045 53.8L25.216 51.8875C25.2373 51.8596 25.2649 51.8372 25.2966 51.822C25.3282 51.8068 25.363 51.7993 25.398 51.8001C25.4331 51.8009 25.4675 51.8099 25.4984 51.8265C25.5294 51.8431 25.5559 51.8667 25.576 51.8955L27.307 54.7C27.384 54.836 27.281 55 27.1185 55H21.546ZM23.833 50.5C23.833 50.7652 23.7277 51.0196 23.5401 51.2071C23.3526 51.3946 23.0982 51.5 22.833 51.5C22.5678 51.5 22.3134 51.3946 22.1259 51.2071C21.9384 51.0196 21.833 50.7652 21.833 50.5C21.833 50.2348 21.9384 49.9804 22.1259 49.7929C22.3134 49.6054 22.5678 49.5 22.833 49.5C23.0982 49.5 23.3526 49.6054 23.5401 49.7929C23.7277 49.9804 23.833 50.2348 23.833 50.5ZM18.333 50.25C18.333 50.0511 18.412 49.8603 18.5527 49.7197C18.6933 49.579 18.8841 49.5 19.083 49.5H19.333V57H26.833V57.25C26.833 57.4489 26.754 57.6397 26.6133 57.7803C26.4727 57.921 26.2819 58 26.083 58H19.083C18.8841 58 18.6933 57.921 18.5527 57.7803C18.412 57.6397 18.333 57.4489 18.333 57.25V50.25Z" fill="#5C5F62"/>
</g>
<rect width="26" height="26" transform="translate(40.333 40)" fill="#F6F6F7"/>
<g clip-path="url(#clip4_44607_11868)">
<path d="M57.833 56C57.9656 56 58.0928 55.9473 58.1866 55.8536C58.2803 55.7598 58.333 55.6326 58.333 55.5V48.5C58.333 48.3674 58.2803 48.2402 58.1866 48.1464C58.0928 48.0527 57.9656 48 57.833 48H50.833C50.7004 48 50.5732 48.0527 50.4795 48.1464C50.3857 48.2402 50.333 48.3674 50.333 48.5V55.5C50.333 55.6326 50.3857 55.7598 50.4795 55.8536C50.5732 55.9473 50.7004 56 50.833 56H57.833ZM51.546 55C51.4195 55 51.333 54.9045 51.333 54.802C51.333 54.762 51.346 54.721 51.3745 54.684L52.8975 53.064C52.9386 53.0239 52.9935 53.001 53.0509 53.0002C53.1083 52.9993 53.1638 53.0206 53.206 53.0595L53.9045 53.8L55.216 51.8875C55.2373 51.8596 55.2649 51.8372 55.2966 51.822C55.3282 51.8068 55.363 51.7993 55.398 51.8001C55.4331 51.8009 55.4675 51.8099 55.4984 51.8265C55.5294 51.8431 55.5559 51.8667 55.576 51.8955L57.307 54.7C57.384 54.836 57.281 55 57.1185 55H51.546ZM53.833 50.5C53.833 50.7652 53.7277 51.0196 53.5401 51.2071C53.3526 51.3946 53.0982 51.5 52.833 51.5C52.5678 51.5 52.3134 51.3946 52.1259 51.2071C51.9384 51.0196 51.833 50.7652 51.833 50.5C51.833 50.2348 51.9384 49.9804 52.1259 49.7929C52.3134 49.6054 52.5678 49.5 52.833 49.5C53.0982 49.5 53.3526 49.6054 53.5401 49.7929C53.7277 49.9804 53.833 50.2348 53.833 50.5ZM48.333 50.25C48.333 50.0511 48.412 49.8603 48.5527 49.7197C48.6933 49.579 48.8841 49.5 49.083 49.5H49.333V57H56.833V57.25C56.833 57.4489 56.754 57.6397 56.6133 57.7803C56.4727 57.921 56.2819 58 56.083 58H49.083C48.8841 58 48.6933 57.921 48.5527 57.7803C48.412 57.6397 48.333 57.4489 48.333 57.25V50.25Z" fill="#5C5F62"/>
</g>
<rect width="26" height="26" transform="translate(70.333 40)" fill="#F6F6F7"/>
<g clip-path="url(#clip5_44607_11868)">
<path d="M87.833 56C87.9656 56 88.0928 55.9473 88.1866 55.8536C88.2803 55.7598 88.333 55.6326 88.333 55.5V48.5C88.333 48.3674 88.2803 48.2402 88.1866 48.1464C88.0928 48.0527 87.9656 48 87.833 48H80.833C80.7004 48 80.5732 48.0527 80.4795 48.1464C80.3857 48.2402 80.333 48.3674 80.333 48.5V55.5C80.333 55.6326 80.3857 55.7598 80.4795 55.8536C80.5732 55.9473 80.7004 56 80.833 56H87.833ZM81.546 55C81.4195 55 81.333 54.9045 81.333 54.802C81.333 54.762 81.346 54.721 81.3745 54.684L82.8975 53.064C82.9386 53.0239 82.9935 53.001 83.0509 53.0002C83.1083 52.9993 83.1638 53.0206 83.206 53.0595L83.9045 53.8L85.216 51.8875C85.2373 51.8596 85.2649 51.8372 85.2966 51.822C85.3282 51.8068 85.363 51.7993 85.398 51.8001C85.4331 51.8009 85.4675 51.8099 85.4984 51.8265C85.5294 51.8431 85.5559 51.8667 85.576 51.8955L87.307 54.7C87.384 54.836 87.281 55 87.1185 55H81.546ZM83.833 50.5C83.833 50.7652 83.7277 51.0196 83.5401 51.2071C83.3526 51.3946 83.0982 51.5 82.833 51.5C82.5678 51.5 82.3134 51.3946 82.1259 51.2071C81.9384 51.0196 81.833 50.7652 81.833 50.5C81.833 50.2348 81.9384 49.9804 82.1259 49.7929C82.3134 49.6054 82.5678 49.5 82.833 49.5C83.0982 49.5 83.3526 49.6054 83.5401 49.7929C83.7277 49.9804 83.833 50.2348 83.833 50.5ZM78.333 50.25C78.333 50.0511 78.412 49.8603 78.5527 49.7197C78.6933 49.579 78.8841 49.5 79.083 49.5H79.333V57H86.833V57.25C86.833 57.4489 86.754 57.6397 86.6133 57.7803C86.4727 57.921 86.2819 58 86.083 58H79.083C78.8841 58 78.6933 57.921 78.5527 57.7803C78.412 57.6397 78.333 57.4489 78.333 57.25V50.25Z" fill="#5C5F62"/>
</g>
<rect width="26" height="26" transform="translate(10.333 70)" fill="#F6F6F7"/>
<g clip-path="url(#clip6_44607_11868)">
<path d="M27.833 86C27.9656 86 28.0928 85.9473 28.1866 85.8536C28.2803 85.7598 28.333 85.6326 28.333 85.5V78.5C28.333 78.3674 28.2803 78.2402 28.1866 78.1464C28.0928 78.0527 27.9656 78 27.833 78H20.833C20.7004 78 20.5732 78.0527 20.4795 78.1464C20.3857 78.2402 20.333 78.3674 20.333 78.5V85.5C20.333 85.6326 20.3857 85.7598 20.4795 85.8536C20.5732 85.9473 20.7004 86 20.833 86H27.833ZM21.546 85C21.4195 85 21.333 84.9045 21.333 84.802C21.333 84.762 21.346 84.721 21.3745 84.684L22.8975 83.064C22.9386 83.0239 22.9935 83.001 23.0509 83.0002C23.1083 82.9993 23.1638 83.0206 23.206 83.0595L23.9045 83.8L25.216 81.8875C25.2373 81.8596 25.2649 81.8372 25.2966 81.822C25.3282 81.8068 25.363 81.7993 25.398 81.8001C25.4331 81.8009 25.4675 81.8099 25.4984 81.8265C25.5294 81.8431 25.5559 81.8667 25.576 81.8955L27.307 84.7C27.384 84.836 27.281 85 27.1185 85H21.546ZM23.833 80.5C23.833 80.7652 23.7277 81.0196 23.5401 81.2071C23.3526 81.3946 23.0982 81.5 22.833 81.5C22.5678 81.5 22.3134 81.3946 22.1259 81.2071C21.9384 81.0196 21.833 80.7652 21.833 80.5C21.833 80.2348 21.9384 79.9804 22.1259 79.7929C22.3134 79.6054 22.5678 79.5 22.833 79.5C23.0982 79.5 23.3526 79.6054 23.5401 79.7929C23.7277 79.9804 23.833 80.2348 23.833 80.5ZM18.333 80.25C18.333 80.0511 18.412 79.8603 18.5527 79.7197C18.6933 79.579 18.8841 79.5 19.083 79.5H19.333V87H26.833V87.25C26.833 87.4489 26.754 87.6397 26.6133 87.7803C26.4727 87.921 26.2819 88 26.083 88H19.083C18.8841 88 18.6933 87.921 18.5527 87.7803C18.412 87.6397 18.333 87.4489 18.333 87.25V80.25Z" fill="#5C5F62"/>
</g>
<rect width="26" height="26" transform="translate(40.333 70)" fill="#F6F6F7"/>
<g clip-path="url(#clip7_44607_11868)">
<path d="M57.833 86C57.9656 86 58.0928 85.9473 58.1866 85.8536C58.2803 85.7598 58.333 85.6326 58.333 85.5V78.5C58.333 78.3674 58.2803 78.2402 58.1866 78.1464C58.0928 78.0527 57.9656 78 57.833 78H50.833C50.7004 78 50.5732 78.0527 50.4795 78.1464C50.3857 78.2402 50.333 78.3674 50.333 78.5V85.5C50.333 85.6326 50.3857 85.7598 50.4795 85.8536C50.5732 85.9473 50.7004 86 50.833 86H57.833ZM51.546 85C51.4195 85 51.333 84.9045 51.333 84.802C51.333 84.762 51.346 84.721 51.3745 84.684L52.8975 83.064C52.9386 83.0239 52.9935 83.001 53.0509 83.0002C53.1083 82.9993 53.1638 83.0206 53.206 83.0595L53.9045 83.8L55.216 81.8875C55.2373 81.8596 55.2649 81.8372 55.2966 81.822C55.3282 81.8068 55.363 81.7993 55.398 81.8001C55.4331 81.8009 55.4675 81.8099 55.4984 81.8265C55.5294 81.8431 55.5559 81.8667 55.576 81.8955L57.307 84.7C57.384 84.836 57.281 85 57.1185 85H51.546ZM53.833 80.5C53.833 80.7652 53.7277 81.0196 53.5401 81.2071C53.3526 81.3946 53.0982 81.5 52.833 81.5C52.5678 81.5 52.3134 81.3946 52.1259 81.2071C51.9384 81.0196 51.833 80.7652 51.833 80.5C51.833 80.2348 51.9384 79.9804 52.1259 79.7929C52.3134 79.6054 52.5678 79.5 52.833 79.5C53.0982 79.5 53.3526 79.6054 53.5401 79.7929C53.7277 79.9804 53.833 80.2348 53.833 80.5ZM48.333 80.25C48.333 80.0511 48.412 79.8603 48.5527 79.7197C48.6933 79.579 48.8841 79.5 49.083 79.5H49.333V87H56.833V87.25C56.833 87.4489 56.754 87.6397 56.6133 87.7803C56.4727 87.921 56.2819 88 56.083 88H49.083C48.8841 88 48.6933 87.921 48.5527 87.7803C48.412 87.6397 48.333 87.4489 48.333 87.25V80.25Z" fill="#5C5F62"/>
</g>
<rect width="26" height="26" transform="translate(70.333 70)" fill="#F6F6F7"/>
<g clip-path="url(#clip8_44607_11868)">
<path d="M87.833 86C87.9656 86 88.0928 85.9473 88.1866 85.8536C88.2803 85.7598 88.333 85.6326 88.333 85.5V78.5C88.333 78.3674 88.2803 78.2402 88.1866 78.1464C88.0928 78.0527 87.9656 78 87.833 78H80.833C80.7004 78 80.5732 78.0527 80.4795 78.1464C80.3857 78.2402 80.333 78.3674 80.333 78.5V85.5C80.333 85.6326 80.3857 85.7598 80.4795 85.8536C80.5732 85.9473 80.7004 86 80.833 86H87.833ZM81.546 85C81.4195 85 81.333 84.9045 81.333 84.802C81.333 84.762 81.346 84.721 81.3745 84.684L82.8975 83.064C82.9386 83.0239 82.9935 83.001 83.0509 83.0002C83.1083 82.9993 83.1638 83.0206 83.206 83.0595L83.9045 83.8L85.216 81.8875C85.2373 81.8596 85.2649 81.8372 85.2966 81.822C85.3282 81.8068 85.363 81.7993 85.398 81.8001C85.4331 81.8009 85.4675 81.8099 85.4984 81.8265C85.5294 81.8431 85.5559 81.8667 85.576 81.8955L87.307 84.7C87.384 84.836 87.281 85 87.1185 85H81.546ZM83.833 80.5C83.833 80.7652 83.7277 81.0196 83.5401 81.2071C83.3526 81.3946 83.0982 81.5 82.833 81.5C82.5678 81.5 82.3134 81.3946 82.1259 81.2071C81.9384 81.0196 81.833 80.7652 81.833 80.5C81.833 80.2348 81.9384 79.9804 82.1259 79.7929C82.3134 79.6054 82.5678 79.5 82.833 79.5C83.0982 79.5 83.3526 79.6054 83.5401 79.7929C83.7277 79.9804 83.833 80.2348 83.833 80.5ZM78.333 80.25C78.333 80.0511 78.412 79.8603 78.5527 79.7197C78.6933 79.579 78.8841 79.5 79.083 79.5H79.333V87H86.833V87.25C86.833 87.4489 86.754 87.6397 86.6133 87.7803C86.4727 87.921 86.2819 88 86.083 88H79.083C78.8841 88 78.6933 87.921 78.5527 87.7803C78.412 87.6397 78.333 87.4489 78.333 87.25V80.25Z" fill="#5C5F62"/>
</g>
</g>
<defs>
<filter id="filter0_dd_44607_11868" x="-5" y="-5" width="116.667" height="116" filterUnits="userSpaceOnUse" color-interpolation-filters="sRGB">
<feFlood flood-opacity="0" result="BackgroundImageFix"/>
<feColorMatrix in="SourceAlpha" type="matrix" values="0 0 0 0 0 0 0 0 0 0 0 0 0 0 0 0 0 0 127 0" result="hardAlpha"/>
<feOffset/>
<feGaussianBlur stdDeviation="2.5"/>
<feColorMatrix type="matrix" values="0 0 0 0 0 0 0 0 0 0 0 0 0 0 0 0 0 0 0.05 0"/>
<feBlend mode="normal" in2="BackgroundImageFix" result="effect1_dropShadow_44607_11868"/>
<feColorMatrix in="SourceAlpha" type="matrix" values="0 0 0 0 0 0 0 0 0 0 0 0 0 0 0 0 0 0 127 0" result="hardAlpha"/>
<feOffset dy="1"/>
<feGaussianBlur stdDeviation="1"/>
<feColorMatrix type="matrix" values="0 0 0 0 0 0 0 0 0 0 0 0 0 0 0 0 0 0 0.15 0"/>
<feBlend mode="normal" in2="effect1_dropShadow_44607_11868" result="effect2_dropShadow_44607_11868"/>
<feBlend mode="normal" in="SourceGraphic" in2="effect2_dropShadow_44607_11868" result="shape"/>
</filter>
<clipPath id="clip0_44607_11868">
<rect width="10" height="10" fill="white" transform="translate(18.333 18)"/>
</clipPath>
<clipPath id="clip1_44607_11868">
<rect width="10" height="10" fill="white" transform="translate(48.333 18)"/>
</clipPath>
<clipPath id="clip2_44607_11868">
<rect width="10" height="10" fill="white" transform="translate(78.333 18)"/>
</clipPath>
<clipPath id="clip3_44607_11868">
<rect width="10" height="10" fill="white" transform="translate(18.333 48)"/>
</clipPath>
<clipPath id="clip4_44607_11868">
<rect width="10" height="10" fill="white" transform="translate(48.333 48)"/>
</clipPath>
<clipPath id="clip5_44607_11868">
<rect width="10" height="10" fill="white" transform="translate(78.333 48)"/>
</clipPath>
<clipPath id="clip6_44607_11868">
<rect width="10" height="10" fill="white" transform="translate(18.333 78)"/>
</clipPath>
<clipPath id="clip7_44607_11868">
<rect width="10" height="10" fill="white" transform="translate(48.333 78)"/>
</clipPath>
<clipPath id="clip8_44607_11868">
<rect width="10" height="10" fill="white" transform="translate(78.333 78)"/>
</clipPath>
</defs>
</svg>
