<svg width="118" height="116" viewBox="0 0 118 116" fill="none" xmlns="http://www.w3.org/2000/svg">
<g filter="url(#filter0_dd_44334_13602)">
<rect width="106.667" height="106" transform="translate(5.66699 5)" fill="white"/>
<rect width="90.6667" height="43" transform="translate(13.667 13)" fill="#F6F6F7"/>
<g clip-path="url(#clip0_44334_13602)">
<path d="M63.5 37.5C63.6326 37.5 63.7598 37.4473 63.8536 37.3536C63.9473 37.2598 64 37.1326 64 37V30C64 29.8674 63.9473 29.7402 63.8536 29.6464C63.7598 29.5527 63.6326 29.5 63.5 29.5H56.5C56.3674 29.5 56.2402 29.5527 56.1464 29.6464C56.0527 29.7402 56 29.8674 56 30V37C56 37.1326 56.0527 37.2598 56.1464 37.3536C56.2402 37.4473 56.3674 37.5 56.5 37.5H63.5ZM57.213 36.5C57.0865 36.5 57 36.4045 57 36.302C57 36.262 57.013 36.221 57.0415 36.184L58.5645 34.564C58.6055 34.5239 58.6604 34.501 58.7179 34.5002C58.7753 34.4993 58.8308 34.5206 58.873 34.5595L59.5715 35.3L60.883 33.3875C60.9043 33.3596 60.9319 33.3372 60.9636 33.322C60.9952 33.3068 61.03 33.2993 61.065 33.3001C61.1001 33.3009 61.1345 33.3099 61.1654 33.3265C61.1964 33.3431 61.2229 33.3667 61.243 33.3955L62.974 36.2C63.051 36.336 62.948 36.5 62.7855 36.5H57.213ZM59.5 32C59.5 32.2652 59.3946 32.5196 59.2071 32.7071C59.0196 32.8946 58.7652 33 58.5 33C58.2348 33 57.9804 32.8946 57.7929 32.7071C57.6054 32.5196 57.5 32.2652 57.5 32C57.5 31.7348 57.6054 31.4804 57.7929 31.2929C57.9804 31.1054 58.2348 31 58.5 31C58.7652 31 59.0196 31.1054 59.2071 31.2929C59.3946 31.4804 59.5 31.7348 59.5 32ZM54 31.75C54 31.5511 54.079 31.3603 54.2197 31.2197C54.3603 31.079 54.5511 31 54.75 31H55V38.5H62.5V38.75C62.5 38.9489 62.421 39.1397 62.2803 39.2803C62.1397 39.421 61.9489 39.5 61.75 39.5H54.75C54.5511 39.5 54.3603 39.421 54.2197 39.2803C54.079 39.1397 54 38.9489 54 38.75V31.75Z" fill="#5C5F62"/>
</g>
<g clip-path="url(#clip1_44334_13602)">
<path d="M63.5 84.5C63.6326 84.5 63.7598 84.4473 63.8536 84.3536C63.9473 84.2598 64 84.1326 64 84V77C64 76.8674 63.9473 76.7402 63.8536 76.6464C63.7598 76.5527 63.6326 76.5 63.5 76.5H56.5C56.3674 76.5 56.2402 76.5527 56.1464 76.6464C56.0527 76.7402 56 76.8674 56 77V84C56 84.1326 56.0527 84.2598 56.1464 84.3536C56.2402 84.4473 56.3674 84.5 56.5 84.5H63.5ZM57.213 83.5C57.0865 83.5 57 83.4045 57 83.302C57 83.262 57.013 83.221 57.0415 83.184L58.5645 81.564C58.6055 81.5239 58.6604 81.501 58.7179 81.5002C58.7753 81.4993 58.8308 81.5206 58.873 81.5595L59.5715 82.3L60.883 80.3875C60.9043 80.3596 60.9319 80.3372 60.9636 80.322C60.9952 80.3068 61.03 80.2993 61.065 80.3001C61.1001 80.3009 61.1345 80.3099 61.1654 80.3265C61.1964 80.3431 61.2229 80.3667 61.243 80.3955L62.974 83.2C63.051 83.336 62.948 83.5 62.7855 83.5H57.213ZM59.5 79C59.5 79.2652 59.3946 79.5196 59.2071 79.7071C59.0196 79.8946 58.7652 80 58.5 80C58.2348 80 57.9804 79.8946 57.7929 79.7071C57.6054 79.5196 57.5 79.2652 57.5 79C57.5 78.7348 57.6054 78.4804 57.7929 78.2929C57.9804 78.1054 58.2348 78 58.5 78C58.7652 78 59.0196 78.1054 59.2071 78.2929C59.3946 78.4804 59.5 78.7348 59.5 79ZM54 78.75C54 78.5511 54.079 78.3603 54.2197 78.2197C54.3603 78.079 54.5511 78 54.75 78H55V85.5H62.5V85.75C62.5 85.9489 62.421 86.1397 62.2803 86.2803C62.1397 86.421 61.9489 86.5 61.75 86.5H54.75C54.5511 86.5 54.3603 86.421 54.2197 86.2803C54.079 86.1397 54 85.9489 54 85.75V78.75Z" fill="#008060"/>
</g>
<rect x="14.167" y="60.5" width="89.6667" height="42" stroke="#C9CCCF"/>
</g>
<defs>
<filter id="filter0_dd_44334_13602" x="0.666992" y="0" width="116.667" height="116" filterUnits="userSpaceOnUse" color-interpolation-filters="sRGB">
<feFlood flood-opacity="0" result="BackgroundImageFix"/>
<feColorMatrix in="SourceAlpha" type="matrix" values="0 0 0 0 0 0 0 0 0 0 0 0 0 0 0 0 0 0 127 0" result="hardAlpha"/>
<feOffset/>
<feGaussianBlur stdDeviation="2.5"/>
<feColorMatrix type="matrix" values="0 0 0 0 0 0 0 0 0 0 0 0 0 0 0 0 0 0 0.05 0"/>
<feBlend mode="normal" in2="BackgroundImageFix" result="effect1_dropShadow_44334_13602"/>
<feColorMatrix in="SourceAlpha" type="matrix" values="0 0 0 0 0 0 0 0 0 0 0 0 0 0 0 0 0 0 127 0" result="hardAlpha"/>
<feOffset dy="1"/>
<feGaussianBlur stdDeviation="1"/>
<feColorMatrix type="matrix" values="0 0 0 0 0 0 0 0 0 0 0 0 0 0 0 0 0 0 0.15 0"/>
<feBlend mode="normal" in2="effect1_dropShadow_44334_13602" result="effect2_dropShadow_44334_13602"/>
<feBlend mode="normal" in="SourceGraphic" in2="effect2_dropShadow_44334_13602" result="shape"/>
</filter>
<clipPath id="clip0_44334_13602">
<rect width="10" height="10" fill="white" transform="translate(54 29.5)"/>
</clipPath>
<clipPath id="clip1_44334_13602">
<rect width="10" height="10" fill="white" transform="translate(54 76.5)"/>
</clipPath>
</defs>
</svg>
