<svg width="17" height="16" viewBox="0 0 17 16" fill="none" xmlns="http://www.w3.org/2000/svg">
<path d="M8.33335 9.99985C8.86378 9.99985 9.37249 9.78913 9.74756 9.41406C10.1226 9.03899 10.3333 8.53028 10.3333 7.99985C10.3333 7.82185 10.3033 7.65185 10.2593 7.48785L16.0403 1.70685C16.2279 1.51934 16.3332 1.26503 16.3332 0.999849C16.3332 0.734673 16.2279 0.480357 16.0403 0.292849C15.8528 0.105341 15.5985 0 15.3333 0C15.0682 0 14.8139 0.105341 14.6263 0.292849L12.0163 2.90285C10.8823 2.30178 9.61681 1.99151 8.33335 1.99985C2.72135 1.99985 0.496345 7.39885 0.404345 7.62785C0.310375 7.86695 0.310375 8.13275 0.404345 8.37185C0.458345 8.50485 1.23935 10.3828 2.98635 11.9328L0.626345 14.2928C0.533501 14.3857 0.459852 14.4959 0.409605 14.6172C0.359358 14.7385 0.333496 14.8685 0.333496 14.9998C0.333496 15.1312 0.359358 15.2612 0.409605 15.3825C0.459852 15.5038 0.533501 15.614 0.626345 15.7069C0.71919 15.7997 0.829412 15.8733 0.95072 15.9236C1.07203 15.9738 1.20204 15.9997 1.33335 15.9997C1.46465 15.9997 1.59466 15.9738 1.71597 15.9236C1.83728 15.8733 1.9475 15.7997 2.04035 15.7069L7.82135 9.92585C7.98535 9.96885 8.15535 9.99985 8.33335 9.99985ZM4.33335 7.99985C4.33335 6.93898 4.75477 5.92157 5.50492 5.17142C6.25506 4.42128 7.27248 3.99985 8.33335 3.99985C9.07535 3.99985 9.76534 4.20785 10.3583 4.56085L8.84535 6.07385C8.67859 6.02717 8.50649 6.00229 8.33335 5.99985C7.80291 5.99985 7.29421 6.21056 6.91913 6.58564C6.54406 6.96071 6.33335 7.46942 6.33335 7.99985C6.33335 8.17785 6.36435 8.34685 6.40735 8.51085L4.89435 10.0248C4.52836 9.4127 4.33453 8.71306 4.33335 7.99985ZM14.4783 4.85585L12.2263 7.10785C12.2903 7.39585 12.3323 7.69285 12.3323 8.00085C12.3323 9.06172 11.9109 10.0791 11.1608 10.8293C10.4106 11.5794 9.39321 12.0008 8.33235 12.0008C8.02635 12.0008 7.73035 11.9588 7.44235 11.8928L5.76035 13.5728C6.58844 13.8567 7.45795 14.001 8.33335 13.9998C13.9463 13.9998 16.1703 8.60085 16.2613 8.37085C16.3561 8.13259 16.3561 7.86711 16.2613 7.62885C16.2173 7.51785 15.6653 6.19185 14.4773 4.85585H14.4783Z" fill="#5C5F62"/>
</svg>
