<svg width="118" height="116" viewBox="0 0 118 116" fill="none" xmlns="http://www.w3.org/2000/svg">
<g filter="url(#filter0_dd_44623_12156)">
<rect x="5.66699" y="5" width="106.667" height="106" rx="4" fill="white"/>
<rect width="26" height="56" transform="translate(13.667 30)" fill="#F6F6F7"/>
<g clip-path="url(#clip0_44623_12156)">
<path d="M31.167 61C31.2996 61 31.4268 60.9473 31.5205 60.8536C31.6143 60.7598 31.667 60.6326 31.667 60.5V53.5C31.667 53.3674 31.6143 53.2402 31.5205 53.1464C31.4268 53.0527 31.2996 53 31.167 53H24.167C24.0344 53 23.9072 53.0527 23.8134 53.1464C23.7197 53.2402 23.667 53.3674 23.667 53.5V60.5C23.667 60.6326 23.7197 60.7598 23.8134 60.8536C23.9072 60.9473 24.0344 61 24.167 61H31.167ZM24.88 60C24.7535 60 24.667 59.9045 24.667 59.802C24.667 59.762 24.68 59.721 24.7085 59.684L26.2315 58.064C26.2725 58.0239 26.3274 58.001 26.3848 58.0002C26.4423 57.9993 26.4978 58.0206 26.54 58.0595L27.2385 58.8L28.55 56.8875C28.5713 56.8596 28.5989 56.8372 28.6305 56.822C28.6622 56.8068 28.6969 56.7993 28.732 56.8001C28.7671 56.8009 28.8015 56.8099 28.8324 56.8265C28.8633 56.8431 28.8899 56.8667 28.91 56.8955L30.641 59.7C30.718 59.836 30.615 60 30.4525 60H24.88ZM27.167 55.5C27.167 55.7652 27.0616 56.0196 26.8741 56.2071C26.6866 56.3946 26.4322 56.5 26.167 56.5C25.9018 56.5 25.6474 56.3946 25.4599 56.2071C25.2723 56.0196 25.167 55.7652 25.167 55.5C25.167 55.2348 25.2723 54.9804 25.4599 54.7929C25.6474 54.6054 25.9018 54.5 26.167 54.5C26.4322 54.5 26.6866 54.6054 26.8741 54.7929C27.0616 54.9804 27.167 55.2348 27.167 55.5ZM21.667 55.25C21.667 55.0511 21.746 54.8603 21.8867 54.7197C22.0273 54.579 22.2181 54.5 22.417 54.5H22.667V62H30.167V62.25C30.167 62.4489 30.088 62.6397 29.9473 62.7803C29.8067 62.921 29.6159 63 29.417 63H22.417C22.2181 63 22.0273 62.921 21.8867 62.7803C21.746 62.6397 21.667 62.4489 21.667 62.25V55.25Z" fill="#5C5F62"/>
</g>
<rect width="26" height="26" transform="translate(43.667 30)" fill="#F6F6F7"/>
<g clip-path="url(#clip1_44623_12156)">
<path d="M61.167 46C61.2996 46 61.4268 45.9473 61.5205 45.8536C61.6143 45.7598 61.667 45.6326 61.667 45.5V38.5C61.667 38.3674 61.6143 38.2402 61.5205 38.1464C61.4268 38.0527 61.2996 38 61.167 38H54.167C54.0344 38 53.9072 38.0527 53.8134 38.1464C53.7197 38.2402 53.667 38.3674 53.667 38.5V45.5C53.667 45.6326 53.7197 45.7598 53.8134 45.8536C53.9072 45.9473 54.0344 46 54.167 46H61.167ZM54.88 45C54.7535 45 54.667 44.9045 54.667 44.802C54.667 44.762 54.68 44.721 54.7085 44.684L56.2315 43.064C56.2725 43.0239 56.3274 43.001 56.3848 43.0002C56.4423 42.9993 56.4978 43.0206 56.54 43.0595L57.2385 43.8L58.55 41.8875C58.5713 41.8596 58.5989 41.8372 58.6305 41.822C58.6622 41.8068 58.6969 41.7993 58.732 41.8001C58.7671 41.8009 58.8015 41.8099 58.8324 41.8265C58.8633 41.8431 58.8899 41.8667 58.91 41.8955L60.641 44.7C60.718 44.836 60.615 45 60.4525 45H54.88ZM57.167 40.5C57.167 40.7652 57.0616 41.0196 56.8741 41.2071C56.6866 41.3946 56.4322 41.5 56.167 41.5C55.9018 41.5 55.6474 41.3946 55.4599 41.2071C55.2723 41.0196 55.167 40.7652 55.167 40.5C55.167 40.2348 55.2723 39.9804 55.4599 39.7929C55.6474 39.6054 55.9018 39.5 56.167 39.5C56.4322 39.5 56.6866 39.6054 56.8741 39.7929C57.0616 39.9804 57.167 40.2348 57.167 40.5ZM51.667 40.25C51.667 40.0511 51.746 39.8603 51.8867 39.7197C52.0273 39.579 52.2181 39.5 52.417 39.5H52.667V47H60.167V47.25C60.167 47.4489 60.088 47.6397 59.9473 47.7803C59.8067 47.921 59.6159 48 59.417 48H52.417C52.2181 48 52.0273 47.921 51.8867 47.7803C51.746 47.6397 51.667 47.4489 51.667 47.25V40.25Z" fill="#5C5F62"/>
</g>
<rect width="26" height="26" transform="translate(43.667 60)" fill="#F6F6F7"/>
<g clip-path="url(#clip2_44623_12156)">
<path d="M61.167 76C61.2996 76 61.4268 75.9473 61.5205 75.8536C61.6143 75.7598 61.667 75.6326 61.667 75.5V68.5C61.667 68.3674 61.6143 68.2402 61.5205 68.1464C61.4268 68.0527 61.2996 68 61.167 68H54.167C54.0344 68 53.9072 68.0527 53.8134 68.1464C53.7197 68.2402 53.667 68.3674 53.667 68.5V75.5C53.667 75.6326 53.7197 75.7598 53.8134 75.8536C53.9072 75.9473 54.0344 76 54.167 76H61.167ZM54.88 75C54.7535 75 54.667 74.9045 54.667 74.802C54.667 74.762 54.68 74.721 54.7085 74.684L56.2315 73.064C56.2725 73.0239 56.3274 73.001 56.3848 73.0002C56.4423 72.9993 56.4978 73.0206 56.54 73.0595L57.2385 73.8L58.55 71.8875C58.5713 71.8596 58.5989 71.8372 58.6305 71.822C58.6622 71.8068 58.6969 71.7993 58.732 71.8001C58.7671 71.8009 58.8015 71.8099 58.8324 71.8265C58.8633 71.8431 58.8899 71.8667 58.91 71.8955L60.641 74.7C60.718 74.836 60.615 75 60.4525 75H54.88ZM57.167 70.5C57.167 70.7652 57.0616 71.0196 56.8741 71.2071C56.6866 71.3946 56.4322 71.5 56.167 71.5C55.9018 71.5 55.6474 71.3946 55.4599 71.2071C55.2723 71.0196 55.167 70.7652 55.167 70.5C55.167 70.2348 55.2723 69.9804 55.4599 69.7929C55.6474 69.6054 55.9018 69.5 56.167 69.5C56.4322 69.5 56.6866 69.6054 56.8741 69.7929C57.0616 69.9804 57.167 70.2348 57.167 70.5ZM51.667 70.25C51.667 70.0511 51.746 69.8603 51.8867 69.7197C52.0273 69.579 52.2181 69.5 52.417 69.5H52.667V77H60.167V77.25C60.167 77.4489 60.088 77.6397 59.9473 77.7803C59.8067 77.921 59.6159 78 59.417 78H52.417C52.2181 78 52.0273 77.921 51.8867 77.7803C51.746 77.6397 51.667 77.4489 51.667 77.25V70.25Z" fill="#5C5F62"/>
</g>
<rect width="26" height="56" transform="translate(73.667 30)" fill="#F6F6F7"/>
<g clip-path="url(#clip3_44623_12156)">
<path d="M91.167 61C91.2996 61 91.4268 60.9473 91.5205 60.8536C91.6143 60.7598 91.667 60.6326 91.667 60.5V53.5C91.667 53.3674 91.6143 53.2402 91.5205 53.1464C91.4268 53.0527 91.2996 53 91.167 53H84.167C84.0344 53 83.9072 53.0527 83.8134 53.1464C83.7197 53.2402 83.667 53.3674 83.667 53.5V60.5C83.667 60.6326 83.7197 60.7598 83.8134 60.8536C83.9072 60.9473 84.0344 61 84.167 61H91.167ZM84.88 60C84.7535 60 84.667 59.9045 84.667 59.802C84.667 59.762 84.68 59.721 84.7085 59.684L86.2315 58.064C86.2725 58.0239 86.3274 58.001 86.3848 58.0002C86.4423 57.9993 86.4978 58.0206 86.54 58.0595L87.2385 58.8L88.55 56.8875C88.5713 56.8596 88.5989 56.8372 88.6305 56.822C88.6622 56.8068 88.6969 56.7993 88.732 56.8001C88.7671 56.8009 88.8015 56.8099 88.8324 56.8265C88.8633 56.8431 88.8899 56.8667 88.91 56.8955L90.641 59.7C90.718 59.836 90.615 60 90.4525 60H84.88ZM87.167 55.5C87.167 55.7652 87.0616 56.0196 86.8741 56.2071C86.6866 56.3946 86.4322 56.5 86.167 56.5C85.9018 56.5 85.6474 56.3946 85.4599 56.2071C85.2723 56.0196 85.167 55.7652 85.167 55.5C85.167 55.2348 85.2723 54.9804 85.4599 54.7929C85.6474 54.6054 85.9018 54.5 86.167 54.5C86.4322 54.5 86.6866 54.6054 86.8741 54.7929C87.0616 54.9804 87.167 55.2348 87.167 55.5ZM81.667 55.25C81.667 55.0511 81.746 54.8603 81.8867 54.7197C82.0273 54.579 82.2181 54.5 82.417 54.5H82.667V62H90.167V62.25C90.167 62.4489 90.088 62.6397 89.9473 62.7803C89.8067 62.921 89.6159 63 89.417 63H82.417C82.2181 63 82.0273 62.921 81.8867 62.7803C81.746 62.6397 81.667 62.4489 81.667 62.25V55.25Z" fill="#5C5F62"/>
</g>
<rect x="5.66699" y="5" width="107" height="106" rx="4" fill="white" fill-opacity="0.8"/>
<rect x="18.667" y="49" width="80" height="18" rx="9" fill="#FFD79D"/>
<path d="M30.4541 62.166C32.2021 62.166 33.2471 61.1113 33.2471 59.5781V54.9541H32.3682V59.5195C32.3682 60.6035 31.6748 61.3555 30.4541 61.3555C29.2334 61.3555 28.5303 60.6035 28.5303 59.5195V54.9541H27.6514V59.5781C27.6514 61.1113 28.7061 62.166 30.4541 62.166ZM34.9268 63.7578H35.7764V61.1699H35.8545C36.1426 61.7314 36.7725 62.0928 37.4951 62.0928C38.833 62.0928 39.7021 61.0234 39.7021 59.373V59.3633C39.7021 57.7227 38.8281 56.6436 37.4951 56.6436C36.7627 56.6436 36.1768 56.9902 35.8545 57.5762H35.7764V56.7363H34.9268V63.7578ZM37.2998 61.3408C36.3428 61.3408 35.7568 60.5889 35.7568 59.373V59.3633C35.7568 58.1475 36.3428 57.3955 37.2998 57.3955C38.2617 57.3955 38.833 58.1377 38.833 59.3633V59.373C38.833 60.5986 38.2617 61.3408 37.2998 61.3408ZM43.1982 63.8555C44.6338 63.8555 45.542 63.1035 45.542 61.9268V56.7363H44.6924V57.6055H44.6338C44.3115 57.0098 43.7354 56.6436 42.9932 56.6436C41.6162 56.6436 40.7666 57.7129 40.7666 59.1875V59.1973C40.7666 60.6719 41.6113 61.7266 42.9736 61.7266C43.6963 61.7266 44.292 61.3994 44.624 60.8184H44.7021V61.8828C44.7021 62.6592 44.1406 63.1035 43.1982 63.1035C42.4414 63.1035 41.9727 62.8203 41.8799 62.4199L41.875 62.415H40.9961L40.9863 62.4199C41.1182 63.2842 41.9287 63.8555 43.1982 63.8555ZM43.1592 60.9746C42.1826 60.9746 41.6357 60.2422 41.6357 59.1973V59.1875C41.6357 58.1426 42.1826 57.3955 43.1592 57.3955C44.1309 57.3955 44.7217 58.1426 44.7217 59.1875V59.1973C44.7217 60.2422 44.1357 60.9746 43.1592 60.9746ZM47.124 62H47.9736V58.7383C47.9736 57.9668 48.5498 57.4541 49.3604 57.4541C49.5459 57.4541 49.707 57.4736 49.8828 57.5029V56.6777C49.7998 56.6631 49.6191 56.6436 49.458 56.6436C48.7451 56.6436 48.252 56.9658 48.0518 57.5176H47.9736V56.7363H47.124V62ZM52.3779 62.0928C53.0859 62.0928 53.6377 61.7852 53.9697 61.2236H54.0479V62H54.8975V58.3965C54.8975 57.3027 54.1797 56.6436 52.8955 56.6436C51.7725 56.6436 50.9717 57.2002 50.835 58.0254L50.8301 58.0547H51.6797L51.6846 58.04C51.8213 57.6299 52.2363 57.3955 52.8662 57.3955C53.6523 57.3955 54.0479 57.7471 54.0479 58.3965V58.875L52.5391 58.9678C51.3135 59.041 50.6201 59.583 50.6201 60.5205V60.5303C50.6201 61.4873 51.377 62.0928 52.3779 62.0928ZM51.4893 60.5107V60.501C51.4893 59.9785 51.8408 59.6953 52.6416 59.6465L54.0479 59.5586V60.0371C54.0479 60.7891 53.418 61.3555 52.5537 61.3555C51.9434 61.3555 51.4893 61.043 51.4893 60.5107ZM58.3936 62.0928C59.126 62.0928 59.7119 61.7461 60.0342 61.1602H60.1123V62H60.9619V54.6465H60.1123V57.5664H60.0342C59.7461 57.0049 59.1162 56.6436 58.3936 56.6436C57.0557 56.6436 56.1865 57.7129 56.1865 59.3633V59.373C56.1865 61.0137 57.0605 62.0928 58.3936 62.0928ZM58.5889 61.3408C57.627 61.3408 57.0557 60.5986 57.0557 59.373V59.3633C57.0557 58.1377 57.627 57.3955 58.5889 57.3955C59.5459 57.3955 60.1318 58.1475 60.1318 59.3633V59.373C60.1318 60.5889 59.5459 61.3408 58.5889 61.3408ZM64.7412 62.0928C65.9814 62.0928 66.7334 61.3896 66.9141 60.6768L66.9238 60.6377H66.0742L66.0547 60.6816C65.9131 60.999 65.4736 61.3359 64.7607 61.3359C63.8232 61.3359 63.2227 60.7012 63.1982 59.6123H66.9873V59.2803C66.9873 57.708 66.1182 56.6436 64.6875 56.6436C63.2568 56.6436 62.3291 57.7568 62.3291 59.3828V59.3877C62.3291 61.0381 63.2373 62.0928 64.7412 62.0928ZM64.6826 57.4004C65.459 57.4004 66.0352 57.8936 66.123 58.9336H63.2129C63.3057 57.9326 63.9014 57.4004 64.6826 57.4004ZM71.2256 62H72.1045V59.4854H73.8818C75.2051 59.4854 76.1426 58.5527 76.1426 57.2148V57.2051C76.1426 55.8672 75.2051 54.9541 73.8818 54.9541H71.2256V62ZM73.6572 55.7354C74.6631 55.7354 75.2441 56.2871 75.2441 57.2148V57.2246C75.2441 58.1523 74.6631 58.7041 73.6572 58.7041H72.1045V55.7354H73.6572ZM77.5244 62H78.374V54.6465H77.5244V62ZM81.4502 62.0928C82.1582 62.0928 82.71 61.7852 83.042 61.2236H83.1201V62H83.9697V58.3965C83.9697 57.3027 83.252 56.6436 81.9678 56.6436C80.8447 56.6436 80.0439 57.2002 79.9072 58.0254L79.9023 58.0547H80.752L80.7568 58.04C80.8936 57.6299 81.3086 57.3955 81.9385 57.3955C82.7246 57.3955 83.1201 57.7471 83.1201 58.3965V58.875L81.6113 58.9678C80.3857 59.041 79.6924 59.583 79.6924 60.5205V60.5303C79.6924 61.4873 80.4492 62.0928 81.4502 62.0928ZM80.5615 60.5107V60.501C80.5615 59.9785 80.9131 59.6953 81.7139 59.6465L83.1201 59.5586V60.0371C83.1201 60.7891 82.4902 61.3555 81.626 61.3555C81.0156 61.3555 80.5615 61.043 80.5615 60.5107ZM85.5225 62H86.3721V58.8848C86.3721 57.9619 86.9043 57.3955 87.7441 57.3955C88.584 57.3955 88.9746 57.8496 88.9746 58.7969V62H89.8242V58.5918C89.8242 57.3418 89.165 56.6436 87.9834 56.6436C87.207 56.6436 86.7139 56.9707 86.4502 57.5273H86.3721V56.7363H85.5225V62Z" fill="#202223"/>
</g>
<defs>
<filter id="filter0_dd_44623_12156" x="0.666992" y="0" width="117" height="116" filterUnits="userSpaceOnUse" color-interpolation-filters="sRGB">
<feFlood flood-opacity="0" result="BackgroundImageFix"/>
<feColorMatrix in="SourceAlpha" type="matrix" values="0 0 0 0 0 0 0 0 0 0 0 0 0 0 0 0 0 0 127 0" result="hardAlpha"/>
<feOffset/>
<feGaussianBlur stdDeviation="2.5"/>
<feColorMatrix type="matrix" values="0 0 0 0 0 0 0 0 0 0 0 0 0 0 0 0 0 0 0.05 0"/>
<feBlend mode="normal" in2="BackgroundImageFix" result="effect1_dropShadow_44623_12156"/>
<feColorMatrix in="SourceAlpha" type="matrix" values="0 0 0 0 0 0 0 0 0 0 0 0 0 0 0 0 0 0 127 0" result="hardAlpha"/>
<feOffset dy="1"/>
<feGaussianBlur stdDeviation="1"/>
<feColorMatrix type="matrix" values="0 0 0 0 0 0 0 0 0 0 0 0 0 0 0 0 0 0 0.15 0"/>
<feBlend mode="normal" in2="effect1_dropShadow_44623_12156" result="effect2_dropShadow_44623_12156"/>
<feBlend mode="normal" in="SourceGraphic" in2="effect2_dropShadow_44623_12156" result="shape"/>
</filter>
<clipPath id="clip0_44623_12156">
<rect width="10" height="10" fill="white" transform="translate(21.667 53)"/>
</clipPath>
<clipPath id="clip1_44623_12156">
<rect width="10" height="10" fill="white" transform="translate(51.667 38)"/>
</clipPath>
<clipPath id="clip2_44623_12156">
<rect width="10" height="10" fill="white" transform="translate(51.667 68)"/>
</clipPath>
<clipPath id="clip3_44623_12156">
<rect width="10" height="10" fill="white" transform="translate(81.667 53)"/>
</clipPath>
</defs>
</svg>
