<svg width="112" height="111" viewBox="0 0 112 111" fill="none" xmlns="http://www.w3.org/2000/svg">
<g filter="url(#filter0_dd_44623_11937)">
<rect x="5.33301" width="106.667" height="106" rx="4" fill="white"/>
<rect width="56" height="56" transform="translate(13.333 25)" fill="#F6F6F7"/>
<g clip-path="url(#clip0_44623_11937)">
<path d="M45.833 56C45.9656 56 46.0928 55.9473 46.1866 55.8536C46.2803 55.7598 46.333 55.6326 46.333 55.5V48.5C46.333 48.3674 46.2803 48.2402 46.1866 48.1464C46.0928 48.0527 45.9656 48 45.833 48H38.833C38.7004 48 38.5732 48.0527 38.4795 48.1464C38.3857 48.2402 38.333 48.3674 38.333 48.5V55.5C38.333 55.6326 38.3857 55.7598 38.4795 55.8536C38.5732 55.9473 38.7004 56 38.833 56H45.833ZM39.546 55C39.4195 55 39.333 54.9045 39.333 54.802C39.333 54.762 39.346 54.721 39.3745 54.684L40.8975 53.064C40.9386 53.0239 40.9935 53.001 41.0509 53.0002C41.1083 52.9993 41.1638 53.0206 41.206 53.0595L41.9045 53.8L43.216 51.8875C43.2373 51.8596 43.2649 51.8372 43.2966 51.822C43.3282 51.8068 43.363 51.7993 43.398 51.8001C43.4331 51.8009 43.4675 51.8099 43.4984 51.8265C43.5294 51.8431 43.5559 51.8667 43.576 51.8955L45.307 54.7C45.384 54.836 45.281 55 45.1185 55H39.546ZM41.833 50.5C41.833 50.7652 41.7277 51.0196 41.5401 51.2071C41.3526 51.3946 41.0982 51.5 40.833 51.5C40.5678 51.5 40.3134 51.3946 40.1259 51.2071C39.9384 51.0196 39.833 50.7652 39.833 50.5C39.833 50.2348 39.9384 49.9804 40.1259 49.7929C40.3134 49.6054 40.5678 49.5 40.833 49.5C41.0982 49.5 41.3526 49.6054 41.5401 49.7929C41.7277 49.9804 41.833 50.2348 41.833 50.5ZM36.333 50.25C36.333 50.0511 36.412 49.8603 36.5527 49.7197C36.6933 49.579 36.8841 49.5 37.083 49.5H37.333V57H44.833V57.25C44.833 57.4489 44.754 57.6397 44.6133 57.7803C44.4727 57.921 44.2819 58 44.083 58H37.083C36.8841 58 36.6933 57.921 36.5527 57.7803C36.412 57.6397 36.333 57.4489 36.333 57.25V50.25Z" fill="#5C5F62"/>
</g>
<rect width="26" height="26" transform="translate(73.333 25)" fill="#F6F6F7"/>
<g clip-path="url(#clip1_44623_11937)">
<path d="M90.833 41C90.9656 41 91.0928 40.9473 91.1866 40.8536C91.2803 40.7598 91.333 40.6326 91.333 40.5V33.5C91.333 33.3674 91.2803 33.2402 91.1866 33.1464C91.0928 33.0527 90.9656 33 90.833 33H83.833C83.7004 33 83.5732 33.0527 83.4795 33.1464C83.3857 33.2402 83.333 33.3674 83.333 33.5V40.5C83.333 40.6326 83.3857 40.7598 83.4795 40.8536C83.5732 40.9473 83.7004 41 83.833 41H90.833ZM84.546 40C84.4195 40 84.333 39.9045 84.333 39.802C84.333 39.762 84.346 39.721 84.3745 39.684L85.8975 38.064C85.9386 38.0239 85.9935 38.001 86.0509 38.0002C86.1083 37.9993 86.1638 38.0206 86.206 38.0595L86.9045 38.8L88.216 36.8875C88.2373 36.8596 88.2649 36.8372 88.2966 36.822C88.3282 36.8068 88.363 36.7993 88.398 36.8001C88.4331 36.8009 88.4675 36.8099 88.4984 36.8265C88.5294 36.8431 88.5559 36.8667 88.576 36.8955L90.307 39.7C90.384 39.836 90.281 40 90.1185 40H84.546ZM86.833 35.5C86.833 35.7652 86.7277 36.0196 86.5401 36.2071C86.3526 36.3946 86.0982 36.5 85.833 36.5C85.5678 36.5 85.3134 36.3946 85.1259 36.2071C84.9384 36.0196 84.833 35.7652 84.833 35.5C84.833 35.2348 84.9384 34.9804 85.1259 34.7929C85.3134 34.6054 85.5678 34.5 85.833 34.5C86.0982 34.5 86.3526 34.6054 86.5401 34.7929C86.7277 34.9804 86.833 35.2348 86.833 35.5ZM81.333 35.25C81.333 35.0511 81.412 34.8603 81.5527 34.7197C81.6933 34.579 81.8841 34.5 82.083 34.5H82.333V42H89.833V42.25C89.833 42.4489 89.754 42.6397 89.6133 42.7803C89.4727 42.921 89.2819 43 89.083 43H82.083C81.8841 43 81.6933 42.921 81.5527 42.7803C81.412 42.6397 81.333 42.4489 81.333 42.25V35.25Z" fill="#5C5F62"/>
</g>
<rect width="26" height="26" transform="translate(73.333 55)" fill="#F6F6F7"/>
<g clip-path="url(#clip2_44623_11937)">
<path d="M90.833 71C90.9656 71 91.0928 70.9473 91.1866 70.8536C91.2803 70.7598 91.333 70.6326 91.333 70.5V63.5C91.333 63.3674 91.2803 63.2402 91.1866 63.1464C91.0928 63.0527 90.9656 63 90.833 63H83.833C83.7004 63 83.5732 63.0527 83.4795 63.1464C83.3857 63.2402 83.333 63.3674 83.333 63.5V70.5C83.333 70.6326 83.3857 70.7598 83.4795 70.8536C83.5732 70.9473 83.7004 71 83.833 71H90.833ZM84.546 70C84.4195 70 84.333 69.9045 84.333 69.802C84.333 69.762 84.346 69.721 84.3745 69.684L85.8975 68.064C85.9386 68.0239 85.9935 68.001 86.0509 68.0002C86.1083 67.9993 86.1638 68.0206 86.206 68.0595L86.9045 68.8L88.216 66.8875C88.2373 66.8596 88.2649 66.8372 88.2966 66.822C88.3282 66.8068 88.363 66.7993 88.398 66.8001C88.4331 66.8009 88.4675 66.8099 88.4984 66.8265C88.5294 66.8431 88.5559 66.8667 88.576 66.8955L90.307 69.7C90.384 69.836 90.281 70 90.1185 70H84.546ZM86.833 65.5C86.833 65.7652 86.7277 66.0196 86.5401 66.2071C86.3526 66.3946 86.0982 66.5 85.833 66.5C85.5678 66.5 85.3134 66.3946 85.1259 66.2071C84.9384 66.0196 84.833 65.7652 84.833 65.5C84.833 65.2348 84.9384 64.9804 85.1259 64.7929C85.3134 64.6054 85.5678 64.5 85.833 64.5C86.0982 64.5 86.3526 64.6054 86.5401 64.7929C86.7277 64.9804 86.833 65.2348 86.833 65.5ZM81.333 65.25C81.333 65.0511 81.412 64.8603 81.5527 64.7197C81.6933 64.579 81.8841 64.5 82.083 64.5H82.333V72H89.833V72.25C89.833 72.4489 89.754 72.6397 89.6133 72.7803C89.4727 72.921 89.2819 73 89.083 73H82.083C81.8841 73 81.6933 72.921 81.5527 72.7803C81.412 72.6397 81.333 72.4489 81.333 72.25V65.25Z" fill="#5C5F62"/>
</g>
<rect x="5.33301" width="107" height="106" rx="4" fill="white" fill-opacity="0.8"/>
<rect x="18.333" y="44" width="80" height="18" rx="9" fill="#FFD79D"/>
<path d="M30.1201 57.166C31.8682 57.166 32.9131 56.1113 32.9131 54.5781V49.9541H32.0342V54.5195C32.0342 55.6035 31.3408 56.3555 30.1201 56.3555C28.8994 56.3555 28.1963 55.6035 28.1963 54.5195V49.9541H27.3174V54.5781C27.3174 56.1113 28.3721 57.166 30.1201 57.166ZM34.5928 58.7578H35.4424V56.1699H35.5205C35.8086 56.7314 36.4385 57.0928 37.1611 57.0928C38.499 57.0928 39.3682 56.0234 39.3682 54.373V54.3633C39.3682 52.7227 38.4941 51.6436 37.1611 51.6436C36.4287 51.6436 35.8428 51.9902 35.5205 52.5762H35.4424V51.7363H34.5928V58.7578ZM36.9658 56.3408C36.0088 56.3408 35.4229 55.5889 35.4229 54.373V54.3633C35.4229 53.1475 36.0088 52.3955 36.9658 52.3955C37.9277 52.3955 38.499 53.1377 38.499 54.3633V54.373C38.499 55.5986 37.9277 56.3408 36.9658 56.3408ZM42.8643 58.8555C44.2998 58.8555 45.208 58.1035 45.208 56.9268V51.7363H44.3584V52.6055H44.2998C43.9775 52.0098 43.4014 51.6436 42.6592 51.6436C41.2822 51.6436 40.4326 52.7129 40.4326 54.1875V54.1973C40.4326 55.6719 41.2773 56.7266 42.6396 56.7266C43.3623 56.7266 43.958 56.3994 44.29 55.8184H44.3682V56.8828C44.3682 57.6592 43.8066 58.1035 42.8643 58.1035C42.1074 58.1035 41.6387 57.8203 41.5459 57.4199L41.541 57.415H40.6621L40.6523 57.4199C40.7842 58.2842 41.5947 58.8555 42.8643 58.8555ZM42.8252 55.9746C41.8486 55.9746 41.3018 55.2422 41.3018 54.1973V54.1875C41.3018 53.1426 41.8486 52.3955 42.8252 52.3955C43.7969 52.3955 44.3877 53.1426 44.3877 54.1875V54.1973C44.3877 55.2422 43.8018 55.9746 42.8252 55.9746ZM46.79 57H47.6396V53.7383C47.6396 52.9668 48.2158 52.4541 49.0264 52.4541C49.2119 52.4541 49.373 52.4736 49.5488 52.5029V51.6777C49.4658 51.6631 49.2852 51.6436 49.124 51.6436C48.4111 51.6436 47.918 51.9658 47.7178 52.5176H47.6396V51.7363H46.79V57ZM52.0439 57.0928C52.752 57.0928 53.3037 56.7852 53.6357 56.2236H53.7139V57H54.5635V53.3965C54.5635 52.3027 53.8457 51.6436 52.5615 51.6436C51.4385 51.6436 50.6377 52.2002 50.501 53.0254L50.4961 53.0547H51.3457L51.3506 53.04C51.4873 52.6299 51.9023 52.3955 52.5322 52.3955C53.3184 52.3955 53.7139 52.7471 53.7139 53.3965V53.875L52.2051 53.9678C50.9795 54.041 50.2861 54.583 50.2861 55.5205V55.5303C50.2861 56.4873 51.043 57.0928 52.0439 57.0928ZM51.1553 55.5107V55.501C51.1553 54.9785 51.5068 54.6953 52.3076 54.6465L53.7139 54.5586V55.0371C53.7139 55.7891 53.084 56.3555 52.2197 56.3555C51.6094 56.3555 51.1553 56.043 51.1553 55.5107ZM58.0596 57.0928C58.792 57.0928 59.3779 56.7461 59.7002 56.1602H59.7783V57H60.6279V49.6465H59.7783V52.5664H59.7002C59.4121 52.0049 58.7822 51.6436 58.0596 51.6436C56.7217 51.6436 55.8525 52.7129 55.8525 54.3633V54.373C55.8525 56.0137 56.7266 57.0928 58.0596 57.0928ZM58.2549 56.3408C57.293 56.3408 56.7217 55.5986 56.7217 54.373V54.3633C56.7217 53.1377 57.293 52.3955 58.2549 52.3955C59.2119 52.3955 59.7979 53.1475 59.7979 54.3633V54.373C59.7979 55.5889 59.2119 56.3408 58.2549 56.3408ZM64.4072 57.0928C65.6475 57.0928 66.3994 56.3896 66.5801 55.6768L66.5898 55.6377H65.7402L65.7207 55.6816C65.5791 55.999 65.1396 56.3359 64.4268 56.3359C63.4893 56.3359 62.8887 55.7012 62.8643 54.6123H66.6533V54.2803C66.6533 52.708 65.7842 51.6436 64.3535 51.6436C62.9229 51.6436 61.9951 52.7568 61.9951 54.3828V54.3877C61.9951 56.0381 62.9033 57.0928 64.4072 57.0928ZM64.3486 52.4004C65.125 52.4004 65.7012 52.8936 65.7891 53.9336H62.8789C62.9717 52.9326 63.5674 52.4004 64.3486 52.4004ZM70.8916 57H71.7705V54.4854H73.5479C74.8711 54.4854 75.8086 53.5527 75.8086 52.2148V52.2051C75.8086 50.8672 74.8711 49.9541 73.5479 49.9541H70.8916V57ZM73.3232 50.7354C74.3291 50.7354 74.9102 51.2871 74.9102 52.2148V52.2246C74.9102 53.1523 74.3291 53.7041 73.3232 53.7041H71.7705V50.7354H73.3232ZM77.1904 57H78.04V49.6465H77.1904V57ZM81.1162 57.0928C81.8242 57.0928 82.376 56.7852 82.708 56.2236H82.7861V57H83.6357V53.3965C83.6357 52.3027 82.918 51.6436 81.6338 51.6436C80.5107 51.6436 79.71 52.2002 79.5732 53.0254L79.5684 53.0547H80.418L80.4229 53.04C80.5596 52.6299 80.9746 52.3955 81.6045 52.3955C82.3906 52.3955 82.7861 52.7471 82.7861 53.3965V53.875L81.2773 53.9678C80.0518 54.041 79.3584 54.583 79.3584 55.5205V55.5303C79.3584 56.4873 80.1152 57.0928 81.1162 57.0928ZM80.2275 55.5107V55.501C80.2275 54.9785 80.5791 54.6953 81.3799 54.6465L82.7861 54.5586V55.0371C82.7861 55.7891 82.1562 56.3555 81.292 56.3555C80.6816 56.3555 80.2275 56.043 80.2275 55.5107ZM85.1885 57H86.0381V53.8848C86.0381 52.9619 86.5703 52.3955 87.4102 52.3955C88.25 52.3955 88.6406 52.8496 88.6406 53.7969V57H89.4902V53.5918C89.4902 52.3418 88.8311 51.6436 87.6494 51.6436C86.873 51.6436 86.3799 51.9707 86.1162 52.5273H86.0381V51.7363H85.1885V57Z" fill="#202223"/>
</g>
<defs>
<filter id="filter0_dd_44623_11937" x="0.333008" y="-5" width="117" height="116" filterUnits="userSpaceOnUse" color-interpolation-filters="sRGB">
<feFlood flood-opacity="0" result="BackgroundImageFix"/>
<feColorMatrix in="SourceAlpha" type="matrix" values="0 0 0 0 0 0 0 0 0 0 0 0 0 0 0 0 0 0 127 0" result="hardAlpha"/>
<feOffset/>
<feGaussianBlur stdDeviation="2.5"/>
<feColorMatrix type="matrix" values="0 0 0 0 0 0 0 0 0 0 0 0 0 0 0 0 0 0 0.05 0"/>
<feBlend mode="normal" in2="BackgroundImageFix" result="effect1_dropShadow_44623_11937"/>
<feColorMatrix in="SourceAlpha" type="matrix" values="0 0 0 0 0 0 0 0 0 0 0 0 0 0 0 0 0 0 127 0" result="hardAlpha"/>
<feOffset dy="1"/>
<feGaussianBlur stdDeviation="1"/>
<feColorMatrix type="matrix" values="0 0 0 0 0 0 0 0 0 0 0 0 0 0 0 0 0 0 0.15 0"/>
<feBlend mode="normal" in2="effect1_dropShadow_44623_11937" result="effect2_dropShadow_44623_11937"/>
<feBlend mode="normal" in="SourceGraphic" in2="effect2_dropShadow_44623_11937" result="shape"/>
</filter>
<clipPath id="clip0_44623_11937">
<rect width="10" height="10" fill="white" transform="translate(36.333 48)"/>
</clipPath>
<clipPath id="clip1_44623_11937">
<rect width="10" height="10" fill="white" transform="translate(81.333 33)"/>
</clipPath>
<clipPath id="clip2_44623_11937">
<rect width="10" height="10" fill="white" transform="translate(81.333 63)"/>
</clipPath>
</defs>
</svg>
