<svg width="112" height="116" viewBox="0 0 112 116" fill="none" xmlns="http://www.w3.org/2000/svg">
<g filter="url(#filter0_dd_44623_12139)">
<rect y="5" width="106.667" height="106" rx="4" fill="white"/>
<rect width="26" height="26" transform="translate(8 30)" fill="#F6F6F7"/>
<g clip-path="url(#clip0_44623_12139)">
<path d="M25.5 46C25.6326 46 25.7598 45.9473 25.8536 45.8536C25.9473 45.7598 26 45.6326 26 45.5V38.5C26 38.3674 25.9473 38.2402 25.8536 38.1464C25.7598 38.0527 25.6326 38 25.5 38H18.5C18.3674 38 18.2402 38.0527 18.1464 38.1464C18.0527 38.2402 18 38.3674 18 38.5V45.5C18 45.6326 18.0527 45.7598 18.1464 45.8536C18.2402 45.9473 18.3674 46 18.5 46H25.5ZM19.213 45C19.0865 45 19 44.9045 19 44.802C19 44.762 19.013 44.721 19.0415 44.684L20.5645 43.064C20.6055 43.0239 20.6604 43.001 20.7179 43.0002C20.7753 42.9993 20.8308 43.0206 20.873 43.0595L21.5715 43.8L22.883 41.8875C22.9043 41.8596 22.9319 41.8372 22.9636 41.822C22.9952 41.8068 23.03 41.7993 23.065 41.8001C23.1001 41.8009 23.1345 41.8099 23.1654 41.8265C23.1964 41.8431 23.2229 41.8667 23.243 41.8955L24.974 44.7C25.051 44.836 24.948 45 24.7855 45H19.213ZM21.5 40.5C21.5 40.7652 21.3946 41.0196 21.2071 41.2071C21.0196 41.3946 20.7652 41.5 20.5 41.5C20.2348 41.5 19.9804 41.3946 19.7929 41.2071C19.6054 41.0196 19.5 40.7652 19.5 40.5C19.5 40.2348 19.6054 39.9804 19.7929 39.7929C19.9804 39.6054 20.2348 39.5 20.5 39.5C20.7652 39.5 21.0196 39.6054 21.2071 39.7929C21.3946 39.9804 21.5 40.2348 21.5 40.5ZM16 40.25C16 40.0511 16.079 39.8603 16.2197 39.7197C16.3603 39.579 16.5511 39.5 16.75 39.5H17V47H24.5V47.25C24.5 47.4489 24.421 47.6397 24.2803 47.7803C24.1397 47.921 23.9489 48 23.75 48H16.75C16.5511 48 16.3603 47.921 16.2197 47.7803C16.079 47.6397 16 47.4489 16 47.25V40.25Z" fill="#5C5F62"/>
</g>
<rect width="26" height="26" transform="translate(8 60)" fill="#F6F6F7"/>
<g clip-path="url(#clip1_44623_12139)">
<path d="M25.5 76C25.6326 76 25.7598 75.9473 25.8536 75.8536C25.9473 75.7598 26 75.6326 26 75.5V68.5C26 68.3674 25.9473 68.2402 25.8536 68.1464C25.7598 68.0527 25.6326 68 25.5 68H18.5C18.3674 68 18.2402 68.0527 18.1464 68.1464C18.0527 68.2402 18 68.3674 18 68.5V75.5C18 75.6326 18.0527 75.7598 18.1464 75.8536C18.2402 75.9473 18.3674 76 18.5 76H25.5ZM19.213 75C19.0865 75 19 74.9045 19 74.802C19 74.762 19.013 74.721 19.0415 74.684L20.5645 73.064C20.6055 73.0239 20.6604 73.001 20.7179 73.0002C20.7753 72.9993 20.8308 73.0206 20.873 73.0595L21.5715 73.8L22.883 71.8875C22.9043 71.8596 22.9319 71.8372 22.9636 71.822C22.9952 71.8068 23.03 71.7993 23.065 71.8001C23.1001 71.8009 23.1345 71.8099 23.1654 71.8265C23.1964 71.8431 23.2229 71.8667 23.243 71.8955L24.974 74.7C25.051 74.836 24.948 75 24.7855 75H19.213ZM21.5 70.5C21.5 70.7652 21.3946 71.0196 21.2071 71.2071C21.0196 71.3946 20.7652 71.5 20.5 71.5C20.2348 71.5 19.9804 71.3946 19.7929 71.2071C19.6054 71.0196 19.5 70.7652 19.5 70.5C19.5 70.2348 19.6054 69.9804 19.7929 69.7929C19.9804 69.6054 20.2348 69.5 20.5 69.5C20.7652 69.5 21.0196 69.6054 21.2071 69.7929C21.3946 69.9804 21.5 70.2348 21.5 70.5ZM16 70.25C16 70.0511 16.079 69.8603 16.2197 69.7197C16.3603 69.579 16.5511 69.5 16.75 69.5H17V77H24.5V77.25C24.5 77.4489 24.421 77.6397 24.2803 77.7803C24.1397 77.921 23.9489 78 23.75 78H16.75C16.5511 78 16.3603 77.921 16.2197 77.7803C16.079 77.6397 16 77.4489 16 77.25V70.25Z" fill="#5C5F62"/>
</g>
<rect width="56" height="56" transform="translate(38 30)" fill="#F6F6F7"/>
<g clip-path="url(#clip2_44623_12139)">
<path d="M70.5 61C70.6326 61 70.7598 60.9473 70.8536 60.8536C70.9473 60.7598 71 60.6326 71 60.5V53.5C71 53.3674 70.9473 53.2402 70.8536 53.1464C70.7598 53.0527 70.6326 53 70.5 53H63.5C63.3674 53 63.2402 53.0527 63.1464 53.1464C63.0527 53.2402 63 53.3674 63 53.5V60.5C63 60.6326 63.0527 60.7598 63.1464 60.8536C63.2402 60.9473 63.3674 61 63.5 61H70.5ZM64.213 60C64.0865 60 64 59.9045 64 59.802C64 59.762 64.013 59.721 64.0415 59.684L65.5645 58.064C65.6055 58.0239 65.6604 58.001 65.7179 58.0002C65.7753 57.9993 65.8308 58.0206 65.873 58.0595L66.5715 58.8L67.883 56.8875C67.9043 56.8596 67.9319 56.8372 67.9636 56.822C67.9952 56.8068 68.03 56.7993 68.065 56.8001C68.1001 56.8009 68.1345 56.8099 68.1654 56.8265C68.1964 56.8431 68.2229 56.8667 68.243 56.8955L69.974 59.7C70.051 59.836 69.948 60 69.7855 60H64.213ZM66.5 55.5C66.5 55.7652 66.3946 56.0196 66.2071 56.2071C66.0196 56.3946 65.7652 56.5 65.5 56.5C65.2348 56.5 64.9804 56.3946 64.7929 56.2071C64.6054 56.0196 64.5 55.7652 64.5 55.5C64.5 55.2348 64.6054 54.9804 64.7929 54.7929C64.9804 54.6054 65.2348 54.5 65.5 54.5C65.7652 54.5 66.0196 54.6054 66.2071 54.7929C66.3946 54.9804 66.5 55.2348 66.5 55.5ZM61 55.25C61 55.0511 61.079 54.8603 61.2197 54.7197C61.3603 54.579 61.5511 54.5 61.75 54.5H62V62H69.5V62.25C69.5 62.4489 69.421 62.6397 69.2803 62.7803C69.1397 62.921 68.9489 63 68.75 63H61.75C61.5511 63 61.3603 62.921 61.2197 62.7803C61.079 62.6397 61 62.4489 61 62.25V55.25Z" fill="#5C5F62"/>
</g>
<rect y="5" width="107" height="106" rx="4" fill="white" fill-opacity="0.8"/>
<rect x="13" y="49" width="80" height="18" rx="9" fill="#FFD79D"/>
<path d="M24.7871 62.166C26.5352 62.166 27.5801 61.1113 27.5801 59.5781V54.9541H26.7012V59.5195C26.7012 60.6035 26.0078 61.3555 24.7871 61.3555C23.5664 61.3555 22.8633 60.6035 22.8633 59.5195V54.9541H21.9844V59.5781C21.9844 61.1113 23.0391 62.166 24.7871 62.166ZM29.2598 63.7578H30.1094V61.1699H30.1875C30.4756 61.7314 31.1055 62.0928 31.8281 62.0928C33.166 62.0928 34.0352 61.0234 34.0352 59.373V59.3633C34.0352 57.7227 33.1611 56.6436 31.8281 56.6436C31.0957 56.6436 30.5098 56.9902 30.1875 57.5762H30.1094V56.7363H29.2598V63.7578ZM31.6328 61.3408C30.6758 61.3408 30.0898 60.5889 30.0898 59.373V59.3633C30.0898 58.1475 30.6758 57.3955 31.6328 57.3955C32.5947 57.3955 33.166 58.1377 33.166 59.3633V59.373C33.166 60.5986 32.5947 61.3408 31.6328 61.3408ZM37.5312 63.8555C38.9668 63.8555 39.875 63.1035 39.875 61.9268V56.7363H39.0254V57.6055H38.9668C38.6445 57.0098 38.0684 56.6436 37.3262 56.6436C35.9492 56.6436 35.0996 57.7129 35.0996 59.1875V59.1973C35.0996 60.6719 35.9443 61.7266 37.3066 61.7266C38.0293 61.7266 38.625 61.3994 38.957 60.8184H39.0352V61.8828C39.0352 62.6592 38.4736 63.1035 37.5312 63.1035C36.7744 63.1035 36.3057 62.8203 36.2129 62.4199L36.208 62.415H35.3291L35.3193 62.4199C35.4512 63.2842 36.2617 63.8555 37.5312 63.8555ZM37.4922 60.9746C36.5156 60.9746 35.9688 60.2422 35.9688 59.1973V59.1875C35.9688 58.1426 36.5156 57.3955 37.4922 57.3955C38.4639 57.3955 39.0547 58.1426 39.0547 59.1875V59.1973C39.0547 60.2422 38.4688 60.9746 37.4922 60.9746ZM41.457 62H42.3066V58.7383C42.3066 57.9668 42.8828 57.4541 43.6934 57.4541C43.8789 57.4541 44.04 57.4736 44.2158 57.5029V56.6777C44.1328 56.6631 43.9521 56.6436 43.791 56.6436C43.0781 56.6436 42.585 56.9658 42.3848 57.5176H42.3066V56.7363H41.457V62ZM46.7109 62.0928C47.4189 62.0928 47.9707 61.7852 48.3027 61.2236H48.3809V62H49.2305V58.3965C49.2305 57.3027 48.5127 56.6436 47.2285 56.6436C46.1055 56.6436 45.3047 57.2002 45.168 58.0254L45.1631 58.0547H46.0127L46.0176 58.04C46.1543 57.6299 46.5693 57.3955 47.1992 57.3955C47.9854 57.3955 48.3809 57.7471 48.3809 58.3965V58.875L46.8721 58.9678C45.6465 59.041 44.9531 59.583 44.9531 60.5205V60.5303C44.9531 61.4873 45.71 62.0928 46.7109 62.0928ZM45.8223 60.5107V60.501C45.8223 59.9785 46.1738 59.6953 46.9746 59.6465L48.3809 59.5586V60.0371C48.3809 60.7891 47.751 61.3555 46.8867 61.3555C46.2764 61.3555 45.8223 61.043 45.8223 60.5107ZM52.7266 62.0928C53.459 62.0928 54.0449 61.7461 54.3672 61.1602H54.4453V62H55.2949V54.6465H54.4453V57.5664H54.3672C54.0791 57.0049 53.4492 56.6436 52.7266 56.6436C51.3887 56.6436 50.5195 57.7129 50.5195 59.3633V59.373C50.5195 61.0137 51.3936 62.0928 52.7266 62.0928ZM52.9219 61.3408C51.96 61.3408 51.3887 60.5986 51.3887 59.373V59.3633C51.3887 58.1377 51.96 57.3955 52.9219 57.3955C53.8789 57.3955 54.4648 58.1475 54.4648 59.3633V59.373C54.4648 60.5889 53.8789 61.3408 52.9219 61.3408ZM59.0742 62.0928C60.3145 62.0928 61.0664 61.3896 61.2471 60.6768L61.2568 60.6377H60.4072L60.3877 60.6816C60.2461 60.999 59.8066 61.3359 59.0938 61.3359C58.1562 61.3359 57.5557 60.7012 57.5312 59.6123H61.3203V59.2803C61.3203 57.708 60.4512 56.6436 59.0205 56.6436C57.5898 56.6436 56.6621 57.7568 56.6621 59.3828V59.3877C56.6621 61.0381 57.5703 62.0928 59.0742 62.0928ZM59.0156 57.4004C59.792 57.4004 60.3682 57.8936 60.4561 58.9336H57.5459C57.6387 57.9326 58.2344 57.4004 59.0156 57.4004ZM65.5586 62H66.4375V59.4854H68.2148C69.5381 59.4854 70.4756 58.5527 70.4756 57.2148V57.2051C70.4756 55.8672 69.5381 54.9541 68.2148 54.9541H65.5586V62ZM67.9902 55.7354C68.9961 55.7354 69.5771 56.2871 69.5771 57.2148V57.2246C69.5771 58.1523 68.9961 58.7041 67.9902 58.7041H66.4375V55.7354H67.9902ZM71.8574 62H72.707V54.6465H71.8574V62ZM75.7832 62.0928C76.4912 62.0928 77.043 61.7852 77.375 61.2236H77.4531V62H78.3027V58.3965C78.3027 57.3027 77.585 56.6436 76.3008 56.6436C75.1777 56.6436 74.377 57.2002 74.2402 58.0254L74.2354 58.0547H75.085L75.0898 58.04C75.2266 57.6299 75.6416 57.3955 76.2715 57.3955C77.0576 57.3955 77.4531 57.7471 77.4531 58.3965V58.875L75.9443 58.9678C74.7188 59.041 74.0254 59.583 74.0254 60.5205V60.5303C74.0254 61.4873 74.7822 62.0928 75.7832 62.0928ZM74.8945 60.5107V60.501C74.8945 59.9785 75.2461 59.6953 76.0469 59.6465L77.4531 59.5586V60.0371C77.4531 60.7891 76.8232 61.3555 75.959 61.3555C75.3486 61.3555 74.8945 61.043 74.8945 60.5107ZM79.8555 62H80.7051V58.8848C80.7051 57.9619 81.2373 57.3955 82.0771 57.3955C82.917 57.3955 83.3076 57.8496 83.3076 58.7969V62H84.1572V58.5918C84.1572 57.3418 83.498 56.6436 82.3164 56.6436C81.54 56.6436 81.0469 56.9707 80.7832 57.5273H80.7051V56.7363H79.8555V62Z" fill="#202223"/>
</g>
<defs>
<filter id="filter0_dd_44623_12139" x="-5" y="0" width="117" height="116" filterUnits="userSpaceOnUse" color-interpolation-filters="sRGB">
<feFlood flood-opacity="0" result="BackgroundImageFix"/>
<feColorMatrix in="SourceAlpha" type="matrix" values="0 0 0 0 0 0 0 0 0 0 0 0 0 0 0 0 0 0 127 0" result="hardAlpha"/>
<feOffset/>
<feGaussianBlur stdDeviation="2.5"/>
<feColorMatrix type="matrix" values="0 0 0 0 0 0 0 0 0 0 0 0 0 0 0 0 0 0 0.05 0"/>
<feBlend mode="normal" in2="BackgroundImageFix" result="effect1_dropShadow_44623_12139"/>
<feColorMatrix in="SourceAlpha" type="matrix" values="0 0 0 0 0 0 0 0 0 0 0 0 0 0 0 0 0 0 127 0" result="hardAlpha"/>
<feOffset dy="1"/>
<feGaussianBlur stdDeviation="1"/>
<feColorMatrix type="matrix" values="0 0 0 0 0 0 0 0 0 0 0 0 0 0 0 0 0 0 0.15 0"/>
<feBlend mode="normal" in2="effect1_dropShadow_44623_12139" result="effect2_dropShadow_44623_12139"/>
<feBlend mode="normal" in="SourceGraphic" in2="effect2_dropShadow_44623_12139" result="shape"/>
</filter>
<clipPath id="clip0_44623_12139">
<rect width="10" height="10" fill="white" transform="translate(16 38)"/>
</clipPath>
<clipPath id="clip1_44623_12139">
<rect width="10" height="10" fill="white" transform="translate(16 68)"/>
</clipPath>
<clipPath id="clip2_44623_12139">
<rect width="10" height="10" fill="white" transform="translate(61 53)"/>
</clipPath>
</defs>
</svg>
