<svg width="117" height="116" viewBox="0 0 117 116" fill="none" xmlns="http://www.w3.org/2000/svg">
<g filter="url(#filter0_dd_44334_13612)">
<rect width="106.667" height="106" transform="translate(5.33301 5)" fill="white"/>
<rect width="90.6667" height="27.3333" transform="translate(13.333 13)" fill="#F6F6F7"/>
<g clip-path="url(#clip0_44334_13612)">
<path d="M63.166 29.667C63.2986 29.667 63.4258 29.6143 63.5196 29.5205C63.6133 29.4268 63.666 29.2996 63.666 29.167V22.167C63.666 22.0344 63.6133 21.9072 63.5196 21.8134C63.4258 21.7197 63.2986 21.667 63.166 21.667H56.166C56.0334 21.667 55.9062 21.7197 55.8125 21.8134C55.7187 21.9072 55.666 22.0344 55.666 22.167V29.167C55.666 29.2996 55.7187 29.4268 55.8125 29.5205C55.9062 29.6143 56.0334 29.667 56.166 29.667H63.166ZM56.879 28.667C56.7525 28.667 56.666 28.5715 56.666 28.469C56.666 28.429 56.679 28.388 56.7075 28.351L58.2305 26.731C58.2716 26.6908 58.3265 26.668 58.3839 26.6672C58.4413 26.6663 58.4968 26.6876 58.539 26.7265L59.2375 27.467L60.549 25.5545C60.5703 25.5266 60.5979 25.5042 60.6296 25.489C60.6612 25.4738 60.696 25.4663 60.731 25.4671C60.7661 25.4679 60.8005 25.4769 60.8314 25.4935C60.8624 25.5101 60.8889 25.5337 60.909 25.5625L62.64 28.367C62.717 28.503 62.614 28.667 62.4515 28.667H56.879ZM59.166 24.167C59.166 24.4322 59.0607 24.6866 58.8731 24.8741C58.6856 25.0616 58.4312 25.167 58.166 25.167C57.9008 25.167 57.6464 25.0616 57.4589 24.8741C57.2714 24.6866 57.166 24.4322 57.166 24.167C57.166 23.9018 57.2714 23.6474 57.4589 23.4599C57.6464 23.2723 57.9008 23.167 58.166 23.167C58.4312 23.167 58.6856 23.2723 58.8731 23.4599C59.0607 23.6474 59.166 23.9018 59.166 24.167ZM53.666 23.917C53.666 23.7181 53.745 23.5273 53.8857 23.3867C54.0263 23.246 54.2171 23.167 54.416 23.167H54.666V30.667H62.166V30.917C62.166 31.1159 62.087 31.3067 61.9463 31.4473C61.8057 31.588 61.6149 31.667 61.416 31.667H54.416C54.2171 31.667 54.0263 31.588 53.8857 31.4473C53.745 31.3067 53.666 31.1159 53.666 30.917V23.917Z" fill="#5C5F62"/>
</g>
<g clip-path="url(#clip1_44334_13612)">
<path d="M63.166 61C63.2986 61 63.4258 60.9473 63.5196 60.8536C63.6133 60.7598 63.666 60.6326 63.666 60.5V53.5C63.666 53.3674 63.6133 53.2402 63.5196 53.1464C63.4258 53.0527 63.2986 53 63.166 53H56.166C56.0334 53 55.9062 53.0527 55.8125 53.1464C55.7187 53.2402 55.666 53.3674 55.666 53.5V60.5C55.666 60.6326 55.7187 60.7598 55.8125 60.8536C55.9062 60.9473 56.0334 61 56.166 61H63.166ZM56.879 60C56.7525 60 56.666 59.9045 56.666 59.802C56.666 59.762 56.679 59.721 56.7075 59.684L58.2305 58.064C58.2716 58.0239 58.3265 58.001 58.3839 58.0002C58.4413 57.9993 58.4968 58.0206 58.539 58.0595L59.2375 58.8L60.549 56.8875C60.5703 56.8596 60.5979 56.8372 60.6296 56.822C60.6612 56.8068 60.696 56.7993 60.731 56.8001C60.7661 56.8009 60.8005 56.8099 60.8314 56.8265C60.8624 56.8431 60.8889 56.8667 60.909 56.8955L62.64 59.7C62.717 59.836 62.614 60 62.4515 60H56.879ZM59.166 55.5C59.166 55.7652 59.0607 56.0196 58.8731 56.2071C58.6856 56.3946 58.4312 56.5 58.166 56.5C57.9008 56.5 57.6464 56.3946 57.4589 56.2071C57.2714 56.0196 57.166 55.7652 57.166 55.5C57.166 55.2348 57.2714 54.9804 57.4589 54.7929C57.6464 54.6054 57.9008 54.5 58.166 54.5C58.4312 54.5 58.6856 54.6054 58.8731 54.7929C59.0607 54.9804 59.166 55.2348 59.166 55.5ZM53.666 55.25C53.666 55.0511 53.745 54.8603 53.8857 54.7197C54.0263 54.579 54.2171 54.5 54.416 54.5H54.666V62H62.166V62.25C62.166 62.4489 62.087 62.6397 61.9463 62.7803C61.8057 62.921 61.6149 63 61.416 63H54.416C54.2171 63 54.0263 62.921 53.8857 62.7803C53.745 62.6397 53.666 62.4489 53.666 62.25V55.25Z" fill="#008060"/>
</g>
<rect x="13.833" y="44.833" width="89.6667" height="26.3333" stroke="#C9CCCF"/>
<rect width="90.6667" height="27.3333" transform="translate(13.333 75.667)" fill="#F6F6F7"/>
<g clip-path="url(#clip2_44334_13612)">
<path d="M63.166 92.334C63.2986 92.334 63.4258 92.2813 63.5196 92.1875C63.6133 92.0938 63.666 91.9666 63.666 91.834V84.834C63.666 84.7014 63.6133 84.5742 63.5196 84.4804C63.4258 84.3867 63.2986 84.334 63.166 84.334H56.166C56.0334 84.334 55.9062 84.3867 55.8125 84.4804C55.7187 84.5742 55.666 84.7014 55.666 84.834V91.834C55.666 91.9666 55.7187 92.0938 55.8125 92.1875C55.9062 92.2813 56.0334 92.334 56.166 92.334H63.166ZM56.879 91.334C56.7525 91.334 56.666 91.2385 56.666 91.136C56.666 91.096 56.679 91.055 56.7075 91.018L58.2305 89.398C58.2716 89.3578 58.3265 89.335 58.3839 89.3342C58.4413 89.3333 58.4968 89.3546 58.539 89.3935L59.2375 90.134L60.549 88.2215C60.5703 88.1936 60.5979 88.1712 60.6296 88.156C60.6612 88.1408 60.696 88.1333 60.731 88.1341C60.7661 88.1349 60.8005 88.1439 60.8314 88.1605C60.8624 88.1771 60.8889 88.2007 60.909 88.2295L62.64 91.034C62.717 91.17 62.614 91.334 62.4515 91.334H56.879ZM59.166 86.834C59.166 87.0992 59.0607 87.3536 58.8731 87.5411C58.6856 87.7286 58.4312 87.834 58.166 87.834C57.9008 87.834 57.6464 87.7286 57.4589 87.5411C57.2714 87.3536 57.166 87.0992 57.166 86.834C57.166 86.5688 57.2714 86.3144 57.4589 86.1269C57.6464 85.9393 57.9008 85.834 58.166 85.834C58.4312 85.834 58.6856 85.9393 58.8731 86.1269C59.0607 86.3144 59.166 86.5688 59.166 86.834ZM53.666 86.584C53.666 86.3851 53.745 86.1943 53.8857 86.0537C54.0263 85.913 54.2171 85.834 54.416 85.834H54.666V93.334H62.166V93.584C62.166 93.7829 62.087 93.9737 61.9463 94.1143C61.8057 94.255 61.6149 94.334 61.416 94.334H54.416C54.2171 94.334 54.0263 94.255 53.8857 94.1143C53.745 93.9737 53.666 93.7829 53.666 93.584V86.584Z" fill="#5C5F62"/>
</g>
</g>
<defs>
<filter id="filter0_dd_44334_13612" x="0.333008" y="0" width="116.667" height="116" filterUnits="userSpaceOnUse" color-interpolation-filters="sRGB">
<feFlood flood-opacity="0" result="BackgroundImageFix"/>
<feColorMatrix in="SourceAlpha" type="matrix" values="0 0 0 0 0 0 0 0 0 0 0 0 0 0 0 0 0 0 127 0" result="hardAlpha"/>
<feOffset/>
<feGaussianBlur stdDeviation="2.5"/>
<feColorMatrix type="matrix" values="0 0 0 0 0 0 0 0 0 0 0 0 0 0 0 0 0 0 0.05 0"/>
<feBlend mode="normal" in2="BackgroundImageFix" result="effect1_dropShadow_44334_13612"/>
<feColorMatrix in="SourceAlpha" type="matrix" values="0 0 0 0 0 0 0 0 0 0 0 0 0 0 0 0 0 0 127 0" result="hardAlpha"/>
<feOffset dy="1"/>
<feGaussianBlur stdDeviation="1"/>
<feColorMatrix type="matrix" values="0 0 0 0 0 0 0 0 0 0 0 0 0 0 0 0 0 0 0.15 0"/>
<feBlend mode="normal" in2="effect1_dropShadow_44334_13612" result="effect2_dropShadow_44334_13612"/>
<feBlend mode="normal" in="SourceGraphic" in2="effect2_dropShadow_44334_13612" result="shape"/>
</filter>
<clipPath id="clip0_44334_13612">
<rect width="10" height="10" fill="white" transform="translate(53.666 21.667)"/>
</clipPath>
<clipPath id="clip1_44334_13612">
<rect width="10" height="10" fill="white" transform="translate(53.666 53)"/>
</clipPath>
<clipPath id="clip2_44334_13612">
<rect width="10" height="10" fill="white" transform="translate(53.666 84.334)"/>
</clipPath>
</defs>
</svg>
