<svg width="118" height="111" viewBox="0 0 118 111" fill="none" xmlns="http://www.w3.org/2000/svg">
<g filter="url(#filter0_dd_44623_12664)">
<rect x="5.66663" width="106.667" height="106" rx="4" fill="white"/>
<rect width="26" height="26" transform="translate(13.6666 8)" fill="#F6F6F7"/>
<g clip-path="url(#clip0_44623_12664)">
<path d="M31.1666 24C31.2992 24 31.4264 23.9473 31.5202 23.8536C31.6139 23.7598 31.6666 23.6326 31.6666 23.5V16.5C31.6666 16.3674 31.6139 16.2402 31.5202 16.1464C31.4264 16.0527 31.2992 16 31.1666 16H24.1666C24.034 16 23.9068 16.0527 23.8131 16.1464C23.7193 16.2402 23.6666 16.3674 23.6666 16.5V23.5C23.6666 23.6326 23.7193 23.7598 23.8131 23.8536C23.9068 23.9473 24.034 24 24.1666 24H31.1666ZM24.8796 23C24.7531 23 24.6666 22.9045 24.6666 22.802C24.6666 22.762 24.6796 22.721 24.7081 22.684L26.2311 21.064C26.2722 21.0239 26.3271 21.001 26.3845 21.0002C26.4419 20.9993 26.4974 21.0206 26.5396 21.0595L27.2381 21.8L28.5496 19.8875C28.571 19.8596 28.5986 19.8372 28.6302 19.822C28.6618 19.8068 28.6966 19.7993 28.7317 19.8001C28.7667 19.8009 28.8011 19.8099 28.8321 19.8265C28.863 19.8431 28.8896 19.8667 28.9096 19.8955L30.6406 22.7C30.7176 22.836 30.6146 23 30.4521 23H24.8796ZM27.1666 18.5C27.1666 18.7652 27.0613 19.0196 26.8737 19.2071C26.6862 19.3946 26.4318 19.5 26.1666 19.5C25.9014 19.5 25.6471 19.3946 25.4595 19.2071C25.272 19.0196 25.1666 18.7652 25.1666 18.5C25.1666 18.2348 25.272 17.9804 25.4595 17.7929C25.6471 17.6054 25.9014 17.5 26.1666 17.5C26.4318 17.5 26.6862 17.6054 26.8737 17.7929C27.0613 17.9804 27.1666 18.2348 27.1666 18.5ZM21.6666 18.25C21.6666 18.0511 21.7456 17.8603 21.8863 17.7197C22.0269 17.579 22.2177 17.5 22.4166 17.5H22.6666V25H30.1666V25.25C30.1666 25.4489 30.0876 25.6397 29.947 25.7803C29.8063 25.921 29.6155 26 29.4166 26H22.4166C22.2177 26 22.0269 25.921 21.8863 25.7803C21.7456 25.6397 21.6666 25.4489 21.6666 25.25V18.25Z" fill="#5C5F62"/>
</g>
<rect width="26" height="26" transform="translate(43.6666 8)" fill="#F6F6F7"/>
<g clip-path="url(#clip1_44623_12664)">
<path d="M61.1666 24C61.2992 24 61.4264 23.9473 61.5202 23.8536C61.6139 23.7598 61.6666 23.6326 61.6666 23.5V16.5C61.6666 16.3674 61.6139 16.2402 61.5202 16.1464C61.4264 16.0527 61.2992 16 61.1666 16H54.1666C54.034 16 53.9068 16.0527 53.8131 16.1464C53.7193 16.2402 53.6666 16.3674 53.6666 16.5V23.5C53.6666 23.6326 53.7193 23.7598 53.8131 23.8536C53.9068 23.9473 54.034 24 54.1666 24H61.1666ZM54.8796 23C54.7531 23 54.6666 22.9045 54.6666 22.802C54.6666 22.762 54.6796 22.721 54.7081 22.684L56.2311 21.064C56.2722 21.0239 56.3271 21.001 56.3845 21.0002C56.4419 20.9993 56.4974 21.0206 56.5396 21.0595L57.2381 21.8L58.5496 19.8875C58.571 19.8596 58.5986 19.8372 58.6302 19.822C58.6618 19.8068 58.6966 19.7993 58.7317 19.8001C58.7667 19.8009 58.8011 19.8099 58.8321 19.8265C58.863 19.8431 58.8896 19.8667 58.9096 19.8955L60.6406 22.7C60.7176 22.836 60.6146 23 60.4521 23H54.8796ZM57.1666 18.5C57.1666 18.7652 57.0613 19.0196 56.8737 19.2071C56.6862 19.3946 56.4318 19.5 56.1666 19.5C55.9014 19.5 55.6471 19.3946 55.4595 19.2071C55.272 19.0196 55.1666 18.7652 55.1666 18.5C55.1666 18.2348 55.272 17.9804 55.4595 17.7929C55.6471 17.6054 55.9014 17.5 56.1666 17.5C56.4318 17.5 56.6862 17.6054 56.8737 17.7929C57.0613 17.9804 57.1666 18.2348 57.1666 18.5ZM51.6666 18.25C51.6666 18.0511 51.7456 17.8603 51.8863 17.7197C52.0269 17.579 52.2177 17.5 52.4166 17.5H52.6666V25H60.1666V25.25C60.1666 25.4489 60.0876 25.6397 59.947 25.7803C59.8063 25.921 59.6155 26 59.4166 26H52.4166C52.2177 26 52.0269 25.921 51.8863 25.7803C51.7456 25.6397 51.6666 25.4489 51.6666 25.25V18.25Z" fill="#5C5F62"/>
</g>
<rect width="26" height="26" transform="translate(73.6666 8)" fill="#F6F6F7"/>
<g clip-path="url(#clip2_44623_12664)">
<path d="M91.1666 24C91.2992 24 91.4264 23.9473 91.5202 23.8536C91.6139 23.7598 91.6666 23.6326 91.6666 23.5V16.5C91.6666 16.3674 91.6139 16.2402 91.5202 16.1464C91.4264 16.0527 91.2992 16 91.1666 16H84.1666C84.034 16 83.9068 16.0527 83.8131 16.1464C83.7193 16.2402 83.6666 16.3674 83.6666 16.5V23.5C83.6666 23.6326 83.7193 23.7598 83.8131 23.8536C83.9068 23.9473 84.034 24 84.1666 24H91.1666ZM84.8796 23C84.7531 23 84.6666 22.9045 84.6666 22.802C84.6666 22.762 84.6796 22.721 84.7081 22.684L86.2311 21.064C86.2722 21.0239 86.3271 21.001 86.3845 21.0002C86.4419 20.9993 86.4974 21.0206 86.5396 21.0595L87.2381 21.8L88.5496 19.8875C88.571 19.8596 88.5986 19.8372 88.6302 19.822C88.6618 19.8068 88.6966 19.7993 88.7317 19.8001C88.7667 19.8009 88.8011 19.8099 88.8321 19.8265C88.863 19.8431 88.8896 19.8667 88.9096 19.8955L90.6406 22.7C90.7176 22.836 90.6146 23 90.4521 23H84.8796ZM87.1666 18.5C87.1666 18.7652 87.0613 19.0196 86.8737 19.2071C86.6862 19.3946 86.4318 19.5 86.1666 19.5C85.9014 19.5 85.6471 19.3946 85.4595 19.2071C85.272 19.0196 85.1666 18.7652 85.1666 18.5C85.1666 18.2348 85.272 17.9804 85.4595 17.7929C85.6471 17.6054 85.9014 17.5 86.1666 17.5C86.4318 17.5 86.6862 17.6054 86.8737 17.7929C87.0613 17.9804 87.1666 18.2348 87.1666 18.5ZM81.6666 18.25C81.6666 18.0511 81.7456 17.8603 81.8863 17.7197C82.0269 17.579 82.2177 17.5 82.4166 17.5H82.6666V25H90.1666V25.25C90.1666 25.4489 90.0876 25.6397 89.947 25.7803C89.8063 25.921 89.6155 26 89.4166 26H82.4166C82.2177 26 82.0269 25.921 81.8863 25.7803C81.7456 25.6397 81.6666 25.4489 81.6666 25.25V18.25Z" fill="#5C5F62"/>
</g>
<rect width="26" height="26" transform="translate(13.6666 38)" fill="#F6F6F7"/>
<g clip-path="url(#clip3_44623_12664)">
<path d="M31.1666 54C31.2992 54 31.4264 53.9473 31.5202 53.8536C31.6139 53.7598 31.6666 53.6326 31.6666 53.5V46.5C31.6666 46.3674 31.6139 46.2402 31.5202 46.1464C31.4264 46.0527 31.2992 46 31.1666 46H24.1666C24.034 46 23.9068 46.0527 23.8131 46.1464C23.7193 46.2402 23.6666 46.3674 23.6666 46.5V53.5C23.6666 53.6326 23.7193 53.7598 23.8131 53.8536C23.9068 53.9473 24.034 54 24.1666 54H31.1666ZM24.8796 53C24.7531 53 24.6666 52.9045 24.6666 52.802C24.6666 52.762 24.6796 52.721 24.7081 52.684L26.2311 51.064C26.2722 51.0239 26.3271 51.001 26.3845 51.0002C26.4419 50.9993 26.4974 51.0206 26.5396 51.0595L27.2381 51.8L28.5496 49.8875C28.571 49.8596 28.5986 49.8372 28.6302 49.822C28.6618 49.8068 28.6966 49.7993 28.7317 49.8001C28.7667 49.8009 28.8011 49.8099 28.8321 49.8265C28.863 49.8431 28.8896 49.8667 28.9096 49.8955L30.6406 52.7C30.7176 52.836 30.6146 53 30.4521 53H24.8796ZM27.1666 48.5C27.1666 48.7652 27.0613 49.0196 26.8737 49.2071C26.6862 49.3946 26.4318 49.5 26.1666 49.5C25.9014 49.5 25.6471 49.3946 25.4595 49.2071C25.272 49.0196 25.1666 48.7652 25.1666 48.5C25.1666 48.2348 25.272 47.9804 25.4595 47.7929C25.6471 47.6054 25.9014 47.5 26.1666 47.5C26.4318 47.5 26.6862 47.6054 26.8737 47.7929C27.0613 47.9804 27.1666 48.2348 27.1666 48.5ZM21.6666 48.25C21.6666 48.0511 21.7456 47.8603 21.8863 47.7197C22.0269 47.579 22.2177 47.5 22.4166 47.5H22.6666V55H30.1666V55.25C30.1666 55.4489 30.0876 55.6397 29.947 55.7803C29.8063 55.921 29.6155 56 29.4166 56H22.4166C22.2177 56 22.0269 55.921 21.8863 55.7803C21.7456 55.6397 21.6666 55.4489 21.6666 55.25V48.25Z" fill="#5C5F62"/>
</g>
<rect width="26" height="26" transform="translate(43.6666 38)" fill="#F6F6F7"/>
<g clip-path="url(#clip4_44623_12664)">
<path d="M61.1666 54C61.2992 54 61.4264 53.9473 61.5202 53.8536C61.6139 53.7598 61.6666 53.6326 61.6666 53.5V46.5C61.6666 46.3674 61.6139 46.2402 61.5202 46.1464C61.4264 46.0527 61.2992 46 61.1666 46H54.1666C54.034 46 53.9068 46.0527 53.8131 46.1464C53.7193 46.2402 53.6666 46.3674 53.6666 46.5V53.5C53.6666 53.6326 53.7193 53.7598 53.8131 53.8536C53.9068 53.9473 54.034 54 54.1666 54H61.1666ZM54.8796 53C54.7531 53 54.6666 52.9045 54.6666 52.802C54.6666 52.762 54.6796 52.721 54.7081 52.684L56.2311 51.064C56.2722 51.0239 56.3271 51.001 56.3845 51.0002C56.4419 50.9993 56.4974 51.0206 56.5396 51.0595L57.2381 51.8L58.5496 49.8875C58.571 49.8596 58.5986 49.8372 58.6302 49.822C58.6618 49.8068 58.6966 49.7993 58.7317 49.8001C58.7667 49.8009 58.8011 49.8099 58.8321 49.8265C58.863 49.8431 58.8896 49.8667 58.9096 49.8955L60.6406 52.7C60.7176 52.836 60.6146 53 60.4521 53H54.8796ZM57.1666 48.5C57.1666 48.7652 57.0613 49.0196 56.8737 49.2071C56.6862 49.3946 56.4318 49.5 56.1666 49.5C55.9014 49.5 55.6471 49.3946 55.4595 49.2071C55.272 49.0196 55.1666 48.7652 55.1666 48.5C55.1666 48.2348 55.272 47.9804 55.4595 47.7929C55.6471 47.6054 55.9014 47.5 56.1666 47.5C56.4318 47.5 56.6862 47.6054 56.8737 47.7929C57.0613 47.9804 57.1666 48.2348 57.1666 48.5ZM51.6666 48.25C51.6666 48.0511 51.7456 47.8603 51.8863 47.7197C52.0269 47.579 52.2177 47.5 52.4166 47.5H52.6666V55H60.1666V55.25C60.1666 55.4489 60.0876 55.6397 59.947 55.7803C59.8063 55.921 59.6155 56 59.4166 56H52.4166C52.2177 56 52.0269 55.921 51.8863 55.7803C51.7456 55.6397 51.6666 55.4489 51.6666 55.25V48.25Z" fill="#5C5F62"/>
</g>
<rect width="26" height="26" transform="translate(73.6666 38)" fill="#F6F6F7"/>
<g clip-path="url(#clip5_44623_12664)">
<path d="M91.1666 54C91.2992 54 91.4264 53.9473 91.5202 53.8536C91.6139 53.7598 91.6666 53.6326 91.6666 53.5V46.5C91.6666 46.3674 91.6139 46.2402 91.5202 46.1464C91.4264 46.0527 91.2992 46 91.1666 46H84.1666C84.034 46 83.9068 46.0527 83.8131 46.1464C83.7193 46.2402 83.6666 46.3674 83.6666 46.5V53.5C83.6666 53.6326 83.7193 53.7598 83.8131 53.8536C83.9068 53.9473 84.034 54 84.1666 54H91.1666ZM84.8796 53C84.7531 53 84.6666 52.9045 84.6666 52.802C84.6666 52.762 84.6796 52.721 84.7081 52.684L86.2311 51.064C86.2722 51.0239 86.3271 51.001 86.3845 51.0002C86.4419 50.9993 86.4974 51.0206 86.5396 51.0595L87.2381 51.8L88.5496 49.8875C88.571 49.8596 88.5986 49.8372 88.6302 49.822C88.6618 49.8068 88.6966 49.7993 88.7317 49.8001C88.7667 49.8009 88.8011 49.8099 88.8321 49.8265C88.863 49.8431 88.8896 49.8667 88.9096 49.8955L90.6406 52.7C90.7176 52.836 90.6146 53 90.4521 53H84.8796ZM87.1666 48.5C87.1666 48.7652 87.0613 49.0196 86.8737 49.2071C86.6862 49.3946 86.4318 49.5 86.1666 49.5C85.9014 49.5 85.6471 49.3946 85.4595 49.2071C85.272 49.0196 85.1666 48.7652 85.1666 48.5C85.1666 48.2348 85.272 47.9804 85.4595 47.7929C85.6471 47.6054 85.9014 47.5 86.1666 47.5C86.4318 47.5 86.6862 47.6054 86.8737 47.7929C87.0613 47.9804 87.1666 48.2348 87.1666 48.5ZM81.6666 48.25C81.6666 48.0511 81.7456 47.8603 81.8863 47.7197C82.0269 47.579 82.2177 47.5 82.4166 47.5H82.6666V55H90.1666V55.25C90.1666 55.4489 90.0876 55.6397 89.947 55.7803C89.8063 55.921 89.6155 56 89.4166 56H82.4166C82.2177 56 82.0269 55.921 81.8863 55.7803C81.7456 55.6397 81.6666 55.4489 81.6666 55.25V48.25Z" fill="#5C5F62"/>
</g>
<rect width="26" height="26" transform="translate(13.6666 68)" fill="#F6F6F7"/>
<g clip-path="url(#clip6_44623_12664)">
<path d="M31.1666 84C31.2992 84 31.4264 83.9473 31.5202 83.8536C31.6139 83.7598 31.6666 83.6326 31.6666 83.5V76.5C31.6666 76.3674 31.6139 76.2402 31.5202 76.1464C31.4264 76.0527 31.2992 76 31.1666 76H24.1666C24.034 76 23.9068 76.0527 23.8131 76.1464C23.7193 76.2402 23.6666 76.3674 23.6666 76.5V83.5C23.6666 83.6326 23.7193 83.7598 23.8131 83.8536C23.9068 83.9473 24.034 84 24.1666 84H31.1666ZM24.8796 83C24.7531 83 24.6666 82.9045 24.6666 82.802C24.6666 82.762 24.6796 82.721 24.7081 82.684L26.2311 81.064C26.2722 81.0239 26.3271 81.001 26.3845 81.0002C26.4419 80.9993 26.4974 81.0206 26.5396 81.0595L27.2381 81.8L28.5496 79.8875C28.571 79.8596 28.5986 79.8372 28.6302 79.822C28.6618 79.8068 28.6966 79.7993 28.7317 79.8001C28.7667 79.8009 28.8011 79.8099 28.8321 79.8265C28.863 79.8431 28.8896 79.8667 28.9096 79.8955L30.6406 82.7C30.7176 82.836 30.6146 83 30.4521 83H24.8796ZM27.1666 78.5C27.1666 78.7652 27.0613 79.0196 26.8737 79.2071C26.6862 79.3946 26.4318 79.5 26.1666 79.5C25.9014 79.5 25.6471 79.3946 25.4595 79.2071C25.272 79.0196 25.1666 78.7652 25.1666 78.5C25.1666 78.2348 25.272 77.9804 25.4595 77.7929C25.6471 77.6054 25.9014 77.5 26.1666 77.5C26.4318 77.5 26.6862 77.6054 26.8737 77.7929C27.0613 77.9804 27.1666 78.2348 27.1666 78.5ZM21.6666 78.25C21.6666 78.0511 21.7456 77.8603 21.8863 77.7197C22.0269 77.579 22.2177 77.5 22.4166 77.5H22.6666V85H30.1666V85.25C30.1666 85.4489 30.0876 85.6397 29.947 85.7803C29.8063 85.921 29.6155 86 29.4166 86H22.4166C22.2177 86 22.0269 85.921 21.8863 85.7803C21.7456 85.6397 21.6666 85.4489 21.6666 85.25V78.25Z" fill="#5C5F62"/>
</g>
<rect width="26" height="26" transform="translate(43.6666 68)" fill="#F6F6F7"/>
<g clip-path="url(#clip7_44623_12664)">
<path d="M61.1666 84C61.2992 84 61.4264 83.9473 61.5202 83.8536C61.6139 83.7598 61.6666 83.6326 61.6666 83.5V76.5C61.6666 76.3674 61.6139 76.2402 61.5202 76.1464C61.4264 76.0527 61.2992 76 61.1666 76H54.1666C54.034 76 53.9068 76.0527 53.8131 76.1464C53.7193 76.2402 53.6666 76.3674 53.6666 76.5V83.5C53.6666 83.6326 53.7193 83.7598 53.8131 83.8536C53.9068 83.9473 54.034 84 54.1666 84H61.1666ZM54.8796 83C54.7531 83 54.6666 82.9045 54.6666 82.802C54.6666 82.762 54.6796 82.721 54.7081 82.684L56.2311 81.064C56.2722 81.0239 56.3271 81.001 56.3845 81.0002C56.4419 80.9993 56.4974 81.0206 56.5396 81.0595L57.2381 81.8L58.5496 79.8875C58.571 79.8596 58.5986 79.8372 58.6302 79.822C58.6618 79.8068 58.6966 79.7993 58.7317 79.8001C58.7667 79.8009 58.8011 79.8099 58.8321 79.8265C58.863 79.8431 58.8896 79.8667 58.9096 79.8955L60.6406 82.7C60.7176 82.836 60.6146 83 60.4521 83H54.8796ZM57.1666 78.5C57.1666 78.7652 57.0613 79.0196 56.8737 79.2071C56.6862 79.3946 56.4318 79.5 56.1666 79.5C55.9014 79.5 55.6471 79.3946 55.4595 79.2071C55.272 79.0196 55.1666 78.7652 55.1666 78.5C55.1666 78.2348 55.272 77.9804 55.4595 77.7929C55.6471 77.6054 55.9014 77.5 56.1666 77.5C56.4318 77.5 56.6862 77.6054 56.8737 77.7929C57.0613 77.9804 57.1666 78.2348 57.1666 78.5ZM51.6666 78.25C51.6666 78.0511 51.7456 77.8603 51.8863 77.7197C52.0269 77.579 52.2177 77.5 52.4166 77.5H52.6666V85H60.1666V85.25C60.1666 85.4489 60.0876 85.6397 59.947 85.7803C59.8063 85.921 59.6155 86 59.4166 86H52.4166C52.2177 86 52.0269 85.921 51.8863 85.7803C51.7456 85.6397 51.6666 85.4489 51.6666 85.25V78.25Z" fill="#5C5F62"/>
</g>
<rect width="26" height="26" transform="translate(73.6666 68)" fill="#F6F6F7"/>
<g clip-path="url(#clip8_44623_12664)">
<path d="M91.1666 84C91.2992 84 91.4264 83.9473 91.5202 83.8536C91.6139 83.7598 91.6666 83.6326 91.6666 83.5V76.5C91.6666 76.3674 91.6139 76.2402 91.5202 76.1464C91.4264 76.0527 91.2992 76 91.1666 76H84.1666C84.034 76 83.9068 76.0527 83.8131 76.1464C83.7193 76.2402 83.6666 76.3674 83.6666 76.5V83.5C83.6666 83.6326 83.7193 83.7598 83.8131 83.8536C83.9068 83.9473 84.034 84 84.1666 84H91.1666ZM84.8796 83C84.7531 83 84.6666 82.9045 84.6666 82.802C84.6666 82.762 84.6796 82.721 84.7081 82.684L86.2311 81.064C86.2722 81.0239 86.3271 81.001 86.3845 81.0002C86.4419 80.9993 86.4974 81.0206 86.5396 81.0595L87.2381 81.8L88.5496 79.8875C88.571 79.8596 88.5986 79.8372 88.6302 79.822C88.6618 79.8068 88.6966 79.7993 88.7317 79.8001C88.7667 79.8009 88.8011 79.8099 88.8321 79.8265C88.863 79.8431 88.8896 79.8667 88.9096 79.8955L90.6406 82.7C90.7176 82.836 90.6146 83 90.4521 83H84.8796ZM87.1666 78.5C87.1666 78.7652 87.0613 79.0196 86.8737 79.2071C86.6862 79.3946 86.4318 79.5 86.1666 79.5C85.9014 79.5 85.6471 79.3946 85.4595 79.2071C85.272 79.0196 85.1666 78.7652 85.1666 78.5C85.1666 78.2348 85.272 77.9804 85.4595 77.7929C85.6471 77.6054 85.9014 77.5 86.1666 77.5C86.4318 77.5 86.6862 77.6054 86.8737 77.7929C87.0613 77.9804 87.1666 78.2348 87.1666 78.5ZM81.6666 78.25C81.6666 78.0511 81.7456 77.8603 81.8863 77.7197C82.0269 77.579 82.2177 77.5 82.4166 77.5H82.6666V85H90.1666V85.25C90.1666 85.4489 90.0876 85.6397 89.947 85.7803C89.8063 85.921 89.6155 86 89.4166 86H82.4166C82.2177 86 82.0269 85.921 81.8863 85.7803C81.7456 85.6397 81.6666 85.4489 81.6666 85.25V78.25Z" fill="#5C5F62"/>
</g>
<rect x="5.66663" width="107" height="106" rx="4" fill="white" fill-opacity="0.8"/>
<rect x="16.6666" y="42" width="80" height="18" rx="9" fill="#FFD79D"/>
<path d="M28.4537 55.166C30.2018 55.166 31.2467 54.1113 31.2467 52.5781V47.9541H30.3678V52.5195C30.3678 53.6035 29.6744 54.3555 28.4537 54.3555C27.233 54.3555 26.5299 53.6035 26.5299 52.5195V47.9541H25.651V52.5781C25.651 54.1113 26.7057 55.166 28.4537 55.166ZM32.9264 56.7578H33.776V54.1699H33.8541C34.1422 54.7314 34.7721 55.0928 35.4948 55.0928C36.8326 55.0928 37.7018 54.0234 37.7018 52.373V52.3633C37.7018 50.7227 36.8278 49.6436 35.4948 49.6436C34.7623 49.6436 34.1764 49.9902 33.8541 50.5762H33.776V49.7363H32.9264V56.7578ZM35.2994 54.3408C34.3424 54.3408 33.7565 53.5889 33.7565 52.373V52.3633C33.7565 51.1475 34.3424 50.3955 35.2994 50.3955C36.2614 50.3955 36.8326 51.1377 36.8326 52.3633V52.373C36.8326 53.5986 36.2614 54.3408 35.2994 54.3408ZM41.1979 56.8555C42.6334 56.8555 43.5416 56.1035 43.5416 54.9268V49.7363H42.692V50.6055H42.6334C42.3112 50.0098 41.735 49.6436 40.9928 49.6436C39.6158 49.6436 38.7662 50.7129 38.7662 52.1875V52.1973C38.7662 53.6719 39.611 54.7266 40.9733 54.7266C41.6959 54.7266 42.2916 54.3994 42.6237 53.8184H42.7018V54.8828C42.7018 55.6592 42.1403 56.1035 41.1979 56.1035C40.441 56.1035 39.9723 55.8203 39.8795 55.4199L39.8746 55.415H38.9957L38.986 55.4199C39.1178 56.2842 39.9283 56.8555 41.1979 56.8555ZM41.1588 53.9746C40.1823 53.9746 39.6354 53.2422 39.6354 52.1973V52.1875C39.6354 51.1426 40.1823 50.3955 41.1588 50.3955C42.1305 50.3955 42.7213 51.1426 42.7213 52.1875V52.1973C42.7213 53.2422 42.1354 53.9746 41.1588 53.9746ZM45.1237 55H45.9733V51.7383C45.9733 50.9668 46.5494 50.4541 47.36 50.4541C47.5455 50.4541 47.7067 50.4736 47.8824 50.5029V49.6777C47.7994 49.6631 47.6188 49.6436 47.4576 49.6436C46.7448 49.6436 46.2516 49.9658 46.0514 50.5176H45.9733V49.7363H45.1237V55ZM50.3776 55.0928C51.0856 55.0928 51.6373 54.7852 51.9694 54.2236H52.0475V55H52.8971V51.3965C52.8971 50.3027 52.1793 49.6436 50.8951 49.6436C49.7721 49.6436 48.9713 50.2002 48.8346 51.0254L48.8297 51.0547H49.6793L49.6842 51.04C49.8209 50.6299 50.236 50.3955 50.8658 50.3955C51.652 50.3955 52.0475 50.7471 52.0475 51.3965V51.875L50.5387 51.9678C49.3131 52.041 48.6198 52.583 48.6198 53.5205V53.5303C48.6198 54.4873 49.3766 55.0928 50.3776 55.0928ZM49.4889 53.5107V53.501C49.4889 52.9785 49.8405 52.6953 50.6412 52.6465L52.0475 52.5586V53.0371C52.0475 53.7891 51.4176 54.3555 50.5533 54.3555C49.943 54.3555 49.4889 54.043 49.4889 53.5107ZM56.3932 55.0928C57.1256 55.0928 57.7115 54.7461 58.0338 54.1602H58.1119V55H58.9615V47.6465H58.1119V50.5664H58.0338C57.7457 50.0049 57.1158 49.6436 56.3932 49.6436C55.0553 49.6436 54.1862 50.7129 54.1862 52.3633V52.373C54.1862 54.0137 55.0602 55.0928 56.3932 55.0928ZM56.5885 54.3408C55.6266 54.3408 55.0553 53.5986 55.0553 52.373V52.3633C55.0553 51.1377 55.6266 50.3955 56.5885 50.3955C57.5455 50.3955 58.1315 51.1475 58.1315 52.3633V52.373C58.1315 53.5889 57.5455 54.3408 56.5885 54.3408ZM62.7408 55.0928C63.9811 55.0928 64.733 54.3896 64.9137 53.6768L64.9235 53.6377H64.0739L64.0543 53.6816C63.9127 53.999 63.4733 54.3359 62.7604 54.3359C61.8229 54.3359 61.2223 53.7012 61.1979 52.6123H64.9869V52.2803C64.9869 50.708 64.1178 49.6436 62.6871 49.6436C61.2565 49.6436 60.3287 50.7568 60.3287 52.3828V52.3877C60.3287 54.0381 61.2369 55.0928 62.7408 55.0928ZM62.6823 50.4004C63.4586 50.4004 64.0348 50.8936 64.1227 51.9336H61.2125C61.3053 50.9326 61.901 50.4004 62.6823 50.4004ZM69.2252 55H70.1041V52.4854H71.8815C73.2047 52.4854 74.1422 51.5527 74.1422 50.2148V50.2051C74.1422 48.8672 73.2047 47.9541 71.8815 47.9541H69.2252V55ZM71.6569 48.7354C72.6627 48.7354 73.2438 49.2871 73.2438 50.2148V50.2246C73.2438 51.1523 72.6627 51.7041 71.6569 51.7041H70.1041V48.7354H71.6569ZM75.524 55H76.3737V47.6465H75.524V55ZM79.4498 55.0928C80.1578 55.0928 80.7096 54.7852 81.0416 54.2236H81.1198V55H81.9694V51.3965C81.9694 50.3027 81.2516 49.6436 79.9674 49.6436C78.8444 49.6436 78.0436 50.2002 77.9069 51.0254L77.902 51.0547H78.7516L78.7565 51.04C78.8932 50.6299 79.3082 50.3955 79.9381 50.3955C80.7242 50.3955 81.1198 50.7471 81.1198 51.3965V51.875L79.611 51.9678C78.3854 52.041 77.692 52.583 77.692 53.5205V53.5303C77.692 54.4873 78.4489 55.0928 79.4498 55.0928ZM78.5612 53.5107V53.501C78.5612 52.9785 78.9127 52.6953 79.7135 52.6465L81.1198 52.5586V53.0371C81.1198 53.7891 80.4899 54.3555 79.6256 54.3555C79.0153 54.3555 78.5612 54.043 78.5612 53.5107ZM83.5221 55H84.3717V51.8848C84.3717 50.9619 84.9039 50.3955 85.7438 50.3955C86.5836 50.3955 86.9742 50.8496 86.9742 51.7969V55H87.8239V51.5918C87.8239 50.3418 87.1647 49.6436 85.983 49.6436C85.2067 49.6436 84.7135 49.9707 84.4498 50.5273H84.3717V49.7363H83.5221V55Z" fill="#202223"/>
</g>
<defs>
<filter id="filter0_dd_44623_12664" x="0.666626" y="-5" width="117" height="116" filterUnits="userSpaceOnUse" color-interpolation-filters="sRGB">
<feFlood flood-opacity="0" result="BackgroundImageFix"/>
<feColorMatrix in="SourceAlpha" type="matrix" values="0 0 0 0 0 0 0 0 0 0 0 0 0 0 0 0 0 0 127 0" result="hardAlpha"/>
<feOffset/>
<feGaussianBlur stdDeviation="2.5"/>
<feColorMatrix type="matrix" values="0 0 0 0 0 0 0 0 0 0 0 0 0 0 0 0 0 0 0.05 0"/>
<feBlend mode="normal" in2="BackgroundImageFix" result="effect1_dropShadow_44623_12664"/>
<feColorMatrix in="SourceAlpha" type="matrix" values="0 0 0 0 0 0 0 0 0 0 0 0 0 0 0 0 0 0 127 0" result="hardAlpha"/>
<feOffset dy="1"/>
<feGaussianBlur stdDeviation="1"/>
<feColorMatrix type="matrix" values="0 0 0 0 0 0 0 0 0 0 0 0 0 0 0 0 0 0 0.15 0"/>
<feBlend mode="normal" in2="effect1_dropShadow_44623_12664" result="effect2_dropShadow_44623_12664"/>
<feBlend mode="normal" in="SourceGraphic" in2="effect2_dropShadow_44623_12664" result="shape"/>
</filter>
<clipPath id="clip0_44623_12664">
<rect width="10" height="10" fill="white" transform="translate(21.6666 16)"/>
</clipPath>
<clipPath id="clip1_44623_12664">
<rect width="10" height="10" fill="white" transform="translate(51.6666 16)"/>
</clipPath>
<clipPath id="clip2_44623_12664">
<rect width="10" height="10" fill="white" transform="translate(81.6666 16)"/>
</clipPath>
<clipPath id="clip3_44623_12664">
<rect width="10" height="10" fill="white" transform="translate(21.6666 46)"/>
</clipPath>
<clipPath id="clip4_44623_12664">
<rect width="10" height="10" fill="white" transform="translate(51.6666 46)"/>
</clipPath>
<clipPath id="clip5_44623_12664">
<rect width="10" height="10" fill="white" transform="translate(81.6666 46)"/>
</clipPath>
<clipPath id="clip6_44623_12664">
<rect width="10" height="10" fill="white" transform="translate(21.6666 76)"/>
</clipPath>
<clipPath id="clip7_44623_12664">
<rect width="10" height="10" fill="white" transform="translate(51.6666 76)"/>
</clipPath>
<clipPath id="clip8_44623_12664">
<rect width="10" height="10" fill="white" transform="translate(81.6666 76)"/>
</clipPath>
</defs>
</svg>
