<svg width="112" height="116" viewBox="0 0 112 116" fill="none" xmlns="http://www.w3.org/2000/svg">
<g filter="url(#filter0_dd_44623_12177)">
<rect x="5.33301" y="5" width="106.667" height="106" rx="4" fill="white"/>
<path d="M19.9329 61.3001C19.8607 61.3002 19.7892 61.286 19.7224 61.2583C19.6557 61.2307 19.5951 61.1901 19.5441 61.139L16.7941 58.389C16.743 58.3379 16.7024 58.2773 16.6747 58.2106C16.6471 58.1439 16.6328 58.0723 16.6328 58.0001C16.6328 57.9279 16.6471 57.8564 16.6747 57.7896C16.7024 57.7229 16.743 57.6623 16.7941 57.6113L19.5441 54.8613C19.5951 54.8102 19.6558 54.7697 19.7225 54.7421C19.7892 54.7144 19.8607 54.7002 19.9329 54.7002C20.0051 54.7002 20.0766 54.7144 20.1434 54.7421C20.2101 54.7697 20.2707 54.8102 20.3218 54.8613C20.3728 54.9123 20.4133 54.9729 20.441 55.0397C20.4686 55.1064 20.4828 55.1779 20.4828 55.2501C20.4828 55.3223 20.4686 55.3938 20.441 55.4606C20.4133 55.5273 20.3728 55.5879 20.3218 55.639L17.9606 58.0001L20.3218 60.3613C20.3989 60.4381 20.4515 60.5361 20.4729 60.6429C20.4943 60.7496 20.4834 60.8603 20.4418 60.9609C20.4001 61.0615 20.3295 61.1475 20.2389 61.2078C20.1483 61.2682 20.0418 61.3004 19.9329 61.3001Z" fill="#5C5F62"/>
<rect width="26" height="26" transform="translate(28.333 45)" fill="#F6F6F7"/>
<g clip-path="url(#clip0_44623_12177)">
<path d="M45.833 61C45.9656 61 46.0928 60.9473 46.1866 60.8536C46.2803 60.7598 46.333 60.6326 46.333 60.5V53.5C46.333 53.3674 46.2803 53.2402 46.1866 53.1464C46.0928 53.0527 45.9656 53 45.833 53H38.833C38.7004 53 38.5732 53.0527 38.4795 53.1464C38.3857 53.2402 38.333 53.3674 38.333 53.5V60.5C38.333 60.6326 38.3857 60.7598 38.4795 60.8536C38.5732 60.9473 38.7004 61 38.833 61H45.833ZM39.546 60C39.4195 60 39.333 59.9045 39.333 59.802C39.333 59.762 39.346 59.721 39.3745 59.684L40.8975 58.064C40.9386 58.0239 40.9935 58.001 41.0509 58.0002C41.1083 57.9993 41.1638 58.0206 41.206 58.0595L41.9045 58.8L43.216 56.8875C43.2373 56.8596 43.2649 56.8372 43.2966 56.822C43.3282 56.8068 43.363 56.7993 43.398 56.8001C43.4331 56.8009 43.4675 56.8099 43.4984 56.8265C43.5294 56.8431 43.5559 56.8667 43.576 56.8955L45.307 59.7C45.384 59.836 45.281 60 45.1185 60H39.546ZM41.833 55.5C41.833 55.7652 41.7277 56.0196 41.5401 56.2071C41.3526 56.3946 41.0982 56.5 40.833 56.5C40.5678 56.5 40.3134 56.3946 40.1259 56.2071C39.9384 56.0196 39.833 55.7652 39.833 55.5C39.833 55.2348 39.9384 54.9804 40.1259 54.7929C40.3134 54.6054 40.5678 54.5 40.833 54.5C41.0982 54.5 41.3526 54.6054 41.5401 54.7929C41.7277 54.9804 41.833 55.2348 41.833 55.5ZM36.333 55.25C36.333 55.0511 36.412 54.8603 36.5527 54.7197C36.6933 54.579 36.8841 54.5 37.083 54.5H37.333V62H44.833V62.25C44.833 62.4489 44.754 62.6397 44.6133 62.7803C44.4727 62.921 44.2819 63 44.083 63H37.083C36.8841 63 36.6933 62.921 36.5527 62.7803C36.412 62.6397 36.333 62.4489 36.333 62.25V55.25Z" fill="#5C5F62"/>
</g>
<rect width="26" height="26" transform="translate(58.333 45)" fill="#F6F6F7"/>
<g clip-path="url(#clip1_44623_12177)">
<path d="M75.833 61C75.9656 61 76.0928 60.9473 76.1866 60.8536C76.2803 60.7598 76.333 60.6326 76.333 60.5V53.5C76.333 53.3674 76.2803 53.2402 76.1866 53.1464C76.0928 53.0527 75.9656 53 75.833 53H68.833C68.7004 53 68.5732 53.0527 68.4795 53.1464C68.3857 53.2402 68.333 53.3674 68.333 53.5V60.5C68.333 60.6326 68.3857 60.7598 68.4795 60.8536C68.5732 60.9473 68.7004 61 68.833 61H75.833ZM69.546 60C69.4195 60 69.333 59.9045 69.333 59.802C69.333 59.762 69.346 59.721 69.3745 59.684L70.8975 58.064C70.9386 58.0239 70.9935 58.001 71.0509 58.0002C71.1083 57.9993 71.1638 58.0206 71.206 58.0595L71.9045 58.8L73.216 56.8875C73.2373 56.8596 73.2649 56.8372 73.2966 56.822C73.3282 56.8068 73.363 56.7993 73.398 56.8001C73.4331 56.8009 73.4675 56.8099 73.4984 56.8265C73.5294 56.8431 73.5559 56.8667 73.576 56.8955L75.307 59.7C75.384 59.836 75.281 60 75.1185 60H69.546ZM71.833 55.5C71.833 55.7652 71.7277 56.0196 71.5401 56.2071C71.3526 56.3946 71.0982 56.5 70.833 56.5C70.5678 56.5 70.3134 56.3946 70.1259 56.2071C69.9384 56.0196 69.833 55.7652 69.833 55.5C69.833 55.2348 69.9384 54.9804 70.1259 54.7929C70.3134 54.6054 70.5678 54.5 70.833 54.5C71.0982 54.5 71.3526 54.6054 71.5401 54.7929C71.7277 54.9804 71.833 55.2348 71.833 55.5ZM66.333 55.25C66.333 55.0511 66.412 54.8603 66.5527 54.7197C66.6933 54.579 66.8841 54.5 67.083 54.5H67.333V62H74.833V62.25C74.833 62.4489 74.754 62.6397 74.6133 62.7803C74.4727 62.921 74.2819 63 74.083 63H67.083C66.8841 63 66.6933 62.921 66.5527 62.7803C66.412 62.6397 66.333 62.4489 66.333 62.25V55.25Z" fill="#5C5F62"/>
</g>
<path d="M92.7333 61.3001C92.6244 61.3004 92.5179 61.2682 92.4273 61.2078C92.3367 61.1475 92.2661 61.0615 92.2244 60.9609C92.1828 60.8603 92.1719 60.7496 92.1933 60.6429C92.2147 60.5361 92.2673 60.4381 92.3444 60.3613L94.7056 58.0001L92.3444 55.639C92.2934 55.5879 92.2529 55.5273 92.2252 55.4606C92.1976 55.3938 92.1834 55.3223 92.1834 55.2501C92.1834 55.1779 92.1976 55.1064 92.2252 55.0397C92.2529 54.9729 92.2934 54.9123 92.3444 54.8613C92.3955 54.8102 92.4561 54.7697 92.5228 54.7421C92.5896 54.7144 92.6611 54.7002 92.7333 54.7002C92.8055 54.7002 92.877 54.7144 92.9437 54.7421C93.0104 54.7697 93.0711 54.8102 93.1221 54.8613L95.8721 57.6113C95.9233 57.6623 95.9638 57.7229 95.9915 57.7896C96.0191 57.8564 96.0334 57.9279 96.0334 58.0001C96.0334 58.0723 96.0191 58.1439 95.9915 58.2106C95.9638 58.2773 95.9233 58.3379 95.8721 58.389L93.1221 61.139C93.0711 61.1901 93.0105 61.2307 92.9438 61.2583C92.8771 61.286 92.8055 61.3002 92.7333 61.3001Z" fill="#5C5F62"/>
<rect x="5.33301" y="5" width="107" height="106" rx="4" fill="white" fill-opacity="0.8"/>
<rect x="18.333" y="49" width="80" height="18" rx="9" fill="#FFD79D"/>
<path d="M30.1201 62.166C31.8682 62.166 32.9131 61.1113 32.9131 59.5781V54.9541H32.0342V59.5195C32.0342 60.6035 31.3408 61.3555 30.1201 61.3555C28.8994 61.3555 28.1963 60.6035 28.1963 59.5195V54.9541H27.3174V59.5781C27.3174 61.1113 28.3721 62.166 30.1201 62.166ZM34.5928 63.7578H35.4424V61.1699H35.5205C35.8086 61.7314 36.4385 62.0928 37.1611 62.0928C38.499 62.0928 39.3682 61.0234 39.3682 59.373V59.3633C39.3682 57.7227 38.4941 56.6436 37.1611 56.6436C36.4287 56.6436 35.8428 56.9902 35.5205 57.5762H35.4424V56.7363H34.5928V63.7578ZM36.9658 61.3408C36.0088 61.3408 35.4229 60.5889 35.4229 59.373V59.3633C35.4229 58.1475 36.0088 57.3955 36.9658 57.3955C37.9277 57.3955 38.499 58.1377 38.499 59.3633V59.373C38.499 60.5986 37.9277 61.3408 36.9658 61.3408ZM42.8643 63.8555C44.2998 63.8555 45.208 63.1035 45.208 61.9268V56.7363H44.3584V57.6055H44.2998C43.9775 57.0098 43.4014 56.6436 42.6592 56.6436C41.2822 56.6436 40.4326 57.7129 40.4326 59.1875V59.1973C40.4326 60.6719 41.2773 61.7266 42.6396 61.7266C43.3623 61.7266 43.958 61.3994 44.29 60.8184H44.3682V61.8828C44.3682 62.6592 43.8066 63.1035 42.8643 63.1035C42.1074 63.1035 41.6387 62.8203 41.5459 62.4199L41.541 62.415H40.6621L40.6523 62.4199C40.7842 63.2842 41.5947 63.8555 42.8643 63.8555ZM42.8252 60.9746C41.8486 60.9746 41.3018 60.2422 41.3018 59.1973V59.1875C41.3018 58.1426 41.8486 57.3955 42.8252 57.3955C43.7969 57.3955 44.3877 58.1426 44.3877 59.1875V59.1973C44.3877 60.2422 43.8018 60.9746 42.8252 60.9746ZM46.79 62H47.6396V58.7383C47.6396 57.9668 48.2158 57.4541 49.0264 57.4541C49.2119 57.4541 49.373 57.4736 49.5488 57.5029V56.6777C49.4658 56.6631 49.2852 56.6436 49.124 56.6436C48.4111 56.6436 47.918 56.9658 47.7178 57.5176H47.6396V56.7363H46.79V62ZM52.0439 62.0928C52.752 62.0928 53.3037 61.7852 53.6357 61.2236H53.7139V62H54.5635V58.3965C54.5635 57.3027 53.8457 56.6436 52.5615 56.6436C51.4385 56.6436 50.6377 57.2002 50.501 58.0254L50.4961 58.0547H51.3457L51.3506 58.04C51.4873 57.6299 51.9023 57.3955 52.5322 57.3955C53.3184 57.3955 53.7139 57.7471 53.7139 58.3965V58.875L52.2051 58.9678C50.9795 59.041 50.2861 59.583 50.2861 60.5205V60.5303C50.2861 61.4873 51.043 62.0928 52.0439 62.0928ZM51.1553 60.5107V60.501C51.1553 59.9785 51.5068 59.6953 52.3076 59.6465L53.7139 59.5586V60.0371C53.7139 60.7891 53.084 61.3555 52.2197 61.3555C51.6094 61.3555 51.1553 61.043 51.1553 60.5107ZM58.0596 62.0928C58.792 62.0928 59.3779 61.7461 59.7002 61.1602H59.7783V62H60.6279V54.6465H59.7783V57.5664H59.7002C59.4121 57.0049 58.7822 56.6436 58.0596 56.6436C56.7217 56.6436 55.8525 57.7129 55.8525 59.3633V59.373C55.8525 61.0137 56.7266 62.0928 58.0596 62.0928ZM58.2549 61.3408C57.293 61.3408 56.7217 60.5986 56.7217 59.373V59.3633C56.7217 58.1377 57.293 57.3955 58.2549 57.3955C59.2119 57.3955 59.7979 58.1475 59.7979 59.3633V59.373C59.7979 60.5889 59.2119 61.3408 58.2549 61.3408ZM64.4072 62.0928C65.6475 62.0928 66.3994 61.3896 66.5801 60.6768L66.5898 60.6377H65.7402L65.7207 60.6816C65.5791 60.999 65.1396 61.3359 64.4268 61.3359C63.4893 61.3359 62.8887 60.7012 62.8643 59.6123H66.6533V59.2803C66.6533 57.708 65.7842 56.6436 64.3535 56.6436C62.9229 56.6436 61.9951 57.7568 61.9951 59.3828V59.3877C61.9951 61.0381 62.9033 62.0928 64.4072 62.0928ZM64.3486 57.4004C65.125 57.4004 65.7012 57.8936 65.7891 58.9336H62.8789C62.9717 57.9326 63.5674 57.4004 64.3486 57.4004ZM70.8916 62H71.7705V59.4854H73.5479C74.8711 59.4854 75.8086 58.5527 75.8086 57.2148V57.2051C75.8086 55.8672 74.8711 54.9541 73.5479 54.9541H70.8916V62ZM73.3232 55.7354C74.3291 55.7354 74.9102 56.2871 74.9102 57.2148V57.2246C74.9102 58.1523 74.3291 58.7041 73.3232 58.7041H71.7705V55.7354H73.3232ZM77.1904 62H78.04V54.6465H77.1904V62ZM81.1162 62.0928C81.8242 62.0928 82.376 61.7852 82.708 61.2236H82.7861V62H83.6357V58.3965C83.6357 57.3027 82.918 56.6436 81.6338 56.6436C80.5107 56.6436 79.71 57.2002 79.5732 58.0254L79.5684 58.0547H80.418L80.4229 58.04C80.5596 57.6299 80.9746 57.3955 81.6045 57.3955C82.3906 57.3955 82.7861 57.7471 82.7861 58.3965V58.875L81.2773 58.9678C80.0518 59.041 79.3584 59.583 79.3584 60.5205V60.5303C79.3584 61.4873 80.1152 62.0928 81.1162 62.0928ZM80.2275 60.5107V60.501C80.2275 59.9785 80.5791 59.6953 81.3799 59.6465L82.7861 59.5586V60.0371C82.7861 60.7891 82.1562 61.3555 81.292 61.3555C80.6816 61.3555 80.2275 61.043 80.2275 60.5107ZM85.1885 62H86.0381V58.8848C86.0381 57.9619 86.5703 57.3955 87.4102 57.3955C88.25 57.3955 88.6406 57.8496 88.6406 58.7969V62H89.4902V58.5918C89.4902 57.3418 88.8311 56.6436 87.6494 56.6436C86.873 56.6436 86.3799 56.9707 86.1162 57.5273H86.0381V56.7363H85.1885V62Z" fill="#202223"/>
</g>
<defs>
<filter id="filter0_dd_44623_12177" x="0.333008" y="0" width="117" height="116" filterUnits="userSpaceOnUse" color-interpolation-filters="sRGB">
<feFlood flood-opacity="0" result="BackgroundImageFix"/>
<feColorMatrix in="SourceAlpha" type="matrix" values="0 0 0 0 0 0 0 0 0 0 0 0 0 0 0 0 0 0 127 0" result="hardAlpha"/>
<feOffset/>
<feGaussianBlur stdDeviation="2.5"/>
<feColorMatrix type="matrix" values="0 0 0 0 0 0 0 0 0 0 0 0 0 0 0 0 0 0 0.05 0"/>
<feBlend mode="normal" in2="BackgroundImageFix" result="effect1_dropShadow_44623_12177"/>
<feColorMatrix in="SourceAlpha" type="matrix" values="0 0 0 0 0 0 0 0 0 0 0 0 0 0 0 0 0 0 127 0" result="hardAlpha"/>
<feOffset dy="1"/>
<feGaussianBlur stdDeviation="1"/>
<feColorMatrix type="matrix" values="0 0 0 0 0 0 0 0 0 0 0 0 0 0 0 0 0 0 0.15 0"/>
<feBlend mode="normal" in2="effect1_dropShadow_44623_12177" result="effect2_dropShadow_44623_12177"/>
<feBlend mode="normal" in="SourceGraphic" in2="effect2_dropShadow_44623_12177" result="shape"/>
</filter>
<clipPath id="clip0_44623_12177">
<rect width="10" height="10" fill="white" transform="translate(36.333 53)"/>
</clipPath>
<clipPath id="clip1_44623_12177">
<rect width="10" height="10" fill="white" transform="translate(66.333 53)"/>
</clipPath>
</defs>
</svg>
