<svg width="117" height="116" viewBox="0 0 117 116" fill="none" xmlns="http://www.w3.org/2000/svg">
<g filter="url(#filter0_dd_44310_13592)">
<rect width="106.667" height="106" transform="translate(5 5)" fill="white"/>
<g clip-path="url(#clip0_44310_13592)">
<path d="M62.833 37.5C62.9656 37.5 63.0928 37.4473 63.1866 37.3536C63.2803 37.2598 63.333 37.1326 63.333 37V30C63.333 29.8674 63.2803 29.7402 63.1866 29.6464C63.0928 29.5527 62.9656 29.5 62.833 29.5H55.833C55.7004 29.5 55.5732 29.5527 55.4795 29.6464C55.3857 29.7402 55.333 29.8674 55.333 30V37C55.333 37.1326 55.3857 37.2598 55.4795 37.3536C55.5732 37.4473 55.7004 37.5 55.833 37.5H62.833ZM56.546 36.5C56.4195 36.5 56.333 36.4045 56.333 36.302C56.333 36.262 56.346 36.221 56.3745 36.184L57.8975 34.564C57.9386 34.5239 57.9935 34.501 58.0509 34.5002C58.1083 34.4993 58.1638 34.5206 58.206 34.5595L58.9045 35.3L60.216 33.3875C60.2373 33.3596 60.2649 33.3372 60.2966 33.322C60.3282 33.3068 60.363 33.2993 60.398 33.3001C60.4331 33.3009 60.4675 33.3099 60.4984 33.3265C60.5294 33.3431 60.5559 33.3667 60.576 33.3955L62.307 36.2C62.384 36.336 62.281 36.5 62.1185 36.5H56.546V36.5ZM58.833 32C58.833 32.2652 58.7277 32.5196 58.5401 32.7071C58.3526 32.8946 58.0982 33 57.833 33C57.5678 33 57.3134 32.8946 57.1259 32.7071C56.9384 32.5196 56.833 32.2652 56.833 32C56.833 31.7348 56.9384 31.4804 57.1259 31.2929C57.3134 31.1054 57.5678 31 57.833 31C58.0982 31 58.3526 31.1054 58.5401 31.2929C58.7277 31.4804 58.833 31.7348 58.833 32V32ZM53.333 31.75C53.333 31.5511 53.412 31.3603 53.5527 31.2197C53.6933 31.079 53.8841 31 54.083 31H54.333V38.5H61.833V38.75C61.833 38.9489 61.754 39.1397 61.6133 39.2803C61.4727 39.421 61.2819 39.5 61.083 39.5H54.083C53.8841 39.5 53.6933 39.421 53.5527 39.2803C53.412 39.1397 53.333 38.9489 53.333 38.75V31.75Z" fill="#008060"/>
</g>
<rect x="13.5" y="13.5" width="89.6667" height="42" stroke="#C9CCCF"/>
<rect width="90.6667" height="43" transform="translate(13 60)" fill="#F6F6F7"/>
<g clip-path="url(#clip1_44310_13592)">
<path d="M62.833 84.5C62.9656 84.5 63.0928 84.4473 63.1866 84.3536C63.2803 84.2598 63.333 84.1326 63.333 84V77C63.333 76.8674 63.2803 76.7402 63.1866 76.6464C63.0928 76.5527 62.9656 76.5 62.833 76.5H55.833C55.7004 76.5 55.5732 76.5527 55.4795 76.6464C55.3857 76.7402 55.333 76.8674 55.333 77V84C55.333 84.1326 55.3857 84.2598 55.4795 84.3536C55.5732 84.4473 55.7004 84.5 55.833 84.5H62.833ZM56.546 83.5C56.4195 83.5 56.333 83.4045 56.333 83.302C56.333 83.262 56.346 83.221 56.3745 83.184L57.8975 81.564C57.9386 81.5239 57.9935 81.501 58.0509 81.5002C58.1083 81.4993 58.1638 81.5206 58.206 81.5595L58.9045 82.3L60.216 80.3875C60.2373 80.3596 60.2649 80.3372 60.2966 80.322C60.3282 80.3068 60.363 80.2993 60.398 80.3001C60.4331 80.3009 60.4675 80.3099 60.4984 80.3265C60.5294 80.3431 60.5559 80.3667 60.576 80.3955L62.307 83.2C62.384 83.336 62.281 83.5 62.1185 83.5H56.546V83.5ZM58.833 79C58.833 79.2652 58.7277 79.5196 58.5401 79.7071C58.3526 79.8946 58.0982 80 57.833 80C57.5678 80 57.3134 79.8946 57.1259 79.7071C56.9384 79.5196 56.833 79.2652 56.833 79C56.833 78.7348 56.9384 78.4804 57.1259 78.2929C57.3134 78.1054 57.5678 78 57.833 78C58.0982 78 58.3526 78.1054 58.5401 78.2929C58.7277 78.4804 58.833 78.7348 58.833 79V79ZM53.333 78.75C53.333 78.5511 53.412 78.3603 53.5527 78.2197C53.6933 78.079 53.8841 78 54.083 78H54.333V85.5H61.833V85.75C61.833 85.9489 61.754 86.1397 61.6133 86.2803C61.4727 86.421 61.2819 86.5 61.083 86.5H54.083C53.8841 86.5 53.6933 86.421 53.5527 86.2803C53.412 86.1397 53.333 85.9489 53.333 85.75V78.75Z" fill="#5C5F62"/>
</g>
</g>
<defs>
<filter id="filter0_dd_44310_13592" x="0" y="0" width="116.667" height="116" filterUnits="userSpaceOnUse" color-interpolation-filters="sRGB">
<feFlood flood-opacity="0" result="BackgroundImageFix"/>
<feColorMatrix in="SourceAlpha" type="matrix" values="0 0 0 0 0 0 0 0 0 0 0 0 0 0 0 0 0 0 127 0" result="hardAlpha"/>
<feOffset/>
<feGaussianBlur stdDeviation="2.5"/>
<feColorMatrix type="matrix" values="0 0 0 0 0 0 0 0 0 0 0 0 0 0 0 0 0 0 0.05 0"/>
<feBlend mode="normal" in2="BackgroundImageFix" result="effect1_dropShadow_44310_13592"/>
<feColorMatrix in="SourceAlpha" type="matrix" values="0 0 0 0 0 0 0 0 0 0 0 0 0 0 0 0 0 0 127 0" result="hardAlpha"/>
<feOffset dy="1"/>
<feGaussianBlur stdDeviation="1"/>
<feColorMatrix type="matrix" values="0 0 0 0 0 0 0 0 0 0 0 0 0 0 0 0 0 0 0.15 0"/>
<feBlend mode="normal" in2="effect1_dropShadow_44310_13592" result="effect2_dropShadow_44310_13592"/>
<feBlend mode="normal" in="SourceGraphic" in2="effect2_dropShadow_44310_13592" result="shape"/>
</filter>
<clipPath id="clip0_44310_13592">
<rect width="10" height="10" fill="white" transform="translate(53.333 29.5)"/>
</clipPath>
<clipPath id="clip1_44310_13592">
<rect width="10" height="10" fill="white" transform="translate(53.333 76.5)"/>
</clipPath>
</defs>
</svg>
