<svg width="17" height="12" viewBox="0 0 17 12" fill="none" xmlns="http://www.w3.org/2000/svg">
<path d="M16.5947 5.628C16.5037 5.399 14.2777 0 8.66674 0C3.05574 0 0.828737 5.399 0.736737 5.628C0.642767 5.8671 0.642767 6.1329 0.736737 6.372C0.829737 6.601 3.05574 12 8.66674 12C14.2777 12 16.5037 6.601 16.5947 6.372C16.6887 6.1329 16.6887 5.8671 16.5947 5.628ZM8.66674 10C7.60587 10 6.58846 9.57857 5.83831 8.82843C5.08816 8.07828 4.66674 7.06087 4.66674 6C4.66674 4.93913 5.08816 3.92172 5.83831 3.17157C6.58846 2.42143 7.60587 2 8.66674 2C9.7276 2 10.745 2.42143 11.4952 3.17157C12.2453 3.92172 12.6667 4.93913 12.6667 6C12.6667 7.06087 12.2453 8.07828 11.4952 8.82843C10.745 9.57857 9.7276 10 8.66674 10ZM8.66674 4C8.13617 4.00027 7.62744 4.21129 7.25246 4.58664C6.87748 4.96199 6.66697 5.47093 6.66724 6.0015C6.6675 6.53207 6.87852 7.0408 7.25388 7.41577C7.62923 7.79075 8.13817 8.00127 8.66874 8.001C9.1993 8.0006 9.70798 7.78945 10.0829 7.41401C10.4578 7.03856 10.6681 6.52957 10.6677 5.999C10.6673 5.46843 10.4562 4.95976 10.0807 4.58487C9.7053 4.20999 9.1963 3.9996 8.66574 4H8.66674Z" fill="#008060"/>
</svg>
