<svg width="87" height="86" viewBox="0 0 87 86" fill="none" xmlns="http://www.w3.org/2000/svg">
<rect width="26" height="26" transform="translate(0.333008)" fill="#F6F6F7"/>
<g clip-path="url(#clip0_38483_19725)">
<path d="M17.833 16C17.9656 16 18.0928 15.9473 18.1866 15.8536C18.2803 15.7598 18.333 15.6326 18.333 15.5V8.5C18.333 8.36739 18.2803 8.24021 18.1866 8.14645C18.0928 8.05268 17.9656 8 17.833 8H10.833C10.7004 8 10.5732 8.05268 10.4795 8.14645C10.3857 8.24021 10.333 8.36739 10.333 8.5V15.5C10.333 15.6326 10.3857 15.7598 10.4795 15.8536C10.5732 15.9473 10.7004 16 10.833 16H17.833ZM11.546 15C11.4195 15 11.333 14.9045 11.333 14.802C11.333 14.762 11.346 14.721 11.3745 14.684L12.8975 13.064C12.9386 13.0239 12.9935 13.001 13.0509 13.0002C13.1083 12.9993 13.1638 13.0206 13.206 13.0595L13.9045 13.8L15.216 11.8875C15.2373 11.8596 15.2649 11.8372 15.2966 11.822C15.3282 11.8068 15.363 11.7993 15.398 11.8001C15.4331 11.8009 15.4675 11.8099 15.4984 11.8265C15.5294 11.8431 15.5559 11.8667 15.576 11.8955L17.307 14.7C17.384 14.836 17.281 15 17.1185 15H11.546ZM13.833 10.5C13.833 10.7652 13.7277 11.0196 13.5401 11.2071C13.3526 11.3946 13.0982 11.5 12.833 11.5C12.5678 11.5 12.3134 11.3946 12.1259 11.2071C11.9384 11.0196 11.833 10.7652 11.833 10.5C11.833 10.2348 11.9384 9.98043 12.1259 9.79289C12.3134 9.60536 12.5678 9.5 12.833 9.5C13.0982 9.5 13.3526 9.60536 13.5401 9.79289C13.7277 9.98043 13.833 10.2348 13.833 10.5ZM8.33301 10.25C8.33301 10.0511 8.41203 9.86032 8.55268 9.71967C8.69333 9.57902 8.8841 9.5 9.08301 9.5H9.33301V17H16.833V17.25C16.833 17.4489 16.754 17.6397 16.6133 17.7803C16.4727 17.921 16.2819 18 16.083 18H9.08301C8.8841 18 8.69333 17.921 8.55268 17.7803C8.41203 17.6397 8.33301 17.4489 8.33301 17.25V10.25Z" fill="#5C5F62"/>
</g>
<rect width="26" height="26" transform="translate(30.333)" fill="#F6F6F7"/>
<g clip-path="url(#clip1_38483_19725)">
<path d="M47.833 16C47.9656 16 48.0928 15.9473 48.1866 15.8536C48.2803 15.7598 48.333 15.6326 48.333 15.5V8.5C48.333 8.36739 48.2803 8.24021 48.1866 8.14645C48.0928 8.05268 47.9656 8 47.833 8H40.833C40.7004 8 40.5732 8.05268 40.4795 8.14645C40.3857 8.24021 40.333 8.36739 40.333 8.5V15.5C40.333 15.6326 40.3857 15.7598 40.4795 15.8536C40.5732 15.9473 40.7004 16 40.833 16H47.833ZM41.546 15C41.4195 15 41.333 14.9045 41.333 14.802C41.333 14.762 41.346 14.721 41.3745 14.684L42.8975 13.064C42.9386 13.0239 42.9935 13.001 43.0509 13.0002C43.1083 12.9993 43.1638 13.0206 43.206 13.0595L43.9045 13.8L45.216 11.8875C45.2373 11.8596 45.2649 11.8372 45.2966 11.822C45.3282 11.8068 45.363 11.7993 45.398 11.8001C45.4331 11.8009 45.4675 11.8099 45.4984 11.8265C45.5294 11.8431 45.5559 11.8667 45.576 11.8955L47.307 14.7C47.384 14.836 47.281 15 47.1185 15H41.546ZM43.833 10.5C43.833 10.7652 43.7277 11.0196 43.5401 11.2071C43.3526 11.3946 43.0982 11.5 42.833 11.5C42.5678 11.5 42.3134 11.3946 42.1259 11.2071C41.9384 11.0196 41.833 10.7652 41.833 10.5C41.833 10.2348 41.9384 9.98043 42.1259 9.79289C42.3134 9.60536 42.5678 9.5 42.833 9.5C43.0982 9.5 43.3526 9.60536 43.5401 9.79289C43.7277 9.98043 43.833 10.2348 43.833 10.5ZM38.333 10.25C38.333 10.0511 38.412 9.86032 38.5527 9.71967C38.6933 9.57902 38.8841 9.5 39.083 9.5H39.333V17H46.833V17.25C46.833 17.4489 46.754 17.6397 46.6133 17.7803C46.4727 17.921 46.2819 18 46.083 18H39.083C38.8841 18 38.6933 17.921 38.5527 17.7803C38.412 17.6397 38.333 17.4489 38.333 17.25V10.25Z" fill="#5C5F62"/>
</g>
<rect width="26" height="26" transform="translate(60.333)" fill="#F6F6F7"/>
<g clip-path="url(#clip2_38483_19725)">
<path d="M77.833 16C77.9656 16 78.0928 15.9473 78.1866 15.8536C78.2803 15.7598 78.333 15.6326 78.333 15.5V8.5C78.333 8.36739 78.2803 8.24021 78.1866 8.14645C78.0928 8.05268 77.9656 8 77.833 8H70.833C70.7004 8 70.5732 8.05268 70.4795 8.14645C70.3857 8.24021 70.333 8.36739 70.333 8.5V15.5C70.333 15.6326 70.3857 15.7598 70.4795 15.8536C70.5732 15.9473 70.7004 16 70.833 16H77.833ZM71.546 15C71.4195 15 71.333 14.9045 71.333 14.802C71.333 14.762 71.346 14.721 71.3745 14.684L72.8975 13.064C72.9386 13.0239 72.9935 13.001 73.0509 13.0002C73.1083 12.9993 73.1638 13.0206 73.206 13.0595L73.9045 13.8L75.216 11.8875C75.2373 11.8596 75.2649 11.8372 75.2966 11.822C75.3282 11.8068 75.363 11.7993 75.398 11.8001C75.4331 11.8009 75.4675 11.8099 75.4984 11.8265C75.5294 11.8431 75.5559 11.8667 75.576 11.8955L77.307 14.7C77.384 14.836 77.281 15 77.1185 15H71.546ZM73.833 10.5C73.833 10.7652 73.7277 11.0196 73.5401 11.2071C73.3526 11.3946 73.0982 11.5 72.833 11.5C72.5678 11.5 72.3134 11.3946 72.1259 11.2071C71.9384 11.0196 71.833 10.7652 71.833 10.5C71.833 10.2348 71.9384 9.98043 72.1259 9.79289C72.3134 9.60536 72.5678 9.5 72.833 9.5C73.0982 9.5 73.3526 9.60536 73.5401 9.79289C73.7277 9.98043 73.833 10.2348 73.833 10.5ZM68.333 10.25C68.333 10.0511 68.412 9.86032 68.5527 9.71967C68.6933 9.57902 68.8841 9.5 69.083 9.5H69.333V17H76.833V17.25C76.833 17.4489 76.754 17.6397 76.6133 17.7803C76.4727 17.921 76.2819 18 76.083 18H69.083C68.8841 18 68.6933 17.921 68.5527 17.7803C68.412 17.6397 68.333 17.4489 68.333 17.25V10.25Z" fill="#5C5F62"/>
</g>
<rect width="26" height="26" transform="translate(0.333008 30)" fill="#F6F6F7"/>
<g clip-path="url(#clip3_38483_19725)">
<path d="M17.833 46C17.9656 46 18.0928 45.9473 18.1866 45.8536C18.2803 45.7598 18.333 45.6326 18.333 45.5V38.5C18.333 38.3674 18.2803 38.2402 18.1866 38.1464C18.0928 38.0527 17.9656 38 17.833 38H10.833C10.7004 38 10.5732 38.0527 10.4795 38.1464C10.3857 38.2402 10.333 38.3674 10.333 38.5V45.5C10.333 45.6326 10.3857 45.7598 10.4795 45.8536C10.5732 45.9473 10.7004 46 10.833 46H17.833ZM11.546 45C11.4195 45 11.333 44.9045 11.333 44.802C11.333 44.762 11.346 44.721 11.3745 44.684L12.8975 43.064C12.9386 43.0239 12.9935 43.001 13.0509 43.0002C13.1083 42.9993 13.1638 43.0206 13.206 43.0595L13.9045 43.8L15.216 41.8875C15.2373 41.8596 15.2649 41.8372 15.2966 41.822C15.3282 41.8068 15.363 41.7993 15.398 41.8001C15.4331 41.8009 15.4675 41.8099 15.4984 41.8265C15.5294 41.8431 15.5559 41.8667 15.576 41.8955L17.307 44.7C17.384 44.836 17.281 45 17.1185 45H11.546ZM13.833 40.5C13.833 40.7652 13.7277 41.0196 13.5401 41.2071C13.3526 41.3946 13.0982 41.5 12.833 41.5C12.5678 41.5 12.3134 41.3946 12.1259 41.2071C11.9384 41.0196 11.833 40.7652 11.833 40.5C11.833 40.2348 11.9384 39.9804 12.1259 39.7929C12.3134 39.6054 12.5678 39.5 12.833 39.5C13.0982 39.5 13.3526 39.6054 13.5401 39.7929C13.7277 39.9804 13.833 40.2348 13.833 40.5ZM8.33301 40.25C8.33301 40.0511 8.41203 39.8603 8.55268 39.7197C8.69333 39.579 8.8841 39.5 9.08301 39.5H9.33301V47H16.833V47.25C16.833 47.4489 16.754 47.6397 16.6133 47.7803C16.4727 47.921 16.2819 48 16.083 48H9.08301C8.8841 48 8.69333 47.921 8.55268 47.7803C8.41203 47.6397 8.33301 47.4489 8.33301 47.25V40.25Z" fill="#5C5F62"/>
</g>
<rect width="26" height="26" transform="translate(30.333 30)" fill="#F6F6F7"/>
<g clip-path="url(#clip4_38483_19725)">
<path d="M47.833 46C47.9656 46 48.0928 45.9473 48.1866 45.8536C48.2803 45.7598 48.333 45.6326 48.333 45.5V38.5C48.333 38.3674 48.2803 38.2402 48.1866 38.1464C48.0928 38.0527 47.9656 38 47.833 38H40.833C40.7004 38 40.5732 38.0527 40.4795 38.1464C40.3857 38.2402 40.333 38.3674 40.333 38.5V45.5C40.333 45.6326 40.3857 45.7598 40.4795 45.8536C40.5732 45.9473 40.7004 46 40.833 46H47.833ZM41.546 45C41.4195 45 41.333 44.9045 41.333 44.802C41.333 44.762 41.346 44.721 41.3745 44.684L42.8975 43.064C42.9386 43.0239 42.9935 43.001 43.0509 43.0002C43.1083 42.9993 43.1638 43.0206 43.206 43.0595L43.9045 43.8L45.216 41.8875C45.2373 41.8596 45.2649 41.8372 45.2966 41.822C45.3282 41.8068 45.363 41.7993 45.398 41.8001C45.4331 41.8009 45.4675 41.8099 45.4984 41.8265C45.5294 41.8431 45.5559 41.8667 45.576 41.8955L47.307 44.7C47.384 44.836 47.281 45 47.1185 45H41.546ZM43.833 40.5C43.833 40.7652 43.7277 41.0196 43.5401 41.2071C43.3526 41.3946 43.0982 41.5 42.833 41.5C42.5678 41.5 42.3134 41.3946 42.1259 41.2071C41.9384 41.0196 41.833 40.7652 41.833 40.5C41.833 40.2348 41.9384 39.9804 42.1259 39.7929C42.3134 39.6054 42.5678 39.5 42.833 39.5C43.0982 39.5 43.3526 39.6054 43.5401 39.7929C43.7277 39.9804 43.833 40.2348 43.833 40.5ZM38.333 40.25C38.333 40.0511 38.412 39.8603 38.5527 39.7197C38.6933 39.579 38.8841 39.5 39.083 39.5H39.333V47H46.833V47.25C46.833 47.4489 46.754 47.6397 46.6133 47.7803C46.4727 47.921 46.2819 48 46.083 48H39.083C38.8841 48 38.6933 47.921 38.5527 47.7803C38.412 47.6397 38.333 47.4489 38.333 47.25V40.25Z" fill="#5C5F62"/>
</g>
<rect width="26" height="26" transform="translate(60.333 30)" fill="#F6F6F7"/>
<g clip-path="url(#clip5_38483_19725)">
<path d="M77.833 46C77.9656 46 78.0928 45.9473 78.1866 45.8536C78.2803 45.7598 78.333 45.6326 78.333 45.5V38.5C78.333 38.3674 78.2803 38.2402 78.1866 38.1464C78.0928 38.0527 77.9656 38 77.833 38H70.833C70.7004 38 70.5732 38.0527 70.4795 38.1464C70.3857 38.2402 70.333 38.3674 70.333 38.5V45.5C70.333 45.6326 70.3857 45.7598 70.4795 45.8536C70.5732 45.9473 70.7004 46 70.833 46H77.833ZM71.546 45C71.4195 45 71.333 44.9045 71.333 44.802C71.333 44.762 71.346 44.721 71.3745 44.684L72.8975 43.064C72.9386 43.0239 72.9935 43.001 73.0509 43.0002C73.1083 42.9993 73.1638 43.0206 73.206 43.0595L73.9045 43.8L75.216 41.8875C75.2373 41.8596 75.2649 41.8372 75.2966 41.822C75.3282 41.8068 75.363 41.7993 75.398 41.8001C75.4331 41.8009 75.4675 41.8099 75.4984 41.8265C75.5294 41.8431 75.5559 41.8667 75.576 41.8955L77.307 44.7C77.384 44.836 77.281 45 77.1185 45H71.546ZM73.833 40.5C73.833 40.7652 73.7277 41.0196 73.5401 41.2071C73.3526 41.3946 73.0982 41.5 72.833 41.5C72.5678 41.5 72.3134 41.3946 72.1259 41.2071C71.9384 41.0196 71.833 40.7652 71.833 40.5C71.833 40.2348 71.9384 39.9804 72.1259 39.7929C72.3134 39.6054 72.5678 39.5 72.833 39.5C73.0982 39.5 73.3526 39.6054 73.5401 39.7929C73.7277 39.9804 73.833 40.2348 73.833 40.5ZM68.333 40.25C68.333 40.0511 68.412 39.8603 68.5527 39.7197C68.6933 39.579 68.8841 39.5 69.083 39.5H69.333V47H76.833V47.25C76.833 47.4489 76.754 47.6397 76.6133 47.7803C76.4727 47.921 76.2819 48 76.083 48H69.083C68.8841 48 68.6933 47.921 68.5527 47.7803C68.412 47.6397 68.333 47.4489 68.333 47.25V40.25Z" fill="#5C5F62"/>
</g>
<rect width="26" height="26" transform="translate(0.333008 60)" fill="#F6F6F7"/>
<g clip-path="url(#clip6_38483_19725)">
<path d="M17.833 76C17.9656 76 18.0928 75.9473 18.1866 75.8536C18.2803 75.7598 18.333 75.6326 18.333 75.5V68.5C18.333 68.3674 18.2803 68.2402 18.1866 68.1464C18.0928 68.0527 17.9656 68 17.833 68H10.833C10.7004 68 10.5732 68.0527 10.4795 68.1464C10.3857 68.2402 10.333 68.3674 10.333 68.5V75.5C10.333 75.6326 10.3857 75.7598 10.4795 75.8536C10.5732 75.9473 10.7004 76 10.833 76H17.833ZM11.546 75C11.4195 75 11.333 74.9045 11.333 74.802C11.333 74.762 11.346 74.721 11.3745 74.684L12.8975 73.064C12.9386 73.0239 12.9935 73.001 13.0509 73.0002C13.1083 72.9993 13.1638 73.0206 13.206 73.0595L13.9045 73.8L15.216 71.8875C15.2373 71.8596 15.2649 71.8372 15.2966 71.822C15.3282 71.8068 15.363 71.7993 15.398 71.8001C15.4331 71.8009 15.4675 71.8099 15.4984 71.8265C15.5294 71.8431 15.5559 71.8667 15.576 71.8955L17.307 74.7C17.384 74.836 17.281 75 17.1185 75H11.546ZM13.833 70.5C13.833 70.7652 13.7277 71.0196 13.5401 71.2071C13.3526 71.3946 13.0982 71.5 12.833 71.5C12.5678 71.5 12.3134 71.3946 12.1259 71.2071C11.9384 71.0196 11.833 70.7652 11.833 70.5C11.833 70.2348 11.9384 69.9804 12.1259 69.7929C12.3134 69.6054 12.5678 69.5 12.833 69.5C13.0982 69.5 13.3526 69.6054 13.5401 69.7929C13.7277 69.9804 13.833 70.2348 13.833 70.5ZM8.33301 70.25C8.33301 70.0511 8.41203 69.8603 8.55268 69.7197C8.69333 69.579 8.8841 69.5 9.08301 69.5H9.33301V77H16.833V77.25C16.833 77.4489 16.754 77.6397 16.6133 77.7803C16.4727 77.921 16.2819 78 16.083 78H9.08301C8.8841 78 8.69333 77.921 8.55268 77.7803C8.41203 77.6397 8.33301 77.4489 8.33301 77.25V70.25Z" fill="#5C5F62"/>
</g>
<rect width="26" height="26" transform="translate(30.333 60)" fill="#F6F6F7"/>
<g clip-path="url(#clip7_38483_19725)">
<path d="M47.833 76C47.9656 76 48.0928 75.9473 48.1866 75.8536C48.2803 75.7598 48.333 75.6326 48.333 75.5V68.5C48.333 68.3674 48.2803 68.2402 48.1866 68.1464C48.0928 68.0527 47.9656 68 47.833 68H40.833C40.7004 68 40.5732 68.0527 40.4795 68.1464C40.3857 68.2402 40.333 68.3674 40.333 68.5V75.5C40.333 75.6326 40.3857 75.7598 40.4795 75.8536C40.5732 75.9473 40.7004 76 40.833 76H47.833ZM41.546 75C41.4195 75 41.333 74.9045 41.333 74.802C41.333 74.762 41.346 74.721 41.3745 74.684L42.8975 73.064C42.9386 73.0239 42.9935 73.001 43.0509 73.0002C43.1083 72.9993 43.1638 73.0206 43.206 73.0595L43.9045 73.8L45.216 71.8875C45.2373 71.8596 45.2649 71.8372 45.2966 71.822C45.3282 71.8068 45.363 71.7993 45.398 71.8001C45.4331 71.8009 45.4675 71.8099 45.4984 71.8265C45.5294 71.8431 45.5559 71.8667 45.576 71.8955L47.307 74.7C47.384 74.836 47.281 75 47.1185 75H41.546ZM43.833 70.5C43.833 70.7652 43.7277 71.0196 43.5401 71.2071C43.3526 71.3946 43.0982 71.5 42.833 71.5C42.5678 71.5 42.3134 71.3946 42.1259 71.2071C41.9384 71.0196 41.833 70.7652 41.833 70.5C41.833 70.2348 41.9384 69.9804 42.1259 69.7929C42.3134 69.6054 42.5678 69.5 42.833 69.5C43.0982 69.5 43.3526 69.6054 43.5401 69.7929C43.7277 69.9804 43.833 70.2348 43.833 70.5ZM38.333 70.25C38.333 70.0511 38.412 69.8603 38.5527 69.7197C38.6933 69.579 38.8841 69.5 39.083 69.5H39.333V77H46.833V77.25C46.833 77.4489 46.754 77.6397 46.6133 77.7803C46.4727 77.921 46.2819 78 46.083 78H39.083C38.8841 78 38.6933 77.921 38.5527 77.7803C38.412 77.6397 38.333 77.4489 38.333 77.25V70.25Z" fill="#5C5F62"/>
</g>
<rect width="26" height="26" transform="translate(60.333 60)" fill="#F6F6F7"/>
<g clip-path="url(#clip8_38483_19725)">
<path d="M77.833 76C77.9656 76 78.0928 75.9473 78.1866 75.8536C78.2803 75.7598 78.333 75.6326 78.333 75.5V68.5C78.333 68.3674 78.2803 68.2402 78.1866 68.1464C78.0928 68.0527 77.9656 68 77.833 68H70.833C70.7004 68 70.5732 68.0527 70.4795 68.1464C70.3857 68.2402 70.333 68.3674 70.333 68.5V75.5C70.333 75.6326 70.3857 75.7598 70.4795 75.8536C70.5732 75.9473 70.7004 76 70.833 76H77.833ZM71.546 75C71.4195 75 71.333 74.9045 71.333 74.802C71.333 74.762 71.346 74.721 71.3745 74.684L72.8975 73.064C72.9386 73.0239 72.9935 73.001 73.0509 73.0002C73.1083 72.9993 73.1638 73.0206 73.206 73.0595L73.9045 73.8L75.216 71.8875C75.2373 71.8596 75.2649 71.8372 75.2966 71.822C75.3282 71.8068 75.363 71.7993 75.398 71.8001C75.4331 71.8009 75.4675 71.8099 75.4984 71.8265C75.5294 71.8431 75.5559 71.8667 75.576 71.8955L77.307 74.7C77.384 74.836 77.281 75 77.1185 75H71.546ZM73.833 70.5C73.833 70.7652 73.7277 71.0196 73.5401 71.2071C73.3526 71.3946 73.0982 71.5 72.833 71.5C72.5678 71.5 72.3134 71.3946 72.1259 71.2071C71.9384 71.0196 71.833 70.7652 71.833 70.5C71.833 70.2348 71.9384 69.9804 72.1259 69.7929C72.3134 69.6054 72.5678 69.5 72.833 69.5C73.0982 69.5 73.3526 69.6054 73.5401 69.7929C73.7277 69.9804 73.833 70.2348 73.833 70.5ZM68.333 70.25C68.333 70.0511 68.412 69.8603 68.5527 69.7197C68.6933 69.579 68.8841 69.5 69.083 69.5H69.333V77H76.833V77.25C76.833 77.4489 76.754 77.6397 76.6133 77.7803C76.4727 77.921 76.2819 78 76.083 78H69.083C68.8841 78 68.6933 77.921 68.5527 77.7803C68.412 77.6397 68.333 77.4489 68.333 77.25V70.25Z" fill="#5C5F62"/>
</g>
<defs>
<clipPath id="clip0_38483_19725">
<rect width="10" height="10" fill="white" transform="translate(8.33301 8)"/>
</clipPath>
<clipPath id="clip1_38483_19725">
<rect width="10" height="10" fill="white" transform="translate(38.333 8)"/>
</clipPath>
<clipPath id="clip2_38483_19725">
<rect width="10" height="10" fill="white" transform="translate(68.333 8)"/>
</clipPath>
<clipPath id="clip3_38483_19725">
<rect width="10" height="10" fill="white" transform="translate(8.33301 38)"/>
</clipPath>
<clipPath id="clip4_38483_19725">
<rect width="10" height="10" fill="white" transform="translate(38.333 38)"/>
</clipPath>
<clipPath id="clip5_38483_19725">
<rect width="10" height="10" fill="white" transform="translate(68.333 38)"/>
</clipPath>
<clipPath id="clip6_38483_19725">
<rect width="10" height="10" fill="white" transform="translate(8.33301 68)"/>
</clipPath>
<clipPath id="clip7_38483_19725">
<rect width="10" height="10" fill="white" transform="translate(38.333 68)"/>
</clipPath>
<clipPath id="clip8_38483_19725">
<rect width="10" height="10" fill="white" transform="translate(68.333 68)"/>
</clipPath>
</defs>
</svg>
