<svg width="47" height="44" viewBox="0 0 47 44" fill="none" xmlns="http://www.w3.org/2000/svg">
<path d="M36.6666 24.3998C36.6666 25.0363 36.9195 25.6467 37.3696 26.0968C37.8196 26.5469 38.4301 26.7998 39.0666 26.7998C39.7031 26.7998 40.3136 26.5469 40.7637 26.0968C41.2138 25.6467 41.4666 25.0363 41.4666 24.3998V21.9998H43.8666C44.5031 21.9998 45.1136 21.7469 45.5637 21.2968C46.0138 20.8467 46.2666 20.2363 46.2666 19.5998C46.2666 18.9632 46.0138 18.3528 45.5637 17.9027C45.1136 17.4526 44.5031 17.1998 43.8666 17.1998H41.4666V14.7998C41.4666 14.1632 41.2138 13.5528 40.7637 13.1027C40.3136 12.6526 39.7031 12.3998 39.0666 12.3998C38.4301 12.3998 37.8196 12.6526 37.3696 13.1027C36.9195 13.5528 36.6666 14.1632 36.6666 14.7998V17.1998H34.2666C33.6301 17.1998 33.0196 17.4526 32.5696 17.9027C32.1195 18.3528 31.8666 18.9632 31.8666 19.5998C31.8666 20.2363 32.1195 20.8467 32.5696 21.2968C33.0196 21.7469 33.6301 21.9998 34.2666 21.9998H36.6666V24.3998ZM30.3378 10.5278C30.3585 11.8707 30.1118 13.2044 29.6122 14.4512C29.1126 15.698 28.3699 16.8329 27.4275 17.7899C26.4851 18.7469 25.3617 19.507 24.1228 20.0257C22.8839 20.5445 21.5542 20.8117 20.211 20.8117C18.8679 20.8117 17.5381 20.5445 16.2992 20.0257C15.0603 19.507 13.9369 18.7469 12.9945 17.7899C12.0521 16.8329 11.3095 15.698 10.8098 14.4512C10.3102 13.2044 10.0635 11.8707 10.0842 10.5278C10.1251 7.86897 11.2101 5.33292 13.1048 3.46718C14.9995 1.60143 17.5519 0.555664 20.211 0.555664C22.8701 0.555664 25.4226 1.60143 27.3173 3.46718C29.212 5.33292 30.2969 7.86897 30.3378 10.5278ZM2.27462 32.7254C5.59862 30.1094 12.213 25.8782 20.2122 25.8782C28.209 25.8782 34.8258 30.1118 38.1498 32.7254C39.633 33.8918 40.0938 35.8646 39.5106 37.6598L38.7114 40.1078C38.3797 41.1236 37.7351 42.0085 36.8699 42.6357C36.0047 43.2629 34.9633 43.6004 33.8946 43.5998H6.52501C5.4572 43.5994 4.41683 43.2614 3.55259 42.6343C2.68836 42.0071 2.04449 41.1228 1.71302 40.1078L0.913816 37.6598C0.325816 35.8646 0.789016 33.8918 2.27462 32.7254Z" fill="#CCE5DF"/>
</svg>
