<svg width="100" height="101" viewBox="0 0 100 101" fill="none" xmlns="http://www.w3.org/2000/svg">
<path fill-rule="evenodd" clip-rule="evenodd" d="M31.1041 4.94199C35.9916 4.71699 37.55 4.66699 50 4.66699C62.45 4.66699 64.0083 4.72116 68.8916 4.94199C73.775 5.16283 77.1083 5.94199 80.025 7.07116C83.0791 8.22533 85.85 10.0295 88.1416 12.3628C90.475 14.6503 92.275 17.417 93.425 20.4753C94.5583 23.392 95.3333 26.7253 95.5583 31.6003C95.7833 36.4962 95.8333 38.0545 95.8333 50.5003C95.8333 62.9503 95.7791 64.5087 95.5583 69.3962C95.3375 74.2712 94.5583 77.6045 93.425 80.5212C92.2749 83.5799 90.472 86.3512 88.1416 88.642C85.85 90.9753 83.0791 92.7753 80.025 93.9253C77.1083 95.0587 73.775 95.8337 68.9 96.0587C64.0083 96.2837 62.45 96.3337 50 96.3337C37.55 96.3337 35.9916 96.2795 31.1041 96.0587C26.2291 95.8378 22.8958 95.0587 19.9791 93.9253C16.9205 92.7752 14.1492 90.9722 11.8583 88.642C9.52654 86.3531 7.7221 83.5832 6.57079 80.5253C5.44163 77.6087 4.66663 74.2753 4.44163 69.4003C4.21663 64.5045 4.16663 62.9462 4.16663 50.5003C4.16663 38.0503 4.22079 36.492 4.44163 31.6087C4.66246 26.7253 5.44163 23.392 6.57079 20.4753C7.7238 17.4173 9.52962 14.6475 11.8625 12.3587C14.1501 10.0274 16.9186 8.22301 19.975 7.07116C22.8916 5.94199 26.225 5.16699 31.1 4.94199H31.1041ZM68.5208 13.192C63.6875 12.9712 62.2375 12.9253 50 12.9253C37.7625 12.9253 36.3125 12.9712 31.4791 13.192C27.0083 13.3962 24.5833 14.142 22.9666 14.7712C20.8291 15.6045 19.3 16.592 17.6958 18.1962C16.1751 19.6755 15.0049 21.4765 14.2708 23.467C13.6416 25.0837 12.8958 27.5087 12.6916 31.9795C12.4708 36.8128 12.425 38.2628 12.425 50.5003C12.425 62.7378 12.4708 64.1878 12.6916 69.0212C12.8958 73.492 13.6416 75.917 14.2708 77.5337C15.0041 79.5212 16.175 81.3253 17.6958 82.8045C19.175 84.3253 20.9791 85.4962 22.9666 86.2295C24.5833 86.8587 27.0083 87.6045 31.4791 87.8087C36.3125 88.0295 37.7583 88.0753 50 88.0753C62.2416 88.0753 63.6875 88.0295 68.5208 87.8087C72.9916 87.6045 75.4166 86.8587 77.0333 86.2295C79.1708 85.3962 80.7 84.4087 82.3041 82.8045C83.825 81.3253 84.9958 79.5212 85.7291 77.5337C86.3583 75.917 87.1041 73.492 87.3083 69.0212C87.5291 64.1878 87.575 62.7378 87.575 50.5003C87.575 38.2628 87.5291 36.8128 87.3083 31.9795C87.1041 27.5087 86.3583 25.0837 85.7291 23.467C84.8958 21.3295 83.9083 19.8003 82.3041 18.1962C80.8247 16.6756 79.0237 15.5054 77.0333 14.7712C75.4166 14.142 72.9916 13.3962 68.5208 13.192V13.192ZM44.1458 64.6295C47.4152 65.9905 51.0557 66.1741 54.4455 65.1492C57.8353 64.1242 60.7641 61.9541 62.7317 59.0097C64.6992 56.0652 65.5835 52.529 65.2335 49.0049C64.8835 45.4809 63.3208 42.1877 60.8125 39.6878C59.2134 38.0898 57.28 36.8662 55.1513 36.1051C53.0227 35.344 50.7517 35.0643 48.502 35.2862C46.2523 35.5081 44.0798 36.2261 42.1408 37.3884C40.2019 38.5507 38.5447 40.1284 37.2887 42.008C36.0327 43.8876 35.2091 46.0224 34.8771 48.2585C34.5451 50.4946 34.7131 52.7765 35.3689 54.94C36.0247 57.1034 37.152 59.0945 38.6696 60.77C40.1873 62.4455 42.0576 63.7636 44.1458 64.6295ZM33.3416 33.842C35.5292 31.6544 38.1263 29.9191 40.9845 28.7352C43.8428 27.5512 46.9062 26.9419 50 26.9419C53.0937 26.9419 56.1571 27.5512 59.0154 28.7352C61.8736 29.9191 64.4707 31.6544 66.6583 33.842C68.8459 36.0296 70.5812 38.6267 71.7651 41.4849C72.949 44.3431 73.5584 47.4066 73.5584 50.5003C73.5584 53.5941 72.949 56.6575 71.7651 59.5157C70.5812 62.374 68.8459 64.9711 66.6583 67.1587C62.2402 71.5767 56.248 74.0588 50 74.0588C43.7519 74.0588 37.7597 71.5767 33.3416 67.1587C28.9236 62.7406 26.4415 56.7484 26.4415 50.5003C26.4415 44.2522 28.9236 38.2601 33.3416 33.842V33.842ZM78.7833 30.4503C79.3254 29.9389 79.7594 29.324 80.0596 28.6419C80.3597 27.9598 80.52 27.2244 80.5309 26.4792C80.5417 25.734 80.403 24.9943 80.1228 24.3037C79.8426 23.6131 79.4268 22.9858 78.8998 22.4588C78.3728 21.9319 77.7455 21.516 77.0549 21.2358C76.3643 20.9556 75.6246 20.8169 74.8794 20.8278C74.1343 20.8386 73.3988 20.9989 72.7167 21.2991C72.0346 21.5992 71.4197 22.0332 70.9083 22.5753C69.9137 23.6296 69.3693 25.03 69.3904 26.4792C69.4115 27.9284 69.9966 29.3123 71.0214 30.3372C72.0463 31.362 73.4302 31.9471 74.8794 31.9682C76.3286 31.9894 77.729 31.4449 78.7833 30.4503V30.4503Z" fill="url(#paint0_radial_43932_14264)"/>
<defs>
<radialGradient id="paint0_radial_43932_14264" cx="0" cy="0" r="1" gradientUnits="userSpaceOnUse" gradientTransform="translate(28.5157 103.394) rotate(-90) scale(90.8484 84.4962)">
<stop stop-color="#FFDD55"/>
<stop offset="0.1" stop-color="#FFDD55"/>
<stop offset="0.5" stop-color="#FF543E"/>
<stop offset="1" stop-color="#C837AB"/>
</radialGradient>
</defs>
</svg>
