<svg width="89" height="101" viewBox="0 0 89 101" fill="none" xmlns="http://www.w3.org/2000/svg">
<path d="M65.5852 36.5979C72.042 41.2112 79.952 43.9255 88.4951 43.9255V27.4944C86.8783 27.4947 85.2657 27.3262 83.6839 26.9912V39.9249C75.1414 39.9249 67.2325 37.2106 60.7739 32.5977V66.1288C60.7739 82.9028 47.169 96.4998 30.3875 96.4998C24.1259 96.4998 18.306 94.6078 13.4714 91.3629C18.9893 97.0019 26.6844 100.5 35.1977 100.5C51.9803 100.5 65.5859 86.903 65.5859 70.1284V36.5979H65.5852ZM71.5204 20.021C68.2206 16.4178 66.054 11.7613 65.5852 6.61339V4.5H61.0258C62.1735 11.043 66.088 16.633 71.5204 20.021ZM24.0858 78.491C22.2421 76.0749 21.2458 73.1193 21.2503 70.0803C21.2503 62.4086 27.4731 56.1882 35.1503 56.1882C36.5811 56.1878 38.0033 56.4068 39.3668 56.8392V40.0409C37.7734 39.8226 36.1652 39.7299 34.5576 39.7639V52.8389C33.1931 52.4065 31.7702 52.1869 30.3391 52.1882C22.6618 52.1882 16.4394 58.408 16.4394 66.0808C16.4394 71.506 19.5498 76.2029 24.0858 78.491Z" fill="#FF004F"/>
<path d="M60.7738 32.5973C67.2324 37.2102 75.1413 39.9245 83.6837 39.9245V26.9909C78.9154 25.9757 74.6941 23.4852 71.5202 20.021C66.0875 16.6326 62.1733 11.0427 61.0257 4.5H49.0496V70.1277C49.0225 77.7785 42.8103 83.9735 35.1495 83.9735C30.6351 83.9735 26.6246 81.8227 24.0846 78.491C19.5489 76.2029 16.4386 71.5056 16.4386 66.0811C16.4386 58.409 22.661 52.1886 30.3383 52.1886C31.8092 52.1886 33.2269 52.4175 34.5568 52.8393V39.7643C18.0701 40.1047 4.81079 53.5689 4.81079 70.128C4.81079 78.3942 8.11267 85.8879 13.4716 91.3632C18.3062 94.6078 24.1261 96.5001 30.3877 96.5001C47.1696 96.5001 60.7741 82.9024 60.7741 66.1288V32.5973H60.7738Z" fill="black"/>
<path d="M83.6838 26.9908V23.4937C79.384 23.5002 75.1685 22.2966 71.5203 20.0206C74.7498 23.5544 79.0023 25.9911 83.6838 26.9908ZM61.0258 4.49993C60.9163 3.87463 60.8322 3.24521 60.7739 2.61339V0.5H44.2381V66.1284C44.2117 73.7782 37.9999 79.9732 30.3384 79.9732C28.0891 79.9732 25.9654 79.4395 24.0847 78.4913C26.6247 81.8227 30.6353 83.9731 35.1496 83.9731C42.8097 83.9731 49.0229 77.7788 49.0497 70.128V4.49993H61.0258ZM34.5576 39.7642V36.0412C33.1759 35.8525 31.7829 35.7577 30.3882 35.7584C13.6049 35.7581 0 49.3558 0 66.1284C0 76.6439 5.34697 85.9111 13.4721 91.3624C8.11312 85.8875 4.81124 78.3935 4.81124 70.1276C4.81124 53.5688 18.0702 40.1046 34.5576 39.7642Z" fill="#00F2EA"/>
</svg>
