<svg width="18" height="20" viewBox="0 0 18 20" fill="none" xmlns="http://www.w3.org/2000/svg">
<path d="M2.24907 2.00132H16.1171C16.2056 2.00138 16.2925 2.02493 16.369 2.06959C16.4454 2.11424 16.5086 2.17839 16.5522 2.25548C16.5957 2.33258 16.618 2.41984 16.6167 2.50836C16.6155 2.59689 16.5908 2.68349 16.5451 2.75932L14.0001 7.00032L17.3501 11.1883C17.4088 11.2618 17.4456 11.3504 17.4562 11.4439C17.4668 11.5374 17.4508 11.632 17.4101 11.7168C17.3693 11.8016 17.3055 11.8732 17.2259 11.9234C17.1463 11.9735 17.0542 12.0002 16.9601 12.0003L4.47007 12.0013L5.97707 18.7833C6.00557 18.9116 6.00852 19.0442 5.98578 19.1735C5.96303 19.3029 5.91503 19.4265 5.8445 19.5374C5.77397 19.6482 5.68231 19.744 5.57474 19.8195C5.46717 19.8949 5.3458 19.9483 5.21757 19.9768C5.08933 20.0053 4.95674 20.0083 4.82736 19.9855C4.69798 19.9628 4.57435 19.9148 4.46352 19.8443C4.35269 19.7737 4.25684 19.6821 4.18144 19.5745C4.10604 19.4669 4.05257 19.3456 4.02407 19.2173L0.0240684 1.21732C-0.0334836 0.95834 0.0142025 0.687101 0.156636 0.463277C0.29907 0.239452 0.524584 0.0813762 0.783568 0.0238242C1.04255 -0.0337278 1.31379 0.0139584 1.53762 0.156392C1.76144 0.298826 1.91952 0.52434 1.97707 0.783324L2.24907 2.00132Z" fill="#008060"/>
</svg>
