<svg width="36" height="37" viewBox="0 0 36 37" fill="none" xmlns="http://www.w3.org/2000/svg">
<g filter="url(#filter0_d_43682_23186)">
<rect width="36" height="36" rx="4" fill="white"/>
<g clip-path="url(#clip0_43682_23186)">
<path d="M17.8771 10.0901C15.7554 10.0901 13.7206 10.933 12.2203 12.4333C10.72 13.9335 9.87712 15.9684 9.87712 18.0901C9.87712 20.2118 10.72 22.2467 12.2203 23.747C13.7206 25.2473 15.7554 26.0901 17.8771 26.0901C19.9988 26.0901 22.0337 25.2473 23.534 23.747C25.0343 22.2467 25.8771 20.2118 25.8771 18.0901C25.8771 15.9684 25.0343 13.9335 23.534 12.4333C22.0337 10.933 19.9988 10.0901 17.8771 10.0901ZM10.8061 11.0191C11.7303 10.0712 12.8335 9.31622 14.0518 8.79799C15.27 8.27976 16.579 8.00859 17.9029 8.0002C19.2267 7.99181 20.5391 8.24638 21.7638 8.74913C22.9885 9.25188 24.1012 9.99281 25.0373 10.9289C25.9734 11.8651 26.7144 12.9777 27.2171 14.2025C27.7199 15.4272 27.9744 16.7395 27.966 18.0634C27.9576 19.3872 27.6865 20.6962 27.1682 21.9145C26.65 23.1327 25.895 24.2359 24.9471 25.1601C23.0611 26.9817 20.5351 27.9896 17.9131 27.9668C15.2911 27.9441 12.783 26.8924 10.9289 25.0383C9.07485 23.1842 8.02316 20.6761 8.00038 18.0541C7.97759 15.4322 8.98554 12.9061 10.8071 11.0201L10.8061 11.0191Z" fill="#008060"/>
<path d="M18.821 20.503H16.685V19.361C16.695 17.395 17.177 17.107 18.059 16.579C18.152 16.523 18.249 16.465 18.352 16.401C19.082 15.942 19.644 15.363 19.644 14.518C19.644 13.57 18.901 12.954 17.978 12.954C17.126 12.954 16.321 13.352 16.266 14.487H14C14.06 12.193 15.877 11 17.99 11C20.296 11 21.884 12.447 21.884 14.488C21.884 15.87 21.189 16.776 20.078 17.44L19.841 17.584C19.051 18.059 18.832 18.191 18.821 19.361V20.503ZM18.991 22.515C18.9869 22.8657 18.8457 23.201 18.5978 23.4491C18.3499 23.6972 18.0147 23.8386 17.664 23.843C17.4452 23.8449 17.2293 23.7923 17.0358 23.69C16.8424 23.5877 16.6774 23.4389 16.5557 23.257C16.434 23.0752 16.3594 22.8659 16.3387 22.648C16.318 22.4302 16.3518 22.2106 16.437 22.009C16.5379 21.7674 16.7085 21.5613 16.9271 21.417C17.1456 21.2727 17.4022 21.1969 17.664 21.199C18.376 21.199 18.986 21.791 18.992 22.515H18.991Z" fill="#008060"/>
</g>
<rect x="0.5" y="0.5" width="35" height="35" rx="3.5" stroke="#BABFC3"/>
</g>
<defs>
<filter id="filter0_d_43682_23186" x="0" y="0" width="36" height="37" filterUnits="userSpaceOnUse" color-interpolation-filters="sRGB">
<feFlood flood-opacity="0" result="BackgroundImageFix"/>
<feColorMatrix in="SourceAlpha" type="matrix" values="0 0 0 0 0 0 0 0 0 0 0 0 0 0 0 0 0 0 127 0" result="hardAlpha"/>
<feOffset dy="1"/>
<feComposite in2="hardAlpha" operator="out"/>
<feColorMatrix type="matrix" values="0 0 0 0 0 0 0 0 0 0 0 0 0 0 0 0 0 0 0.05 0"/>
<feBlend mode="normal" in2="BackgroundImageFix" result="effect1_dropShadow_43682_23186"/>
<feBlend mode="normal" in="SourceGraphic" in2="effect1_dropShadow_43682_23186" result="shape"/>
</filter>
<clipPath id="clip0_43682_23186">
<rect width="20" height="20" fill="white" transform="translate(8 8)"/>
</clipPath>
</defs>
</svg>
