<svg width="59" height="57" viewBox="0 0 59 57" fill="none" xmlns="http://www.w3.org/2000/svg">
<rect x="0.5" y="0.5" width="58" height="56" rx="12.5" stroke="#D9D9D9"/>
<path d="M36.8211 22.562C36.6692 22.4834 36.5213 22.3973 36.3781 22.304C35.9617 22.0287 35.58 21.7044 35.2411 21.338C34.3921 20.367 34.0751 19.382 33.9591 18.693H33.9631C33.8661 18.12 33.9061 17.75 33.9131 17.75H30.0481V32.693C30.0481 32.893 30.0481 33.092 30.0401 33.288C30.0401 33.312 30.0371 33.334 30.0361 33.361C30.0361 33.371 30.0361 33.383 30.0331 33.394V33.403C29.9925 33.939 29.8208 34.4568 29.5331 34.9109C29.2453 35.365 28.8504 35.7414 28.3831 36.007C27.8955 36.2844 27.344 36.4298 26.7831 36.429C24.9831 36.429 23.5231 34.961 23.5231 33.148C23.5231 31.334 24.9831 29.866 26.7831 29.866C27.1241 29.866 27.4631 29.92 27.7871 30.026L27.7921 26.09C26.8081 25.9631 25.8085 26.0415 24.8563 26.3203C23.9042 26.5991 23.0201 27.0723 22.2601 27.71C21.5939 28.2885 21.0339 28.9789 20.6051 29.75C20.4421 30.031 19.8261 31.162 19.7521 32.996C19.7051 34.036 20.0181 35.116 20.1671 35.561V35.571C20.2601 35.833 20.6241 36.729 21.2161 37.484C21.6935 38.09 22.2575 38.6224 22.8901 39.064V39.054L22.8991 39.064C24.7691 40.334 26.8441 40.251 26.8441 40.251C27.2031 40.236 28.4061 40.251 29.7721 39.604C31.2871 38.886 32.1491 37.817 32.1491 37.817C32.7002 37.1781 33.1385 36.45 33.4451 35.664C33.7951 34.744 33.9111 33.642 33.9111 33.202V25.273C33.9581 25.301 34.5831 25.714 34.5831 25.714C34.5831 25.714 35.4831 26.291 36.8861 26.666C37.8921 26.933 39.2491 26.99 39.2491 26.99V23.153C38.7741 23.205 37.8091 23.055 36.8201 22.563L36.8211 22.562Z" fill="black"/>
</svg>
