<svg width="59" height="57" viewBox="0 0 59 57" fill="none" xmlns="http://www.w3.org/2000/svg">
<rect x="0.5" y="0.5" width="58" height="56" rx="12.5" stroke="#0089EF"/>
<path fill-rule="evenodd" clip-rule="evenodd" d="M24.465 17.066C25.638 17.012 26.012 17 29 17C31.988 17 32.362 17.013 33.534 17.066C34.706 17.119 35.506 17.306 36.206 17.577C36.939 17.854 37.604 18.287 38.154 18.847C38.714 19.396 39.146 20.06 39.422 20.794C39.694 21.494 39.88 22.294 39.934 23.464C39.988 24.639 40 25.013 40 28C40 30.988 39.987 31.362 39.934 32.535C39.881 33.705 39.694 34.505 39.422 35.205C39.146 35.9391 38.7133 36.6042 38.154 37.154C37.604 37.714 36.939 38.146 36.206 38.422C35.506 38.694 34.706 38.88 33.536 38.934C32.362 38.988 31.988 39 29 39C26.012 39 25.638 38.987 24.465 38.934C23.295 38.881 22.495 38.694 21.795 38.422C21.0609 38.146 20.3958 37.7133 19.846 37.154C19.2864 36.6047 18.8533 35.9399 18.577 35.206C18.306 34.506 18.12 33.706 18.066 32.536C18.012 31.361 18 30.987 18 28C18 25.012 18.013 24.638 18.066 23.466C18.119 22.294 18.306 21.494 18.577 20.794C18.8537 20.0601 19.2871 19.3953 19.847 18.846C20.396 18.2865 21.0605 17.8534 21.794 17.577C22.494 17.306 23.294 17.12 24.464 17.066H24.465ZM33.445 19.046C32.285 18.993 31.937 18.982 29 18.982C26.063 18.982 25.715 18.993 24.555 19.046C23.482 19.095 22.9 19.274 22.512 19.425C21.999 19.625 21.632 19.862 21.247 20.247C20.882 20.6021 20.6012 21.0343 20.425 21.512C20.274 21.9 20.095 22.482 20.046 23.555C19.993 24.715 19.982 25.063 19.982 28C19.982 30.937 19.993 31.285 20.046 32.445C20.095 33.518 20.274 34.1 20.425 34.488C20.601 34.965 20.882 35.398 21.247 35.753C21.602 36.118 22.035 36.399 22.512 36.575C22.9 36.726 23.482 36.905 24.555 36.954C25.715 37.007 26.062 37.018 29 37.018C31.938 37.018 32.285 37.007 33.445 36.954C34.518 36.905 35.1 36.726 35.488 36.575C36.001 36.375 36.368 36.138 36.753 35.753C37.118 35.398 37.399 34.965 37.575 34.488C37.726 34.1 37.905 33.518 37.954 32.445C38.007 31.285 38.018 30.937 38.018 28C38.018 25.063 38.007 24.715 37.954 23.555C37.905 22.482 37.726 21.9 37.575 21.512C37.375 20.999 37.138 20.632 36.753 20.247C36.3979 19.8821 35.9657 19.6012 35.488 19.425C35.1 19.274 34.518 19.095 33.445 19.046V19.046ZM27.595 31.391C28.3797 31.7176 29.2534 31.7617 30.0669 31.5157C30.8805 31.2697 31.5834 30.7489 32.0556 30.0422C32.5278 29.3356 32.7401 28.4869 32.656 27.6411C32.572 26.7953 32.197 26.005 31.595 25.405C31.2112 25.0215 30.7472 24.7278 30.2363 24.5451C29.7255 24.3625 29.1804 24.2954 28.6405 24.3486C28.1006 24.4019 27.5792 24.5742 27.1138 24.8531C26.6485 25.1321 26.2507 25.5107 25.9493 25.9619C25.6479 26.413 25.4502 26.9253 25.3705 27.462C25.2908 27.9986 25.3312 28.5463 25.4885 29.0655C25.6459 29.5847 25.9165 30.0626 26.2807 30.4647C26.645 30.8668 27.0938 31.1832 27.595 31.391ZM25.002 24.002C25.527 23.477 26.1503 23.0605 26.8363 22.7764C27.5223 22.4922 28.2575 22.346 29 22.346C29.7425 22.346 30.4777 22.4922 31.1637 22.7764C31.8497 23.0605 32.473 23.477 32.998 24.002C33.523 24.527 33.9395 25.1503 34.2236 25.8363C34.5078 26.5223 34.654 27.2575 34.654 28C34.654 28.7425 34.5078 29.4777 34.2236 30.1637C33.9395 30.8497 33.523 31.473 32.998 31.998C31.9377 33.0583 30.4995 33.654 29 33.654C27.5005 33.654 26.0623 33.0583 25.002 31.998C23.9417 30.9377 23.346 29.4995 23.346 28C23.346 26.5005 23.9417 25.0623 25.002 24.002V24.002ZM35.908 23.188C36.0381 23.0653 36.1423 22.9177 36.2143 22.754C36.2863 22.5903 36.3248 22.4138 36.3274 22.2349C36.33 22.0561 36.2967 21.8785 36.2295 21.7128C36.1622 21.5471 36.0624 21.3965 35.936 21.27C35.8095 21.1436 35.6589 21.0438 35.4932 20.9765C35.3275 20.9093 35.1499 20.876 34.9711 20.8786C34.7922 20.8812 34.6157 20.9197 34.452 20.9917C34.2883 21.0637 34.1407 21.1679 34.018 21.298C33.7793 21.551 33.6486 21.8871 33.6537 22.2349C33.6588 22.5827 33.7992 22.9149 34.0452 23.1608C34.2911 23.4068 34.6233 23.5472 34.9711 23.5523C35.3189 23.5574 35.655 23.4267 35.908 23.188V23.188Z" fill="#0089EF"/>
</svg>
