<svg width="80" height="80" viewBox="0 0 80 80" fill="none" xmlns="http://www.w3.org/2000/svg">
<g filter="url(#filter0_d_87_4006)">
<rect x="20" y="20" width="40" height="40" rx="8" fill="white" shape-rendering="crispEdges"/>
<path fill-rule="evenodd" clip-rule="evenodd" d="M39.8182 30C34.4045 30 30 34.4045 30 39.8182C30 45.2319 34.4045 49.6364 39.8182 49.6364C45.2319 49.6364 49.6364 45.2319 49.6364 39.8182C49.6364 34.4045 45.2319 30 39.8182 30ZM39.8182 31.4727C44.436 31.4727 48.1636 35.2004 48.1636 39.8182C48.1636 44.436 44.436 48.1636 39.8182 48.1636C35.2004 48.1636 31.4727 44.436 31.4727 39.8182C31.4727 35.2004 35.2004 31.4727 39.8182 31.4727ZM39.8182 34.4182C38.2002 34.4182 36.8727 35.7457 36.8727 37.3636V37.6091C36.869 37.8747 37.1004 38.357 37.6661 38.357C38.2318 38.357 38.2318 37.8747 38.2281 37.6091V37.3636C38.2281 36.5418 38.7944 35.8909 39.8182 35.8909C40.842 35.8909 41.2909 36.8196 41.2909 37.3636C41.2909 38.0614 41.0022 38.6806 40.4683 39.0684C40.1015 39.3348 39.9495 39.4324 39.6561 39.8321C39.3627 40.2318 39.1681 40.789 39.1681 41.4573C39.1643 41.7228 39.2176 42.0489 39.447 42.1828C39.6763 42.3167 39.9661 42.3115 40.1015 42.2697C40.2369 42.228 40.52 41.9538 40.5545 41.5364C40.589 41.119 41.0304 40.4543 41.1513 40.2897C41.2721 40.1251 41.4813 39.9617 41.7716 39.7336C42.3523 39.2774 42.7636 38.6487 42.7636 37.3636C42.7636 36.0785 41.4362 34.4182 39.8182 34.4182ZM39.8182 43.6306C39.2759 43.6306 38.8364 44.0701 38.8364 44.6124C38.8364 45.1546 39.2759 45.5942 39.8182 45.5942C40.3604 45.5942 40.8 45.1546 40.8 44.6124C40.8 44.0701 40.3604 43.6306 39.8182 43.6306Z" fill="#00B5FF"/>
<rect x="20.5" y="20.5" width="39" height="39" rx="7.5" stroke="#00B5FF" shape-rendering="crispEdges"/>
</g>
<defs>
<filter id="filter0_d_87_4006" x="0" y="0" width="80" height="80" filterUnits="userSpaceOnUse" color-interpolation-filters="sRGB">
<feFlood flood-opacity="0" result="BackgroundImageFix"/>
<feColorMatrix in="SourceAlpha" type="matrix" values="0 0 0 0 0 0 0 0 0 0 0 0 0 0 0 0 0 0 127 0" result="hardAlpha"/>
<feOffset/>
<feGaussianBlur stdDeviation="10"/>
<feComposite in2="hardAlpha" operator="out"/>
<feColorMatrix type="matrix" values="0 0 0 0 0 0 0 0 0 0 0 0 0 0 0 0 0 0 0.1 0"/>
<feBlend mode="normal" in2="BackgroundImageFix" result="effect1_dropShadow_87_4006"/>
<feBlend mode="normal" in="SourceGraphic" in2="effect1_dropShadow_87_4006" result="shape"/>
</filter>
</defs>
</svg>
