<svg width="47" height="46" viewBox="0 0 47 46" fill="none" xmlns="http://www.w3.org/2000/svg">
<path d="M24.9004 0.400391H39.3004C41.9514 0.400391 44.1004 2.54942 44.1004 5.20039V19.6004C44.1004 20.4129 44.1004 22.0004 40.5004 22.0004H36.9004C28.9475 22.0004 22.5004 28.4475 22.5004 36.4004V41.2004C22.5004 44.0084 20.3182 44.1147 17.7003 43.1914C16.7177 42.8449 15.7952 42.2787 15.0092 41.4927L3.00922 29.4927C0.197447 26.6809 0.197447 22.1221 3.00922 19.3103L19.8092 2.5103C21.2151 1.10443 23.0577 0.400391 24.9004 0.400391ZM32.1004 17.2004C34.7514 17.2004 36.9004 15.0514 36.9004 12.4004C36.9004 9.74942 34.7514 7.60039 32.1004 7.60039C29.4493 7.60039 27.3004 9.74942 27.3004 12.4004C27.3004 15.0514 29.4493 17.2004 32.1004 17.2004ZM44.1004 34.0004C44.7369 34.0004 45.3474 34.2533 45.7974 34.7034C46.2474 35.1533 46.5004 35.7639 46.5004 36.4004C46.5004 37.0369 46.2474 37.6474 45.7974 38.0974C45.3474 38.5474 44.7369 38.8004 44.1004 38.8004H39.3004V43.6004C39.3004 44.2369 39.0474 44.8474 38.5974 45.2974C38.1474 45.7474 37.5369 46.0004 36.9004 46.0004C36.2639 46.0004 35.6533 45.7474 35.2034 45.2974C34.7533 44.8474 34.5004 44.2369 34.5004 43.6004V38.8004H29.7004C29.0639 38.8004 28.4534 38.5474 28.0033 38.0974C27.5533 37.6474 27.3004 37.0369 27.3004 36.4004C27.3004 35.7639 27.5533 35.1533 28.0033 34.7034C28.4534 34.2533 29.0639 34.0004 29.7004 34.0004H34.5004V29.2004C34.5004 28.5639 34.7533 27.9534 35.2034 27.5033C35.6533 27.0533 36.2639 26.8004 36.9004 26.8004C37.5369 26.8004 38.1474 27.0533 38.5974 27.5033C39.0474 27.9534 39.3004 28.5639 39.3004 29.2004V34.0004H44.1004Z" fill="#CCE5DF"/>
</svg>
