<svg width="38" height="38" viewBox="0 0 38 38" fill="none" xmlns="http://www.w3.org/2000/svg">
<rect x="1" y="1" width="36" height="36" rx="4" fill="white" fill-opacity="0.01"/>
<g filter="url(#filter0_d_44153_922)">
<path fill-rule="evenodd" clip-rule="evenodd" d="M26.0002 18.0002H14.4142L17.7073 14.7072C18.0982 14.3162 18.0982 13.6842 17.7073 13.2932C17.3163 12.9022 16.6842 12.9022 16.2933 13.2932L11.2932 18.2933C10.9022 18.6842 10.9022 19.3163 11.2932 19.7073L16.2933 24.7072C16.4883 24.9022 16.7442 25.0002 17.0002 25.0002C17.2562 25.0002 17.5122 24.9022 17.7073 24.7072C18.0982 24.3162 18.0982 23.6842 17.7073 23.2933L14.4142 20.0002H26.0002C26.5532 20.0002 27.0002 19.5522 27.0002 19.0002C27.0002 18.4482 26.5532 18.0002 26.0002 18.0002Z" fill="#5C5F62"/>
<rect x="1.5" y="1.5" width="35" height="35" rx="3.5" stroke="#BABFC3" shape-rendering="crispEdges"/>
</g>
<rect x="0.5" y="0.5" width="37" height="37" rx="4.5" stroke="white" stroke-opacity="0.01"/>
<defs>
<filter id="filter0_d_44153_922" x="1" y="1" width="36" height="37" filterUnits="userSpaceOnUse" color-interpolation-filters="sRGB">
<feFlood flood-opacity="0" result="BackgroundImageFix"/>
<feColorMatrix in="SourceAlpha" type="matrix" values="0 0 0 0 0 0 0 0 0 0 0 0 0 0 0 0 0 0 127 0" result="hardAlpha"/>
<feOffset dy="1"/>
<feComposite in2="hardAlpha" operator="out"/>
<feColorMatrix type="matrix" values="0 0 0 0 0 0 0 0 0 0 0 0 0 0 0 0 0 0 0.05 0"/>
<feBlend mode="normal" in2="BackgroundImageFix" result="effect1_dropShadow_44153_922"/>
<feBlend mode="normal" in="SourceGraphic" in2="effect1_dropShadow_44153_922" result="shape"/>
</filter>
</defs>
</svg>
