<svg width="46" height="46" viewBox="0 0 46 46" fill="none" xmlns="http://www.w3.org/2000/svg">
<path d="M43.2667 4.00039C43.2667 3.04561 42.8874 2.12994 42.2122 1.45481C41.5371 0.779675 40.6214 0.400391 39.6667 0.400391H3.66665C2.71187 0.400391 1.7962 0.779675 1.12107 1.45481C0.445935 2.12994 0.0666504 3.04561 0.0666504 4.00039V40.0004C0.0666504 40.9552 0.445935 41.8708 1.12107 42.546C1.7962 43.2211 2.71187 43.6004 3.66665 43.6004H21.6667V38.8004H6.05945C5.07545 38.8004 4.52345 37.6964 5.09945 36.9044L13.6267 27.182C14.0827 26.678 14.8747 26.678 15.3547 27.158L19.2667 31.6004L26.6107 20.126C26.7234 19.9601 26.8759 19.8251 27.0543 19.7333C27.2327 19.6416 27.4312 19.596 27.6317 19.6008C27.8323 19.6056 28.0284 19.6605 28.2022 19.7607C28.376 19.8608 28.5219 20.0029 28.6267 20.174L30.3547 23.1764C32.1581 22.3976 34.1022 21.9973 36.0667 22.0004H43.2667V4.00039ZM15.6667 8.80039C18.3067 8.80039 20.4667 10.9604 20.4667 13.6004C20.4667 16.2404 18.3067 18.4004 15.6667 18.4004C13.0267 18.4004 10.8667 16.2404 10.8667 13.6004C10.8667 10.9604 13.0267 8.80039 15.6667 8.80039ZM44.9635 34.7036C44.5135 34.2535 43.9031 34.0005 43.2667 34.0004H38.4667V29.2004C38.4667 28.5639 38.2138 27.9534 37.7637 27.5033C37.3136 27.0532 36.7032 26.8004 36.0667 26.8004C35.4301 26.8004 34.8197 27.0532 34.3696 27.5033C33.9195 27.9534 33.6667 28.5639 33.6667 29.2004V34.0004H28.8667C28.2301 34.0004 27.6197 34.2532 27.1696 34.7033C26.7195 35.1534 26.4667 35.7639 26.4667 36.4004C26.4667 37.0369 26.7195 37.6474 27.1696 38.0974C27.6197 38.5475 28.2301 38.8004 28.8667 38.8004H33.6667V43.6004C33.6667 44.2369 33.9195 44.8474 34.3696 45.2974C34.8197 45.7475 35.4301 46.0004 36.0667 46.0004C36.7032 46.0004 37.3136 45.7475 37.7637 45.2974C38.2138 44.8474 38.4667 44.2369 38.4667 43.6004V38.8004H43.2667C43.7413 38.8003 44.2052 38.6595 44.5998 38.3958C44.9943 38.132 45.3019 37.7572 45.4835 37.3188C45.6651 36.8803 45.7126 36.3978 45.6201 35.9323C45.5275 35.4668 45.299 35.0392 44.9635 34.7036V34.7036Z" fill="#CCE5DF"/>
</svg>
