<svg width="14" height="15" viewBox="0 0 14 15" fill="none" xmlns="http://www.w3.org/2000/svg">
<path d="M5 1.994C5 0.893 5.895 0 7 0C8.105 0 9 0.893 9 1.994H13C13.552 1.994 14 2.44 14 2.991C14 3.541 13.552 3.988 13 3.988H1C0.448 3.988 0 3.541 0 2.991C0 2.441 0.448 1.994 1 1.994H5ZM2 12.508V6H4V12.508C4.00053 12.6403 4.05344 12.7669 4.14715 12.8603C4.24086 12.9536 4.36774 13.006 4.5 13.006H6V6H8V13.006H9.5C9.63226 13.006 9.75914 12.9536 9.85285 12.8603C9.94656 12.7669 9.99947 12.6403 10 12.508V6H12V12.508C11.9995 12.8358 11.9344 13.1602 11.8085 13.4629C11.6826 13.7655 11.4983 14.0404 11.2661 14.2718C11.034 14.5032 10.7585 14.6866 10.4555 14.8115C10.1525 14.9365 9.82778 15.0005 9.5 15H4.5C3.12 15 2 13.884 2 12.508Z" fill="#D72C0D"/>
</svg>
