<svg width="20" height="20" viewBox="0 0 20 20" fill="none" xmlns="http://www.w3.org/2000/svg">
<g filter="url(#filter0_dd_44401_11081)">
<path fill-rule="evenodd" clip-rule="evenodd" d="M9.95922 19.6443C15.1974 19.6443 19.4435 15.3982 19.4435 10.16C19.4435 4.92188 15.1974 0.675781 9.95922 0.675781C4.72107 0.675781 0.474976 4.92188 0.474976 10.16C0.474976 15.3982 4.72107 19.6443 9.95922 19.6443ZM8.06237 7.18387V13.1362C8.0624 13.2192 8.08423 13.3008 8.12569 13.3728C8.16714 13.4447 8.22677 13.5045 8.29859 13.5462C8.37042 13.5879 8.45194 13.61 8.53498 13.6102C8.61802 13.6105 8.69968 13.589 8.77179 13.5478L13.9805 10.5716C14.0531 10.5301 14.1133 10.4702 14.1553 10.3979C14.1972 10.3257 14.2193 10.2436 14.2193 10.16C14.2193 10.0765 14.1972 9.99439 14.1553 9.9221C14.1133 9.84982 14.0531 9.7899 13.9805 9.74841L8.77179 6.7713C8.69961 6.73007 8.61786 6.70854 8.53474 6.70886C8.45162 6.70919 8.37004 6.73135 8.29818 6.77314C8.22633 6.81493 8.16672 6.87487 8.12533 6.94696C8.08394 7.01904 8.06223 7.10074 8.06237 7.18387Z" fill="white"/>
</g>
<defs>
<filter id="filter0_dd_44401_11081" x="-4.52502" y="-4.32422" width="28.9685" height="28.9688" filterUnits="userSpaceOnUse" color-interpolation-filters="sRGB">
<feFlood flood-opacity="0" result="BackgroundImageFix"/>
<feColorMatrix in="SourceAlpha" type="matrix" values="0 0 0 0 0 0 0 0 0 0 0 0 0 0 0 0 0 0 127 0" result="hardAlpha"/>
<feOffset/>
<feGaussianBlur stdDeviation="2.5"/>
<feComposite in2="hardAlpha" operator="out"/>
<feColorMatrix type="matrix" values="0 0 0 0 0 0 0 0 0 0 0 0 0 0 0 0 0 0 0.05 0"/>
<feBlend mode="normal" in2="BackgroundImageFix" result="effect1_dropShadow_44401_11081"/>
<feColorMatrix in="SourceAlpha" type="matrix" values="0 0 0 0 0 0 0 0 0 0 0 0 0 0 0 0 0 0 127 0" result="hardAlpha"/>
<feOffset dy="1"/>
<feGaussianBlur stdDeviation="1"/>
<feComposite in2="hardAlpha" operator="out"/>
<feColorMatrix type="matrix" values="0 0 0 0 0 0 0 0 0 0 0 0 0 0 0 0 0 0 0.15 0"/>
<feBlend mode="normal" in2="effect1_dropShadow_44401_11081" result="effect2_dropShadow_44401_11081"/>
<feBlend mode="normal" in="SourceGraphic" in2="effect2_dropShadow_44401_11081" result="shape"/>
</filter>
</defs>
</svg>
